STARTFONT 2.1
COMMENT
COMMENT Converted from OpenType font "awesome-2.0.otf" by "otf2bdf 3.0".
COMMENT
FONT -FreeType-Source Sans Pro SemiBold-Medium-R-Normal--42-300-100-100-P-204-ISO10646-1
SIZE 30 100 100
FONTBOUNDINGBOX 110 54 -19 -12
STARTPROPERTIES 19
FOUNDRY "FreeType"
FAMILY_NAME "Source Sans Pro SemiBold"
WEIGHT_NAME "Medium"
SLANT "R"
SETWIDTH_NAME "Normal"
ADD_STYLE_NAME ""
PIXEL_SIZE 42
POINT_SIZE 300
RESOLUTION_X 100
RESOLUTION_Y 100
SPACING "P"
AVERAGE_WIDTH 204
CHARSET_REGISTRY "ISO10646"
CHARSET_ENCODING "1"
FONT_ASCENT 41
FONT_DESCENT 11
COPYRIGHT "Copyright 2010, 2012, 2014 Adobe Systems Incorporated (http://www.adobe.com/), with Reserved Font Name Source."
_OTF_FONTFILE "awesome-2.0.otf"
_OTF_PSNAME "SourceSansPro-SemiBold"
ENDPROPERTIES
CHARS 1296
STARTCHAR 0020
ENCODING 32
SWIDTH 192 0
DWIDTH 8 0
BBX 0 0 0 0
BITMAP
ENDCHAR
STARTCHAR 0021
ENCODING 33
SWIDTH 312 0
DWIDTH 13 0
BBX 7 29 3 0
BITMAP
7C
7C
7C
7C
7C
7C
7C
7C
7C
3C
3C
3C
3C
3C
38
38
38
38
38
00
00
00
38
7C
7E
FE
7E
7C
38
ENDCHAR
STARTCHAR 0022
ENCODING 34
SWIDTH 480 0
DWIDTH 20 0
BBX 14 12 3 17
BITMAP
F87C
F87C
F87C
F87C
F87C
787C
787C
7878
7838
7038
7038
7038
ENDCHAR
STARTCHAR 0023
ENCODING 35
SWIDTH 528 0
DWIDTH 22 0
BBX 19 27 1 0
BITMAP
038380
038380
038300
038700
070700
070700
070700
7FFFE0
7FFFE0
7FFFE0
7FFFE0
070600
0E0E00
0E0E00
0E0E00
FFFFC0
FFFFC0
FFFFC0
FFFFC0
0E1C00
0C1C00
1C1C00
1C1C00
1C1C00
1C1C00
1C1C00
1C1C00
ENDCHAR
STARTCHAR 0024
ENCODING 36
SWIDTH 528 0
DWIDTH 22 0
BBX 17 35 2 -4
BITMAP
01E000
01E000
01E000
01E000
07F800
0FFE00
1FFF00
3FFF80
7E0F00
7C0600
7C0000
7C0000
7C0000
7E0000
3F0000
1FC000
0FF000
07FC00
01FE00
007F00
001F00
000F80
000F80
000F80
400F80
700F80
7C1F00
FFFF00
7FFE00
3FFC00
07F000
01E000
01E000
01E000
01E000
ENDCHAR
STARTCHAR 0025
ENCODING 37
SWIDTH 840 0
DWIDTH 35 0
BBX 33 28 1 0
BITMAP
0F8003C000
1FE0038000
3FF0070000
78F0070000
70780E0000
70380E0000
F0381C0000
F0381C0000
F038380000
F038380000
F038700000
7038E0F800
7078E3FE00
78F1C3FE00
3FF1C78F00
1FE3870700
0F838F0780
00070F0780
00070E0380
000E0E0380
000E0E0380
001C0F0780
001C0F0780
0038070700
0038078F00
007003FE00
00E003FE00
00E000F800
ENDCHAR
STARTCHAR 0026
ENCODING 38
SWIDTH 648 0
DWIDTH 27 0
BBX 25 28 1 0
BITMAP
00F80000
03FE0000
07FF0000
0FFF0000
0F8F8000
0F078000
0F078000
0F070000
0F0F0000
0F1E0000
0FBE0000
07FC0000
07F00000
07E00F80
1FE00F00
3FF01F00
7EF81E00
7C7C1E00
F87E3E00
F83F7C00
F81FF800
F80FF800
FC03F800
7E0FFE00
7FFFFF80
3FFFBF80
1FFE0F00
03F80300
ENDCHAR
STARTCHAR 0027
ENCODING 39
SWIDTH 288 0
DWIDTH 12 0
BBX 5 12 3 17
BITMAP
F8
F8
F8
F8
F8
78
78
78
78
70
70
70
ENDCHAR
STARTCHAR 0028
ENCODING 40
SWIDTH 336 0
DWIDTH 14 0
BBX 9 38 3 -7
BITMAP
0600
0780
0F00
0F00
1E00
1E00
3C00
3C00
3C00
7800
7800
7800
7800
7800
F000
F000
F000
F000
F000
F000
F000
F000
F000
F000
7800
7800
7800
7800
7800
3C00
3C00
1C00
1E00
1E00
0F00
0F00
0780
0600
ENDCHAR
STARTCHAR 0029
ENCODING 41
SWIDTH 336 0
DWIDTH 14 0
BBX 8 38 2 -7
BITMAP
20
F0
F0
78
78
3C
3C
1C
1E
1E
1E
0F
0F
0F
0F
0F
0F
0F
0F
0F
0F
0F
0F
0F
0F
0F
0F
1E
1E
1E
1C
3C
3C
78
78
F0
F0
20
ENDCHAR
STARTCHAR 002A
ENCODING 42
SWIDTH 432 0
DWIDTH 18 0
BBX 14 14 2 16
BITMAP
0380
0380
0380
0380
77BC
FFFC
7FFC
1FE0
0FC0
1FE0
1EE0
3CF0
3870
1020
ENDCHAR
STARTCHAR 002B
ENCODING 43
SWIDTH 528 0
DWIDTH 22 0
BBX 19 20 1 4
BITMAP
00F000
00F000
00F000
00F000
00F000
00F000
00F000
00F000
FFFFE0
FFFFE0
FFFFE0
FFFFE0
00F000
00F000
00F000
00F000
00F000
00F000
00F000
00F000
ENDCHAR
STARTCHAR 002C
ENCODING 44
SWIDTH 288 0
DWIDTH 12 0
BBX 8 14 2 -8
BITMAP
3C
7E
7E
7E
7F
3F
0E
0E
1E
1C
7C
F8
70
40
ENDCHAR
STARTCHAR 002D
ENCODING 45
SWIDTH 336 0
DWIDTH 14 0
BBX 10 4 2 9
BITMAP
FFC0
FFC0
FFC0
FFC0
ENDCHAR
STARTCHAR 002E
ENCODING 46
SWIDTH 288 0
DWIDTH 12 0
BBX 6 7 3 0
BITMAP
70
F8
FC
FC
FC
F8
70
ENDCHAR
STARTCHAR 002F
ENCODING 47
SWIDTH 336 0
DWIDTH 14 0
BBX 14 37 0 -7
BITMAP
003C
0038
0038
0078
0070
0070
0070
00F0
00E0
00E0
01E0
01E0
01C0
01C0
03C0
0380
0380
0380
0780
0700
0700
0700
0F00
0E00
0E00
0E00
1E00
1C00
1C00
3C00
3C00
3800
3800
7800
7000
7000
F000
ENDCHAR
STARTCHAR 0030
ENCODING 48
SWIDTH 528 0
DWIDTH 22 0
BBX 18 27 2 0
BITMAP
03F000
0FFC00
1FFE00
3FFE00
7E1F00
7C0F80
780F80
F80780
F80780
F807C0
F007C0
F007C0
F007C0
F007C0
F007C0
F007C0
F007C0
F807C0
F80780
F80F80
780F80
7C0F00
7E1F00
3FFE00
1FFE00
0FF800
03F000
ENDCHAR
STARTCHAR 0031
ENCODING 49
SWIDTH 528 0
DWIDTH 22 0
BBX 16 27 3 0
BITMAP
03E0
1FE0
7FE0
7FE0
7FE0
7FE0
03E0
03E0
03E0
03E0
03E0
03E0
03E0
03E0
03E0
03E0
03E0
03E0
03E0
03E0
03E0
03E0
03E0
FFFF
FFFF
FFFF
FFFF
ENDCHAR
STARTCHAR 0032
ENCODING 50
SWIDTH 528 0
DWIDTH 22 0
BBX 19 27 1 0
BITMAP
03F000
0FFC00
3FFE00
7FFF00
FC1F80
380F80
100F80
000780
000780
000780
000F80
000F80
001F00
001F00
003E00
007C00
00FC00
01F800
03F000
07E000
0FC000
1F8000
3F0000
7FFFE0
7FFFE0
7FFFE0
7FFFE0
ENDCHAR
STARTCHAR 0033
ENCODING 51
SWIDTH 528 0
DWIDTH 22 0
BBX 18 27 1 0
BITMAP
03F800
0FFE00
3FFF00
7FFF80
3C1F80
180F80
2007C0
0007C0
000F80
000F80
003F00
03FE00
03F800
03FE00
03FF00
003F80
000FC0
0007C0
0003C0
0003C0
2007C0
7007C0
7C1FC0
FFFF80
7FFF00
1FFE00
07F800
ENDCHAR
STARTCHAR 0034
ENCODING 52
SWIDTH 528 0
DWIDTH 22 0
BBX 19 27 1 0
BITMAP
003F00
007F00
007F00
00FF00
01FF00
01EF00
03EF00
07CF00
07CF00
0F8F00
1F0F00
1F0F00
3E0F00
7C0F00
7C0F00
F80F00
FFFFE0
FFFFE0
FFFFE0
FFFFE0
000F00
000F00
000F00
000F00
000F00
000F00
000F00
ENDCHAR
STARTCHAR 0035
ENCODING 53
SWIDTH 528 0
DWIDTH 22 0
BBX 19 27 1 0
BITMAP
1FFF80
1FFF80
1FFF80
1FFF80
1E0000
1E0000
1E0000
3E0000
3E0000
3FF800
3FFE00
3FFF00
3FFF80
1C1FC0
100FC0
0007C0
0007C0
0003E0
0003C0
0007C0
2007C0
700FC0
7C1F80
FFFF80
7FFF00
1FFC00
07F000
ENDCHAR
STARTCHAR 0036
ENCODING 54
SWIDTH 528 0
DWIDTH 22 0
BBX 18 27 2 0
BITMAP
01FC00
07FF00
0FFF80
1FFF80
3F0700
3E0200
7C0000
780000
F80000
F80000
F8F800
F3FE00
F7FF00
FFFF80
FE1F80
FC07C0
F807C0
F807C0
F807C0
F807C0
7807C0
7C0780
3E1F80
3FFF00
1FFF00
0FFC00
03F000
ENDCHAR
STARTCHAR 0037
ENCODING 55
SWIDTH 528 0
DWIDTH 22 0
BBX 18 27 2 0
BITMAP
FFFFC0
FFFFC0
FFFFC0
FFFF80
000F80
001F00
001E00
003E00
003C00
007800
007800
00F800
00F000
01F000
01F000
01E000
03E000
03E000
03E000
03E000
03C000
07C000
07C000
07C000
07C000
07C000
07C000
ENDCHAR
STARTCHAR 0038
ENCODING 56
SWIDTH 528 0
DWIDTH 22 0
BBX 18 27 2 0
BITMAP
03F000
0FFC00
3FFE00
3FFF00
7E1F00
7C0F80
780780
780780
7C0780
7C0F00
3F0F00
1FFE00
0FFC00
0FFC00
3FFE00
7C3F00
781F80
F00780
F007C0
F007C0
F007C0
F807C0
FC1F80
7FFF80
3FFF00
1FFE00
07F000
ENDCHAR
STARTCHAR 0039
ENCODING 57
SWIDTH 528 0
DWIDTH 22 0
BBX 18 27 2 0
BITMAP
07E000
1FF800
3FFC00
7FFE00
FC3F00
F81F00
F00F80
F00F80
F00780
F00780
F00780
F80FC0
FC3FC0
7FFFC0
7FFFC0
3FE780
0FC780
000780
000F80
000F80
000F00
201F00
787E00
FFFE00
7FFC00
3FF000
0FC000
ENDCHAR
STARTCHAR 003A
ENCODING 58
SWIDTH 288 0
DWIDTH 12 0
BBX 6 21 3 0
BITMAP
70
F8
FC
FC
FC
F8
70
00
00
00
00
00
00
00
70
F8
FC
FC
FC
F8
70
ENDCHAR
STARTCHAR 003B
ENCODING 59
SWIDTH 288 0
DWIDTH 12 0
BBX 8 29 2 -8
BITMAP
38
7C
7E
7E
7E
7C
38
00
00
00
00
00
00
00
00
3C
7E
7E
7E
7F
3F
0E
0E
1E
1C
7C
F8
70
40
ENDCHAR
STARTCHAR 003C
ENCODING 60
SWIDTH 528 0
DWIDTH 22 0
BBX 19 18 1 5
BITMAP
000020
0001E0
0007E0
003FE0
01FFC0
07FE00
3FF000
FF8000
FE0000
FE0000
FF8000
3FF000
07FE00
01FFC0
003FE0
0007E0
0001E0
000020
ENDCHAR
STARTCHAR 003D
ENCODING 61
SWIDTH 528 0
DWIDTH 22 0
BBX 19 14 1 7
BITMAP
FFFFE0
FFFFE0
FFFFE0
FFFFE0
000000
000000
000000
000000
000000
000000
FFFFE0
FFFFE0
FFFFE0
FFFFE0
ENDCHAR
STARTCHAR 003E
ENCODING 62
SWIDTH 528 0
DWIDTH 22 0
BBX 19 18 1 5
BITMAP
C00000
F00000
FE0000
FF8000
3FF000
07FE00
01FF80
003FE0
0007E0
0007E0
003FE0
01FF80
07FE00
3FF000
FF8000
FE0000
F00000
C00000
ENDCHAR
STARTCHAR 003F
ENCODING 63
SWIDTH 456 0
DWIDTH 19 0
BBX 15 29 2 0
BITMAP
0FC0
3FF0
7FF8
FFFC
787C
203E
003E
003E
003E
007C
007C
00F8
01F0
03E0
07C0
07C0
0780
0780
0F80
0000
0000
0000
0700
0F80
0FC0
0FC0
0FC0
0F80
0700
ENDCHAR
STARTCHAR 0040
ENCODING 64
SWIDTH 888 0
DWIDTH 37 0
BBX 33 35 2 -7
BITMAP
0003FC0000
001FFF8000
007FFFE000
00FFFFF000
03FC03F800
07F000FC00
0FC0003E00
0F80001E00
1F00000F00
3E03E70F00
3C07FF0700
380FFE0700
781FFE0780
703E1E0780
703C1E0780
F0781E0780
F0781C0780
F0781C0700
E0701C0700
E0703C0F00
F0783C0F00
F0787C1E00
F07FFFFC00
F03FFFFC00
783FCFF800
780F07E000
7C00000000
3E00000000
1F00000000
1F80020000
0FF01E0000
07FFFE0000
03FFFF0000
00FFFC0000
001FE00000
ENDCHAR
STARTCHAR 0041
ENCODING 65
SWIDTH 552 0
DWIDTH 23 0
BBX 24 28 0 0
BITMAP
007E00
00FE00
00FE00
00FF00
01EF00
01EF00
01EF80
03E780
03C780
03C7C0
07C3C0
0783C0
0783E0
0783E0
0F81E0
0F01F0
0FFFF0
1FFFF0
1FFFF0
1FFFF8
3E00F8
3E0078
3C007C
7C007C
7C007C
7C003E
F8003E
F8003F
ENDCHAR
STARTCHAR 0042
ENCODING 66
SWIDTH 600 0
DWIDTH 25 0
BBX 21 28 3 0
BITMAP
FFFC00
FFFF00
FFFFC0
FFFFC0
F80FE0
F803E0
F803E0
F803E0
F803E0
F803E0
F80FC0
FFFF80
FFFF00
FFFF00
FFFFC0
F807E0
F801F0
F801F0
F800F0
F800F8
F800F0
F801F0
F801F0
F807F0
FFFFE0
FFFFC0
FFFF80
FFFC00
ENDCHAR
STARTCHAR 0043
ENCODING 67
SWIDTH 576 0
DWIDTH 24 0
BBX 21 28 2 0
BITMAP
007F00
01FFC0
07FFF0
0FFFF8
1FC1F0
3F0060
3E0000
7E0000
7C0000
7C0000
F80000
F80000
F80000
F80000
F80000
F80000
F80000
F80000
7C0000
7C0000
7E0000
3E0020
3F0070
1FC1F0
0FFFF8
07FFF0
03FFC0
007F00
ENDCHAR
STARTCHAR 0044
ENCODING 68
SWIDTH 624 0
DWIDTH 26 0
BBX 21 28 3 0
BITMAP
FFF000
FFFE00
FFFF80
FFFFC0
F81FE0
F807E0
F803F0
F801F0
F801F8
F800F8
F800F8
F800F8
F800F8
F800F8
F800F8
F800F8
F800F8
F800F8
F800F8
F801F0
F801F0
F803F0
F807E0
F81FC0
FFFFC0
FFFF00
FFFE00
FFF000
ENDCHAR
STARTCHAR 0045
ENCODING 69
SWIDTH 552 0
DWIDTH 23 0
BBX 17 28 3 0
BITMAP
FFFF80
FFFF80
FFFF80
FFFF80
F80000
F80000
F80000
F80000
F80000
F80000
F80000
F80000
FFFE00
FFFE00
FFFE00
FFFE00
F80000
F80000
F80000
F80000
F80000
F80000
F80000
F80000
FFFF80
FFFF80
FFFF80
FFFF80
ENDCHAR
STARTCHAR 0046
ENCODING 70
SWIDTH 504 0
DWIDTH 21 0
BBX 17 28 3 0
BITMAP
FFFF80
FFFF80
FFFF80
FFFF80
F80000
F80000
F80000
F80000
F80000
F80000
F80000
F80000
FFFE00
FFFE00
FFFE00
FFFE00
F80000
F80000
F80000
F80000
F80000
F80000
F80000
F80000
F80000
F80000
F80000
F80000
ENDCHAR
STARTCHAR 0047
ENCODING 71
SWIDTH 624 0
DWIDTH 26 0
BBX 22 28 2 0
BITMAP
007F80
01FFE0
07FFF0
0FFFF8
1FC0F0
3F8030
3E0000
7E0000
7C0000
7C0000
F80000
F80000
F80000
F80FFC
F80FFC
F80FFC
F80FFC
F8007C
7C007C
7C007C
7E007C
3E007C
3F007C
1FC0FC
0FFFFC
07FFF8
01FFE0
007F80
ENDCHAR
STARTCHAR 0048
ENCODING 72
SWIDTH 672 0
DWIDTH 28 0
BBX 21 28 3 0
BITMAP
F800F8
F800F8
F800F8
F800F8
F800F8
F800F8
F800F8
F800F8
F800F8
F800F8
F800F8
F800F8
FFFFF8
FFFFF8
FFFFF8
FFFFF8
F800F8
F800F8
F800F8
F800F8
F800F8
F800F8
F800F8
F800F8
F800F8
F800F8
F800F8
F800F8
ENDCHAR
STARTCHAR 0049
ENCODING 73
SWIDTH 288 0
DWIDTH 12 0
BBX 5 28 3 0
BITMAP
F8
F8
F8
F8
F8
F8
F8
F8
F8
F8
F8
F8
F8
F8
F8
F8
F8
F8
F8
F8
F8
F8
F8
F8
F8
F8
F8
F8
ENDCHAR
STARTCHAR 004A
ENCODING 74
SWIDTH 504 0
DWIDTH 21 0
BBX 16 28 1 0
BITMAP
000F
000F
000F
000F
000F
000F
000F
000F
000F
000F
000F
000F
000F
000F
000F
000F
000F
000F
000F
001F
001F
101F
701F
FC3F
7FFE
7FFC
1FF8
07E0
ENDCHAR
STARTCHAR 004B
ENCODING 75
SWIDTH 600 0
DWIDTH 25 0
BBX 22 28 3 0
BITMAP
F801F8
F803F0
F807E0
F807C0
F80F80
F81F00
F83F00
F87E00
F87C00
F8F800
F9F800
FBF800
FBF800
FFFC00
FFFC00
FFBE00
FF3E00
FE1F00
FC1F80
FC0F80
F807C0
F807C0
F803E0
F803F0
F801F0
F801F8
F800F8
F800FC
ENDCHAR
STARTCHAR 004C
ENCODING 76
SWIDTH 504 0
DWIDTH 21 0
BBX 17 28 3 0
BITMAP
F80000
F80000
F80000
F80000
F80000
F80000
F80000
F80000
F80000
F80000
F80000
F80000
F80000
F80000
F80000
F80000
F80000
F80000
F80000
F80000
F80000
F80000
F80000
F80000
FFFF80
FFFF80
FFFF80
FFFF80
ENDCHAR
STARTCHAR 004D
ENCODING 77
SWIDTH 744 0
DWIDTH 31 0
BBX 25 28 3 0
BITMAP
FC001F80
FE001F80
FE003F80
FE003F80
FF003F80
FF007F80
F7007F80
F7807780
F780F780
FB80F780
FBC0E780
FBC1EF80
F9C1EF80
F9E1CF80
F9E3CF80
F8E3CF80
F8F38F80
F8F78F80
F8778F80
F87F0F80
F87F0F80
F83E0F80
F83E0F80
F83E0F80
F81C0F80
F8000F80
F8000F80
F8000F80
ENDCHAR
STARTCHAR 004E
ENCODING 78
SWIDTH 672 0
DWIDTH 28 0
BBX 21 28 3 0
BITMAP
FC00F8
FC00F8
FE00F8
FE00F8
FF00F8
FF00F8
FF80F8
FFC0F8
FBC0F8
FBE0F8
F9E0F8
F9F0F8
F8F0F8
F8F8F8
F878F8
F87C78
F83C78
F83E78
F81E78
F81F78
F80F78
F807F8
F807F8
F803F8
F803F8
F801F8
F801F8
F800F8
ENDCHAR
STARTCHAR 004F
ENCODING 79
SWIDTH 672 0
DWIDTH 28 0
BBX 24 28 2 0
BITMAP
007F00
03FFC0
07FFF0
0FFFF8
1FC1FC
3F00FC
3E007E
7C003E
7C003F
7C001F
F8001F
F8001F
F8001F
F8001F
F8001F
F8001F
F8001F
F8001F
7C001F
7C003F
7E003E
3E007E
3F00FC
1FC1FC
0FFFF8
07FFF0
03FFC0
007F00
ENDCHAR
STARTCHAR 0050
ENCODING 80
SWIDTH 576 0
DWIDTH 24 0
BBX 20 28 3 0
BITMAP
FFFC00
FFFF00
FFFF80
FFFFC0
F80FE0
F803E0
F801F0
F801F0
F801F0
F801F0
F801F0
F803E0
F803E0
F80FE0
FFFFC0
FFFF80
FFFF00
FFF800
F80000
F80000
F80000
F80000
F80000
F80000
F80000
F80000
F80000
F80000
ENDCHAR
STARTCHAR 0051
ENCODING 81
SWIDTH 672 0
DWIDTH 28 0
BBX 25 35 2 -7
BITMAP
007F0000
03FFC000
07FFF000
0FFFF800
1FC1FC00
3F00FC00
3E007E00
7C003E00
7C003F00
7C001F00
F8001F00
F8001F00
F8001F00
F8001F00
F8001F00
F8001F00
F8001F00
F8001F00
7C001F00
7C003F00
7E003E00
3E007E00
3F00FC00
1FC1FC00
1FFFF800
0FFFF000
03FFC000
00FF0000
003E0000
001F0000
001FC000
000FFF80
0007FF80
0001FF80
00007F00
ENDCHAR
STARTCHAR 0052
ENCODING 82
SWIDTH 600 0
DWIDTH 25 0
BBX 21 28 3 0
BITMAP
FFFC00
FFFF00
FFFFC0
FFFFE0
F807E0
F803E0
F801F0
F801F0
F801F0
F801F0
F801F0
F803E0
F80FE0
FFFFC0
FFFFC0
FFFF00
FFFC00
F83E00
F83F00
F81F00
F81F80
F80F80
F807C0
F807C0
F803E0
F803F0
F801F0
F801F8
ENDCHAR
STARTCHAR 0053
ENCODING 83
SWIDTH 552 0
DWIDTH 23 0
BBX 19 28 2 0
BITMAP
01FC00
0FFF00
1FFFC0
3FFFE0
3F07C0
7C0180
7C0000
7C0000
7C0000
7E0000
7F8000
3FE000
1FF800
0FFF00
03FF80
00FFC0
003FE0
000FE0
0003E0
0003E0
0003E0
2003E0
7803E0
FE0FC0
FFFFC0
7FFF80
1FFE00
03F800
ENDCHAR
STARTCHAR 0054
ENCODING 84
SWIDTH 552 0
DWIDTH 23 0
BBX 21 28 1 0
BITMAP
FFFFF8
FFFFF8
FFFFF8
FFFFF8
00F800
00F800
00F800
00F800
00F800
00F800
00F800
00F800
00F800
00F800
00F800
00F800
00F800
00F800
00F800
00F800
00F800
00F800
00F800
00F800
00F800
00F800
00F800
00F800
ENDCHAR
STARTCHAR 0055
ENCODING 85
SWIDTH 672 0
DWIDTH 28 0
BBX 21 28 3 0
BITMAP
F800F8
F800F8
F800F8
F800F8
F800F8
F800F8
F800F8
F800F8
F800F8
F800F8
F800F8
F800F8
F800F8
F800F8
F800F8
F800F8
F800F8
F800F8
7800F8
7C00F8
7C00F8
7C01F0
3E01F0
3F07E0
1FFFE0
0FFFC0
07FF80
01FC00
ENDCHAR
STARTCHAR 0056
ENCODING 86
SWIDTH 552 0
DWIDTH 23 0
BBX 23 28 0 0
BITMAP
F8003E
F8007C
7C007C
7C007C
7C00F8
3E00F8
3E00F8
3E00F0
3E01F0
1F01F0
1F01E0
1F01E0
0F03E0
0F83E0
0F83C0
0787C0
07C7C0
07C780
07C780
03CF80
03EF00
03EF00
01EF00
01FF00
01FE00
00FE00
00FE00
00FC00
ENDCHAR
STARTCHAR 0057
ENCODING 87
SWIDTH 816 0
DWIDTH 34 0
BBX 32 28 1 0
BITMAP
F803C01F
F807C01F
F807E01E
F807E01E
7C07E03E
7C07E03E
7C0FF03E
7C0FF03C
7C0EF03C
3C0EF03C
3E1E787C
3E1E787C
3E1E7878
3E1C7878
1E3C7878
1E3C3C78
1E3C3CF8
1F3C3CF8
1F383CF0
0F781EF0
0F781EF0
0F781EF0
0F701EF0
0FF01FE0
07F00FE0
07F00FE0
07E00FE0
07E00FE0
ENDCHAR
STARTCHAR 0058
ENCODING 88
SWIDTH 552 0
DWIDTH 23 0
BBX 21 28 1 0
BITMAP
FC01F8
7C01F0
7E03E0
3E03E0
3F07C0
1F07C0
0F8F80
0F8F80
07CF00
07DF00
03FE00
03FE00
01FC00
01FC00
01FC00
03FC00
03FE00
07FE00
079F00
0F9F00
0F0F80
1F0FC0
1E07C0
3E07E0
7C03E0
7C03F0
F801F0
F800F8
ENDCHAR
STARTCHAR 0059
ENCODING 89
SWIDTH 504 0
DWIDTH 21 0
BBX 21 28 0 0
BITMAP
F800F8
7C01F8
7C01F0
7C01F0
3E03E0
3E03E0
1F07C0
1F07C0
0F8780
0F8F80
078F00
07DF00
03DE00
03FE00
01FC00
01FC00
00F800
00F800
00F800
00F800
00F800
00F800
00F800
00F800
00F800
00F800
00F800
00F800
ENDCHAR
STARTCHAR 005A
ENCODING 90
SWIDTH 552 0
DWIDTH 23 0
BBX 19 28 2 0
BITMAP
7FFFE0
7FFFE0
7FFFE0
7FFFE0
0007C0
000F80
001F80
001F00
003F00
007E00
007C00
00FC00
00F800
01F000
03F000
03E000
07C000
0FC000
0F8000
1F8000
1F0000
3E0000
7E0000
7C0000
FFFFE0
FFFFE0
FFFFE0
FFFFE0
ENDCHAR
STARTCHAR 005B
ENCODING 91
SWIDTH 336 0
DWIDTH 14 0
BBX 8 37 4 -7
BITMAP
FF
FF
FF
E0
E0
E0
E0
E0
E0
E0
E0
E0
E0
E0
E0
E0
E0
E0
E0
E0
E0
E0
E0
E0
E0
E0
E0
E0
E0
E0
E0
E0
E0
E0
FF
FF
FF
ENDCHAR
STARTCHAR 005C
ENCODING 92
SWIDTH 336 0
DWIDTH 14 0
BBX 13 37 1 -7
BITMAP
E000
F000
7000
7000
7000
7800
3800
3800
3800
3C00
1C00
1C00
1C00
1E00
0E00
0E00
0F00
0700
0700
0700
0780
0380
0380
0380
03C0
01C0
01C0
01C0
01E0
00E0
00E0
00F0
00F0
0070
0070
0078
0038
ENDCHAR
STARTCHAR 005D
ENCODING 93
SWIDTH 336 0
DWIDTH 14 0
BBX 8 37 2 -7
BITMAP
FF
FF
FF
0F
0F
0F
0F
0F
0F
0F
0F
0F
0F
0F
0F
0F
0F
0F
0F
0F
0F
0F
0F
0F
0F
0F
0F
0F
0F
0F
0F
0F
0F
0F
FF
FF
FF
ENDCHAR
STARTCHAR 005E
ENCODING 94
SWIDTH 528 0
DWIDTH 22 0
BBX 17 16 2 12
BITMAP
01E000
03E000
03F000
07F000
07F800
077800
0F3800
0E3C00
1E3C00
1E1E00
1C1E00
3C0E00
3C0F00
780F00
780780
F80780
ENDCHAR
STARTCHAR 005F
ENCODING 95
SWIDTH 504 0
DWIDTH 21 0
BBX 21 3 0 -6
BITMAP
FFFFF8
FFFFF8
FFFFF8
ENDCHAR
STARTCHAR 0060
ENCODING 96
SWIDTH 552 0
DWIDTH 23 0
BBX 10 10 4 24
BITMAP
1000
3800
7C00
FE00
3F00
1F00
0F80
07C0
0380
0100
ENDCHAR
STARTCHAR 0061
ENCODING 97
SWIDTH 528 0
DWIDTH 22 0
BBX 17 20 2 0
BITMAP
03F800
1FFC00
7FFE00
7FFF00
3C1F00
200F80
000F80
007F80
07FF80
1FFF80
7F8F80
7C0F80
F80F80
F80F80
F81F80
FC3F80
FFFF80
7FF780
3FE780
1F8000
ENDCHAR
STARTCHAR 0062
ENCODING 98
SWIDTH 576 0
DWIDTH 24 0
BBX 19 30 3 0
BITMAP
F80000
F80000
F80000
F80000
F80000
F80000
F80000
F80000
F80000
F80000
F8FC00
FBFF00
FFFF80
FFFF80
FE0FC0
FC07C0
F807E0
F803E0
F803E0
F803E0
F803E0
F803E0
F803E0
F807C0
FC0FC0
FE1F80
FFFF80
FFFF00
F3FE00
00F800
ENDCHAR
STARTCHAR 0063
ENCODING 99
SWIDTH 456 0
DWIDTH 19 0
BBX 16 20 2 0
BITMAP
01F8
0FFE
1FFF
3FFE
7F0E
7C04
FC00
F800
F800
F800
F800
F800
F800
FC00
7C02
7F0E
3FFF
1FFF
0FFE
03F8
ENDCHAR
STARTCHAR 0064
ENCODING 100
SWIDTH 576 0
DWIDTH 24 0
BBX 19 30 2 0
BITMAP
0003E0
0003E0
0003E0
0003E0
0003E0
0003E0
0003E0
0003E0
0003E0
0003E0
03E3E0
0FFBE0
1FFFE0
3FFFE0
7F0FE0
7C07E0
FC03E0
F803E0
F803E0
F803E0
F803E0
F803E0
F803E0
F803E0
FC07E0
7E1FE0
7FFFE0
3FFFE0
1FF9E0
07E000
ENDCHAR
STARTCHAR 0065
ENCODING 101
SWIDTH 504 0
DWIDTH 21 0
BBX 18 20 2 0
BITMAP
03F000
0FFC00
1FFF00
3FFF00
7E0F80
7C0780
F80780
F803C0
FFFFC0
FFFFC0
FFFFC0
F00000
F80000
F80000
7C0200
7F0700
3FFF00
1FFF80
0FFF00
03F800
ENDCHAR
STARTCHAR 0066
ENCODING 102
SWIDTH 312 0
DWIDTH 13 0
BBX 14 30 1 0
BITMAP
01F8
07FC
0FF8
0FF8
1F88
1F00
1F00
1F00
1F00
1F00
FFF0
FFF0
FFF0
FFF0
1F00
1F00
1F00
1F00
1F00
1F00
1F00
1F00
1F00
1F00
1F00
1F00
1F00
1F00
1F00
1F00
ENDCHAR
STARTCHAR 0067
ENCODING 103
SWIDTH 528 0
DWIDTH 22 0
BBX 19 29 2 -9
BITMAP
07FFE0
1FFFE0
3FFFE0
7FFFE0
7C1F00
F80F00
F80F00
F80F00
780F00
7C1F00
3FFF00
1FFE00
3FFC00
3FF000
780000
780000
780000
7FFF00
3FFFC0
1FFFE0
7FFFE0
F003E0
F001E0
F003E0
F80FE0
FFFFC0
7FFF80
3FFE00
0FF800
ENDCHAR
STARTCHAR 0068
ENCODING 104
SWIDTH 552 0
DWIDTH 23 0
BBX 18 30 3 0
BITMAP
F80000
F80000
F80000
F80000
F80000
F80000
F80000
F80000
F80000
F80000
F8FC00
F9FF00
FFFF00
FFFF80
FF0F80
FC0F80
F807C0
F807C0
F807C0
F807C0
F807C0
F807C0
F807C0
F807C0
F807C0
F807C0
F807C0
F807C0
F807C0
F807C0
ENDCHAR
STARTCHAR 0069
ENCODING 105
SWIDTH 264 0
DWIDTH 11 0
BBX 5 30 3 0
BITMAP
20
F8
F8
F8
F8
70
00
00
00
00
F8
F8
F8
F8
F8
F8
F8
F8
F8
F8
F8
F8
F8
F8
F8
F8
F8
F8
F8
F8
ENDCHAR
STARTCHAR 006A
ENCODING 106
SWIDTH 264 0
DWIDTH 11 0
BBX 11 39 -2 -9
BITMAP
0100
07C0
07C0
07E0
07C0
0380
0000
0000
0000
0000
07C0
07C0
07C0
07C0
07C0
07C0
07C0
07C0
07C0
07C0
07C0
07C0
07C0
07C0
07C0
07C0
07C0
07C0
07C0
07C0
07C0
07C0
07C0
07C0
0FC0
7F80
7F80
FF00
FC00
ENDCHAR
STARTCHAR 006B
ENCODING 107
SWIDTH 528 0
DWIDTH 22 0
BBX 19 30 3 0
BITMAP
F80000
F80000
F80000
F80000
F80000
F80000
F80000
F80000
F80000
F80000
F80FC0
F81F80
F83F00
F87E00
F87C00
F8F800
F9F000
FBE000
FFE000
FFF000
FFF000
FFF800
FE7C00
FC3C00
F83E00
F81F00
F81F00
F80F80
F80FC0
F807E0
ENDCHAR
STARTCHAR 006C
ENCODING 108
SWIDTH 264 0
DWIDTH 11 0
BBX 7 30 3 0
BITMAP
F8
F8
F8
F8
F8
F8
F8
F8
F8
F8
F8
F8
F8
F8
F8
F8
F8
F8
F8
F8
F8
F8
F8
F8
F8
F8
FE
7E
7E
3E
ENDCHAR
STARTCHAR 006D
ENCODING 109
SWIDTH 840 0
DWIDTH 35 0
BBX 30 21 3 0
BITMAP
00F807C0
F1FE1FE0
F3FF3FF0
F7FF7FF8
FF1FF1F8
FE0FE0F8
FC0FC07C
F80FC07C
F80F807C
F80F807C
F80F807C
F80F807C
F80F807C
F80F807C
F80F807C
F80F807C
F80F807C
F80F807C
F80F807C
F80F807C
F80F807C
ENDCHAR
STARTCHAR 006E
ENCODING 110
SWIDTH 576 0
DWIDTH 24 0
BBX 18 21 3 0
BITMAP
007C00
F1FF00
F3FF00
F7FF80
FF1F80
FE0F80
FC07C0
F807C0
F807C0
F807C0
F807C0
F807C0
F807C0
F807C0
F807C0
F807C0
F807C0
F807C0
F807C0
F807C0
F807C0
ENDCHAR
STARTCHAR 006F
ENCODING 111
SWIDTH 552 0
DWIDTH 23 0
BBX 19 20 2 0
BITMAP
03F800
0FFE00
1FFF00
3FFF80
7E0FC0
7C07C0
F803E0
F803E0
F803E0
F803E0
F803E0
F803E0
F803E0
F803E0
7C07C0
7E0FC0
3FFF80
1FFF00
0FFE00
03F800
ENDCHAR
STARTCHAR 0070
ENCODING 112
SWIDTH 576 0
DWIDTH 24 0
BBX 19 29 3 -9
BITMAP
F0FC00
F3FF00
FFFF80
FFFF80
FE0FC0
FC07C0
F807E0
F803E0
F803E0
F803E0
F803E0
F803E0
F803E0
F807C0
FC0FC0
FE1F80
FFFF80
FFFF00
FBFE00
F9F800
F80000
F80000
F80000
F80000
F80000
F80000
F80000
F80000
F80000
ENDCHAR
STARTCHAR 0071
ENCODING 113
SWIDTH 576 0
DWIDTH 24 0
BBX 19 28 2 -8
BITMAP
03E1E0
0FF9E0
1FFFE0
3FFFE0
7F0FE0
7C07E0
FC03E0
F803E0
F803E0
F803E0
F803E0
F803E0
F803E0
F803E0
FC07E0
7E1FE0
7FFFE0
3FFFE0
1FFBE0
07E3E0
0003E0
0003E0
0003E0
0003E0
0003E0
0003E0
0003E0
0003E0
ENDCHAR
STARTCHAR 0072
ENCODING 114
SWIDTH 384 0
DWIDTH 16 0
BBX 13 21 3 0
BITMAP
00F8
F1F8
F3F0
F7F0
F700
FE00
FC00
F800
F800
F800
F800
F800
F800
F800
F800
F800
F800
F800
F800
F800
F800
ENDCHAR
STARTCHAR 0073
ENCODING 115
SWIDTH 432 0
DWIDTH 18 0
BBX 16 20 1 0
BITMAP
07F0
1FFC
3FFE
3FFE
7C1C
7C08
7C00
7E00
3FC0
1FF8
07FC
00FE
003F
001F
201F
783F
FFFE
7FFE
3FF8
07E0
ENDCHAR
STARTCHAR 0074
ENCODING 116
SWIDTH 360 0
DWIDTH 15 0
BBX 14 27 1 0
BITMAP
0F00
1F00
1F00
1F00
1F00
1F00
1F00
FFF8
FFF8
FFF8
FFF8
1F00
1F00
1F00
1F00
1F00
1F00
1F00
1F00
1F00
1F00
1F00
1F80
1FF8
0FF8
07F8
03FC
ENDCHAR
STARTCHAR 0075
ENCODING 117
SWIDTH 552 0
DWIDTH 23 0
BBX 17 20 3 0
BITMAP
F80F80
F80F80
F80F80
F80F80
F80F80
F80F80
F80F80
F80F80
F80F80
F80F80
F80F80
F80F80
F80F80
F80F80
F81F80
FC3F80
7FFF80
7FF780
3FE780
1F8000
ENDCHAR
STARTCHAR 0076
ENCODING 118
SWIDTH 504 0
DWIDTH 21 0
BBX 20 20 0 0
BITMAP
FC01F0
7C01F0
7C01E0
3E01E0
3E03E0
3E03C0
1E03C0
1F07C0
0F0780
0F0780
0F8F80
078F00
078F00
07DF00
03DE00
03DE00
03FE00
01FC00
01FC00
01F800
ENDCHAR
STARTCHAR 0077
ENCODING 119
SWIDTH 744 0
DWIDTH 31 0
BBX 29 20 1 0
BITMAP
F80F8078
F80F8078
780FC0F8
7C0FC0F8
7C1FC0F0
3C1DC0F0
3C1DE1F0
3E1DE1E0
3E3CE1E0
1E3CF1E0
1E38F3E0
1F38F3C0
1F78F3C0
0F787BC0
0F707BC0
0F707F80
07F03F80
07F03F80
07E03F80
07E03F00
ENDCHAR
STARTCHAR 0078
ENCODING 120
SWIDTH 480 0
DWIDTH 20 0
BBX 19 20 1 0
BITMAP
FC07C0
7C0F80
3E0F80
3E1F00
1F1E00
0F3E00
0FBC00
07FC00
07F800
03F000
03F000
07F800
0FFC00
0F7C00
1F3E00
3E1F00
3E1F00
7C0F80
780FC0
F807E0
ENDCHAR
STARTCHAR 0079
ENCODING 121
SWIDTH 504 0
DWIDTH 21 0
BBX 20 29 0 -9
BITMAP
FC01F0
7C01F0
3C01E0
3E01E0
3E03E0
1E03C0
1F03C0
0F07C0
0F0780
0F8780
078F80
078F00
03CF00
03CF00
03DE00
01FE00
01FE00
01FC00
00FC00
00FC00
007800
00F800
00F000
01F000
03E000
3FE000
3FC000
3F8000
3E0000
ENDCHAR
STARTCHAR 007A
ENCODING 122
SWIDTH 456 0
DWIDTH 19 0
BBX 17 20 1 0
BITMAP
3FFF00
3FFF00
3FFF00
3FFF00
003E00
007C00
00FC00
00F800
01F000
03E000
07E000
07C000
0F8000
1F0000
3F0000
3E0000
7FFF80
FFFF80
FFFF80
FFFF80
ENDCHAR
STARTCHAR 007B
ENCODING 123
SWIDTH 336 0
DWIDTH 14 0
BBX 11 37 1 -7
BITMAP
03E0
07E0
0FE0
0F00
0F00
0F00
0E00
0E00
0F00
0F00
0F00
0F00
0F00
0F00
0F00
0F00
3E00
FE00
FC00
FC00
FE00
3E00
0F00
0F00
0F00
0F00
0F00
0F00
0F00
0E00
0E00
0F00
0F00
0F00
0FE0
07E0
03E0
ENDCHAR
STARTCHAR 007C
ENCODING 124
SWIDTH 264 0
DWIDTH 11 0
BBX 3 42 4 -11
BITMAP
E0
E0
E0
E0
E0
E0
E0
E0
E0
E0
E0
E0
E0
E0
E0
E0
E0
E0
E0
E0
E0
E0
E0
E0
E0
E0
E0
E0
E0
E0
E0
E0
E0
E0
E0
E0
E0
E0
E0
E0
E0
E0
ENDCHAR
STARTCHAR 007D
ENCODING 125
SWIDTH 336 0
DWIDTH 14 0
BBX 10 37 2 -7
BITMAP
F800
FC00
FE00
3E00
1E00
1E00
1E00
1E00
1E00
1E00
1E00
1E00
1E00
1E00
1E00
1E00
1F00
0FC0
07C0
07C0
0FC0
1F00
1E00
1E00
1E00
1E00
1E00
1E00
1E00
1E00
1E00
1E00
1E00
3E00
FE00
FC00
F800
ENDCHAR
STARTCHAR 007E
ENCODING 126
SWIDTH 528 0
DWIDTH 22 0
BBX 19 8 1 10
BITMAP
0F0000
3FC000
7FE080
7FF1E0
F1FFE0
207FC0
003F80
001F00
ENDCHAR
STARTCHAR 00A0
ENCODING 160
SWIDTH 216 0
DWIDTH 9 0
BBX 0 0 0 0
BITMAP
ENDCHAR
STARTCHAR 00A1
ENCODING 161
SWIDTH 312 0
DWIDTH 13 0
BBX 7 29 3 -9
BITMAP
38
7C
7E
FE
7E
7C
38
00
00
00
38
38
38
38
38
3C
3C
3C
3C
3C
7C
7C
7C
7C
7C
7C
7C
7C
7C
ENDCHAR
STARTCHAR 00A2
ENCODING 162
SWIDTH 528 0
DWIDTH 22 0
BBX 17 28 3 -1
BITMAP
00E000
00E000
00E000
00E000
03FC00
0FFF00
1FFF00
3FFE00
7EE600
FCE000
F8E000
F8E000
F0E000
F0E000
F0E000
F0E000
F8E000
F8E000
FCE000
7EE600
3FFF00
3FFF80
0FFE00
03F800
00E000
00E000
00E000
00E000
ENDCHAR
STARTCHAR 00A3
ENCODING 163
SWIDTH 528 0
DWIDTH 22 0
BBX 18 27 2 0
BITMAP
00FC00
03FF00
07FF80
0FFFC0
1F8380
1F0100
1F0000
1E0000
1E0000
1E0000
1F0000
1F0000
FFFE00
FFFE00
FFFE00
FFFE00
078000
078000
078000
0F8000
0F0000
1F0000
3E0000
7FFFC0
FFFFC0
FFFFC0
FFFFC0
ENDCHAR
STARTCHAR 00A4
ENCODING 164
SWIDTH 528 0
DWIDTH 22 0
BBX 20 21 1 3
BITMAP
200080
7000C0
F1F9E0
7FFFF0
7FFFC0
3FFF80
3F0F80
3C07C0
7C03C0
7C03C0
7803C0
7C03C0
7C03C0
3C07C0
3F0F80
3FFF80
7FFFC0
7FFFE0
F9F9F0
7000C0
200080
ENDCHAR
STARTCHAR 00A5
ENCODING 165
SWIDTH 528 0
DWIDTH 22 0
BBX 20 27 1 0
BITMAP
F801F0
F803E0
7C03E0
7C07C0
3E07C0
3E0780
1E0F80
1F0F00
0F1F00
0F9E00
079E00
07FC00
03FC00
7FFFE0
7FFFE0
01F000
01F000
7FFFE0
7FFFE0
7FFFE0
01F000
01F000
01F000
01F000
01F000
01F000
01F000
ENDCHAR
STARTCHAR 00A6
ENCODING 166
SWIDTH 264 0
DWIDTH 11 0
BBX 3 42 4 -11
BITMAP
E0
E0
E0
E0
E0
E0
E0
E0
E0
E0
E0
E0
E0
E0
E0
E0
E0
E0
E0
00
00
00
00
E0
E0
E0
E0
E0
E0
E0
E0
E0
E0
E0
E0
E0
E0
E0
E0
E0
E0
E0
ENDCHAR
STARTCHAR 00A7
ENCODING 167
SWIDTH 528 0
DWIDTH 22 0
BBX 18 32 2 -3
BITMAP
03F000
0FFC00
1FFF00
3FFE00
3E1E00
3C0400
3C0000
3E0000
1F0000
1FE000
3FF800
7FFE00
F8FF00
F03F80
F00F80
F007C0
F803C0
FC03C0
7F03C0
3FC780
1FFF80
07FF00
01FC00
007E00
001E00
001E00
301E00
7C3E00
FFFE00
7FFC00
1FF800
07E000
ENDCHAR
STARTCHAR 00A8
ENCODING 168
SWIDTH 552 0
DWIDTH 23 0
BBX 13 5 5 24
BITMAP
7070
F8F8
F8F8
F8F8
7070
ENDCHAR
STARTCHAR 00A9
ENCODING 169
SWIDTH 744 0
DWIDTH 31 0
BBX 27 27 2 0
BITMAP
003FC000
01FFF000
07C07C00
0F001E00
1C000700
38000380
381F81C0
707FC1C0
60FFE0E0
E1FFF0E0
E1F0E060
E3E04060
C3C00060
C3C00060
C3C00060
E3E04060
E1F0E060
E1FFE0E0
60FFF0E0
707FC1C0
381F81C0
38000380
1E000700
0F001E00
07C07C00
01FFF000
003FC000
ENDCHAR
STARTCHAR 00AA
ENCODING 170
SWIDTH 360 0
DWIDTH 15 0
BBX 12 14 1 16
BITMAP
0F80
3FE0
7FE0
30F0
00F0
07F0
3FF0
7CF0
70F0
F0F0
F1F0
7FF0
7F70
3E70
ENDCHAR
STARTCHAR 00AB
ENCODING 171
SWIDTH 456 0
DWIDTH 19 0
BBX 15 16 2 3
BITMAP
040C
0F0E
1E1C
3C38
3878
78F0
F1E0
E1C0
E1C0
F1E0
78F0
3878
3C38
1E1C
0F0E
040C
ENDCHAR
STARTCHAR 00AC
ENCODING 172
SWIDTH 528 0
DWIDTH 22 0
BBX 19 12 1 4
BITMAP
FFFFE0
FFFFE0
FFFFE0
FFFFE0
0001E0
0001E0
0001E0
0001E0
0001E0
0001E0
0001E0
0001E0
ENDCHAR
STARTCHAR 00AD
ENCODING 173
SWIDTH 336 0
DWIDTH 14 0
BBX 10 4 2 9
BITMAP
FFC0
FFC0
FFC0
FFC0
ENDCHAR
STARTCHAR 00AE
ENCODING 174
SWIDTH 456 0
DWIDTH 19 0
BBX 16 16 1 14
BITMAP
07E0
1FF8
3C1C
700E
67E7
67F3
C633
C7E3
C7C3
C663
6663
6637
700E
3C1C
1FF8
07E0
ENDCHAR
STARTCHAR 00AF
ENCODING 175
SWIDTH 552 0
DWIDTH 23 0
BBX 11 3 6 25
BITMAP
FFE0
FFE0
FFE0
ENDCHAR
STARTCHAR 00B0
ENCODING 176
SWIDTH 360 0
DWIDTH 15 0
BBX 11 11 2 18
BITMAP
1F00
7F80
71C0
E0E0
C0E0
C0E0
C0E0
E0E0
71C0
7F80
1F00
ENDCHAR
STARTCHAR 00B1
ENCODING 177
SWIDTH 528 0
DWIDTH 22 0
BBX 19 24 1 0
BITMAP
00F000
00F000
00F000
00F000
00F000
00F000
00F000
00F000
FFFFE0
FFFFE0
FFFFE0
FFFFE0
00F000
00F000
00F000
00F000
00F000
00F000
00F000
000000
FFFFE0
FFFFE0
FFFFE0
FFFFE0
ENDCHAR
STARTCHAR 00B2
ENCODING 178
SWIDTH 384 0
DWIDTH 16 0
BBX 13 17 1 16
BITMAP
0F80
3FE0
7FE0
F1F0
20F0
00F0
00F0
00F0
00E0
01E0
03C0
0780
0F00
1E00
3FF8
7FF8
7FF8
ENDCHAR
STARTCHAR 00B3
ENCODING 179
SWIDTH 384 0
DWIDTH 16 0
BBX 13 17 1 16
BITMAP
0F80
3FE0
7FF0
30F0
20F0
0070
00F0
01E0
07C0
07E0
00F0
0078
2078
F0F8
7FF0
3FE0
0F80
ENDCHAR
STARTCHAR 00B4
ENCODING 180
SWIDTH 552 0
DWIDTH 23 0
BBX 10 10 9 24
BITMAP
0200
0700
0F80
1FC0
1F00
3E00
7C00
F800
7000
2000
ENDCHAR
STARTCHAR 00B5
ENCODING 181
SWIDTH 576 0
DWIDTH 24 0
BBX 21 27 3 -7
BITMAP
F80780
F80780
F80780
F80780
F80780
F80780
F80780
F80780
F80780
F80780
F80780
F80780
F80780
F80F80
F81F80
FC3F80
FFFFF0
FFF7F0
FFE3F0
FBC1F8
F80000
F80000
F80000
F80000
F80000
F80000
F80000
ENDCHAR
STARTCHAR 00B6
ENCODING 182
SWIDTH 600 0
DWIDTH 25 0
BBX 19 31 2 -3
BITMAP
03F3E0
0FF3E0
3FF3E0
7FF3E0
7FF3E0
FFF3E0
FFF3E0
FFF3E0
FFF3E0
FFF3E0
FFF3E0
FFF3E0
FFF3E0
7FF3E0
7FF3E0
3FF3E0
1FF3E0
07F3E0
0073E0
0003E0
0003E0
0003E0
0003E0
0003E0
0003E0
0003E0
0003E0
0003E0
0003E0
0003E0
0003E0
ENDCHAR
STARTCHAR 00B7
ENCODING 183
SWIDTH 288 0
DWIDTH 12 0
BBX 6 7 3 11
BITMAP
70
F8
FC
FC
FC
F8
70
ENDCHAR
STARTCHAR 00B8
ENCODING 184
SWIDTH 552 0
DWIDTH 23 0
BBX 8 10 7 -10
BITMAP
1C
1C
38
3E
1F
07
07
1F
FE
78
ENDCHAR
STARTCHAR 00B9
ENCODING 185
SWIDTH 384 0
DWIDTH 16 0
BBX 8 16 3 16
BITMAP
0F
3F
FF
FF
0F
0F
0F
0F
0F
0F
0F
0F
0F
0F
0F
0F
ENDCHAR
STARTCHAR 00BA
ENCODING 186
SWIDTH 384 0
DWIDTH 16 0
BBX 13 14 1 16
BITMAP
0F80
3FE0
3FF0
78F8
F078
F038
F038
F038
F038
F078
78F8
3FF0
3FE0
0F80
ENDCHAR
STARTCHAR 00BB
ENCODING 187
SWIDTH 456 0
DWIDTH 19 0
BBX 15 16 2 3
BITMAP
2040
F0E0
70F0
3878
3C3C
1E1E
0F1E
070E
070E
0F1E
1E1E
3C3C
3878
70F0
F0E0
2040
ENDCHAR
STARTCHAR 00BC
ENCODING 188
SWIDTH 792 0
DWIDTH 33 0
BBX 31 28 2 0
BITMAP
00000F00
0F000E00
3F001C00
FF001C00
FF003800
0F003800
0F007000
0F007000
0F00E000
0F00E000
0F01C000
0F01C000
0F0381F0
0F0701F0
0F0703F0
0F0E03F0
0F0E0770
001C0670
001C0E70
00381C70
00381C70
00703870
00703FFE
00E07FFE
00E00070
01C00070
03800070
03800070
ENDCHAR
STARTCHAR 00BD
ENCODING 189
SWIDTH 840 0
DWIDTH 35 0
BBX 31 28 2 0
BITMAP
00000E00
0F001C00
3F001C00
FF003800
FF007000
0F007000
0F00E000
0F00E000
0F01C000
0F01C000
0F038000
0F0383E0
0F070FF8
0F071FF8
0F0E3C7C
0F0E083C
0F1C001C
001C001C
0038003C
00700038
00700078
00E000F0
00E001E0
01C003C0
01C00780
03800FFE
03801FFE
07001FFE
ENDCHAR
STARTCHAR 00BE
ENCODING 190
SWIDTH 816 0
DWIDTH 34 0
BBX 32 28 1 0
BITMAP
0F8001C0
3FE00380
7FF00380
30F00700
20F00E00
00F00E00
00F01C00
01E01C00
07C03800
07E03800
00F07000
00787000
2078E07C
F0F8E0FC
7FF1C0FC
3FE1C1DC
0F8381BC
000383BC
0007073C
000E073C
000E0E3C
001C0E3C
001C1FFF
00381FFF
0038003C
0070003C
0070003C
00E0003C
ENDCHAR
STARTCHAR 00BF
ENCODING 191
SWIDTH 456 0
DWIDTH 19 0
BBX 15 28 2 -8
BITMAP
03C0
07E0
07E0
07E0
07E0
07C0
03C0
0000
0000
0000
03C0
03C0
07C0
07C0
0F80
1F00
3E00
3C00
7C00
F800
F800
F800
F808
FC3C
FFFE
7FFC
3FF0
0FC0
ENDCHAR
STARTCHAR 00C0
ENCODING 192
SWIDTH 552 0
DWIDTH 23 0
BBX 24 38 0 0
BITMAP
010000
01C000
03E000
07F000
01F800
007C00
003C00
001800
000000
000000
007E00
00FE00
00FE00
00FF00
01EF00
01EF00
01EF80
03E780
03C780
03C7C0
07C3C0
0783C0
0783E0
0783E0
0F81E0
0F01F0
0FFFF0
1FFFF0
1FFFF0
1FFFF8
3E00F8
3E0078
3C007C
7C007C
7C007C
7C003E
F8003E
F8003F
ENDCHAR
STARTCHAR 00C1
ENCODING 193
SWIDTH 552 0
DWIDTH 23 0
BBX 24 38 0 0
BITMAP
000100
000380
0007C0
001FC0
003F00
007E00
003800
001000
000000
000000
007E00
00FE00
00FE00
00FF00
01EF00
01EF00
01EF80
03E780
03C780
03C7C0
07C3C0
0783C0
0783E0
0783E0
0F81E0
0F01F0
0FFFF0
1FFFF0
1FFFF0
1FFFF8
3E00F8
3E0078
3C007C
7C007C
7C007C
7C003E
F8003E
F8003F
ENDCHAR
STARTCHAR 00C2
ENCODING 194
SWIDTH 552 0
DWIDTH 23 0
BBX 24 36 0 0
BITMAP
007E00
00FF00
01EF00
03C780
0783C0
030080
000000
000000
007E00
00FE00
00FE00
00FF00
01EF00
01EF00
01EF80
03E780
03C780
03C7C0
07C3C0
0783C0
0783E0
0783E0
0F81E0
0F01F0
0FFFF0
1FFFF0
1FFFF0
1FFFF8
3E00F8
3E0078
3C007C
7C007C
7C007C
7C003E
F8003E
F8003F
ENDCHAR
STARTCHAR 00C3
ENCODING 195
SWIDTH 552 0
DWIDTH 23 0
BBX 24 35 0 0
BITMAP
03E0F0
07F8E0
0FFFE0
0E1FC0
0E0F80
000000
000000
007E00
00FE00
00FE00
00FF00
01EF00
01EF00
01EF80
03E780
03C780
03C7C0
07C3C0
0783C0
0783E0
0783E0
0F81E0
0F01F0
0FFFF0
1FFFF0
1FFFF0
1FFFF8
3E00F8
3E0078
3C007C
7C007C
7C007C
7C003E
F8003E
F8003F
ENDCHAR
STARTCHAR 00C4
ENCODING 196
SWIDTH 552 0
DWIDTH 23 0
BBX 24 35 0 0
BITMAP
0381C0
0783C0
07C3E0
0783C0
0381C0
000000
000000
007E00
00FE00
00FE00
00FF00
01EF00
01EF00
01EF80
03E780
03C780
03C7C0
07C3C0
0783C0
0783E0
0783E0
0F81E0
0F01F0
0FFFF0
1FFFF0
1FFFF0
1FFFF8
3E00F8
3E0078
3C007C
7C007C
7C007C
7C003E
F8003E
F8003F
ENDCHAR
STARTCHAR 00C5
ENCODING 197
SWIDTH 552 0
DWIDTH 23 0
BBX 24 37 0 0
BITMAP
007C00
00FE00
01C700
01C300
01C300
01C700
00FE00
007C00
000000
007E00
00FE00
00FE00
00FF00
01EF00
01EF00
01EF80
03E780
03C780
03C7C0
07C3C0
0783C0
0783E0
0783E0
0F81E0
0F01F0
0FFFF0
1FFFF0
1FFFF0
1FFFF8
3E00F8
3E0078
3C007C
7C007C
7C007C
7C003E
F8003E
F8003F
ENDCHAR
STARTCHAR 00C6
ENCODING 198
SWIDTH 840 0
DWIDTH 35 0
BBX 33 28 0 0
BITMAP
0007FFFF00
0007FFFF00
000FFFFF00
000FFFFF00
001F780000
001F780000
003E780000
003E780000
007C780000
007C780000
00F8780000
00F8780000
01F07FFE00
01F07FFE00
03F07FFE00
03E07FFE00
03E0780000
07FFF80000
07FFF80000
0FFFF80000
0FFFF80000
1F00780000
1F00780000
3E00780000
3E007FFF80
7C007FFF80
7C007FFF80
F8007FFF80
ENDCHAR
STARTCHAR 00C7
ENCODING 199
SWIDTH 576 0
DWIDTH 24 0
BBX 21 38 2 -10
BITMAP
007F00
01FFC0
07FFF0
0FFFF8
1FC1F0
3F0060
3E0000
7E0000
7C0000
7C0000
F80000
F80000
F80000
F80000
F80000
F80000
F80000
F80000
7C0000
7C0000
7E0000
3E0020
3F0070
1FC1F0
0FFFF8
07FFF0
03FFC0
007F00
001C00
001C00
003800
003C00
005F00
000700
000F00
001F00
00FE00
00F000
ENDCHAR
STARTCHAR 00C8
ENCODING 200
SWIDTH 552 0
DWIDTH 23 0
BBX 17 38 3 0
BITMAP
040000
0E0000
1F0000
1F8000
07C000
03F000
01E000
004000
000000
000000
FFFF80
FFFF80
FFFF80
FFFF80
F80000
F80000
F80000
F80000
F80000
F80000
F80000
F80000
FFFE00
FFFE00
FFFE00
FFFE00
F80000
F80000
F80000
F80000
F80000
F80000
F80000
F80000
FFFF80
FFFF80
FFFF80
FFFF80
ENDCHAR
STARTCHAR 00C9
ENCODING 201
SWIDTH 552 0
DWIDTH 23 0
BBX 17 38 3 0
BITMAP
000800
001C00
003E00
007F00
00FC00
03F000
01E000
008000
000000
000000
FFFF80
FFFF80
FFFF80
FFFF80
F80000
F80000
F80000
F80000
F80000
F80000
F80000
F80000
FFFE00
FFFE00
FFFE00
FFFE00
F80000
F80000
F80000
F80000
F80000
F80000
F80000
F80000
FFFF80
FFFF80
FFFF80
FFFF80
ENDCHAR
STARTCHAR 00CA
ENCODING 202
SWIDTH 552 0
DWIDTH 23 0
BBX 17 36 3 0
BITMAP
03F000
07F800
0FFC00
1F1E00
3C0F00
080400
000000
000000
FFFF80
FFFF80
FFFF80
FFFF80
F80000
F80000
F80000
F80000
F80000
F80000
F80000
F80000
FFFE00
FFFE00
FFFE00
FFFE00
F80000
F80000
F80000
F80000
F80000
F80000
F80000
F80000
FFFF80
FFFF80
FFFF80
FFFF80
ENDCHAR
STARTCHAR 00CB
ENCODING 203
SWIDTH 552 0
DWIDTH 23 0
BBX 17 35 3 0
BITMAP
1C0E00
3E1F00
3E1F00
3E1F00
1C0E00
000000
000000
FFFF80
FFFF80
FFFF80
FFFF80
F80000
F80000
F80000
F80000
F80000
F80000
F80000
F80000
FFFE00
FFFE00
FFFE00
FFFE00
F80000
F80000
F80000
F80000
F80000
F80000
F80000
F80000
FFFF80
FFFF80
FFFF80
FFFF80
ENDCHAR
STARTCHAR 00CC
ENCODING 204
SWIDTH 288 0
DWIDTH 12 0
BBX 10 38 -1 0
BITMAP
1000
3800
7C00
FE00
3F00
0FC0
0780
0100
0000
0000
0F80
0F80
0F80
0F80
0F80
0F80
0F80
0F80
0F80
0F80
0F80
0F80
0F80
0F80
0F80
0F80
0F80
0F80
0F80
0F80
0F80
0F80
0F80
0F80
0F80
0F80
0F80
0F80
ENDCHAR
STARTCHAR 00CD
ENCODING 205
SWIDTH 288 0
DWIDTH 12 0
BBX 9 38 3 0
BITMAP
0200
0700
0F80
1F80
7E00
FC00
7800
2000
0000
0000
F800
F800
F800
F800
F800
F800
F800
F800
F800
F800
F800
F800
F800
F800
F800
F800
F800
F800
F800
F800
F800
F800
F800
F800
F800
F800
F800
F800
ENDCHAR
STARTCHAR 00CE
ENCODING 206
SWIDTH 288 0
DWIDTH 12 0
BBX 14 36 -1 0
BITMAP
0FC0
1FE0
3FF0
78F8
F038
2014
0000
0000
0F80
0F80
0F80
0F80
0F80
0F80
0F80
0F80
0F80
0F80
0F80
0F80
0F80
0F80
0F80
0F80
0F80
0F80
0F80
0F80
0F80
0F80
0F80
0F80
0F80
0F80
0F80
0F80
ENDCHAR
STARTCHAR 00CF
ENCODING 207
SWIDTH 288 0
DWIDTH 12 0
BBX 14 35 -1 0
BITMAP
7038
F87C
F87C
F87C
7038
0000
0000
0F80
0F80
0F80
0F80
0F80
0F80
0F80
0F80
0F80
0F80
0F80
0F80
0F80
0F80
0F80
0F80
0F80
0F80
0F80
0F80
0F80
0F80
0F80
0F80
0F80
0F80
0F80
0F80
ENDCHAR
STARTCHAR 00D0
ENCODING 208
SWIDTH 648 0
DWIDTH 27 0
BBX 24 28 1 0
BITMAP
1FFE00
1FFFC0
1FFFF0
1FFFF8
1F03FC
1F00FC
1F007E
1F003E
1F003F
1F001F
1F001F
1F001F
1F001F
FFFC1F
FFFC1F
1F001F
1F001F
1F001F
1F001F
1F003E
1F003E
1F007E
1F00FC
1F03F8
1FFFF8
1FFFE0
1FFFC0
1FFE00
ENDCHAR
STARTCHAR 00D1
ENCODING 209
SWIDTH 672 0
DWIDTH 28 0
BBX 21 35 3 0
BITMAP
07E1E0
0FF1E0
1FFFC0
1E3FC0
1C0F00
000000
000000
FC00F8
FC00F8
FE00F8
FE00F8
FF00F8
FF00F8
FF80F8
FFC0F8
FBC0F8
FBE0F8
F9E0F8
F9F0F8
F8F0F8
F8F8F8
F878F8
F87C78
F83C78
F83E78
F81E78
F81F78
F80F78
F807F8
F807F8
F803F8
F803F8
F801F8
F801F8
F800F8
ENDCHAR
STARTCHAR 00D2
ENCODING 210
SWIDTH 672 0
DWIDTH 28 0
BBX 24 38 2 0
BITMAP
008000
01C000
03E000
03F000
00FC00
007E00
001C00
000800
000000
000000
007F00
03FFC0
07FFF0
0FFFF8
1FC1FC
3F00FC
3E007E
7C003E
7C003F
7C001F
F8001F
F8001F
F8001F
F8001F
F8001F
F8001F
F8001F
F8001F
7C001F
7C003F
7E003E
3E007E
3F00FC
1FC1FC
0FFFF8
07FFF0
03FFC0
007F00
ENDCHAR
STARTCHAR 00D3
ENCODING 211
SWIDTH 672 0
DWIDTH 28 0
BBX 24 38 2 0
BITMAP
000100
000380
0007C0
000FE0
001F80
003E00
007C00
001000
000000
000000
007F00
03FFC0
07FFF0
0FFFF8
1FC1FC
3F00FC
3E007E
7C003E
7C003F
7C001F
F8001F
F8001F
F8001F
F8001F
F8001F
F8001F
F8001F
F8001F
7C001F
7C003F
7E003E
3E007E
3F00FC
1FC1FC
0FFFF8
07FFF0
03FFC0
007F00
ENDCHAR
STARTCHAR 00D4
ENCODING 212
SWIDTH 672 0
DWIDTH 28 0
BBX 24 36 2 0
BITMAP
007E00
00FF00
01FF80
03E3C0
0381E0
0500C0
000000
000000
007F00
03FFC0
07FFF0
0FFFF8
1FC1FC
3F00FC
3E007E
7C003E
7C003F
7C001F
F8001F
F8001F
F8001F
F8001F
F8001F
F8001F
F8001F
F8001F
7C001F
7C003F
7E003E
3E007E
3F00FC
1FC1FC
0FFFF8
07FFF0
03FFC0
007F00
ENDCHAR
STARTCHAR 00D5
ENCODING 213
SWIDTH 672 0
DWIDTH 28 0
BBX 24 35 2 0
BITMAP
03F070
07FCF0
07FFF0
0F1FE0
0F07C0
000000
000000
007F00
03FFC0
07FFF0
0FFFF8
1FC1FC
3F00FC
3E007E
7C003E
7C003F
7C001F
F8001F
F8001F
F8001F
F8001F
F8001F
F8001F
F8001F
F8001F
7C001F
7C003F
7E003E
3E007E
3F00FC
1FC1FC
0FFFF8
07FFF0
03FFC0
007F00
ENDCHAR
STARTCHAR 00D6
ENCODING 214
SWIDTH 672 0
DWIDTH 28 0
BBX 24 35 2 0
BITMAP
0381C0
07C3E0
07C3E0
07C3E0
0381C0
000000
000000
007F00
03FFC0
07FFF0
0FFFF8
1FC1FC
3F00FC
3E007E
7C003E
7C003F
7C001F
F8001F
F8001F
F8001F
F8001F
F8001F
F8001F
F8001F
F8001F
7C001F
7C003F
7E003E
3E007E
3F00FC
1FC1FC
0FFFF8
07FFF0
03FFC0
007F00
ENDCHAR
STARTCHAR 00D7
ENCODING 215
SWIDTH 528 0
DWIDTH 22 0
BBX 17 18 2 5
BITMAP
200100
700300
F80780
7C0F80
3E1F00
1F3E00
0FFC00
07F800
03F000
03F000
07F800
0FFC00
1F3E00
3E1F00
7C0F80
F80780
700300
200100
ENDCHAR
STARTCHAR 00D8
ENCODING 216
SWIDTH 672 0
DWIDTH 28 0
BBX 25 30 2 -1
BITMAP
00000200
007F0700
03FFCF80
07FFFF00
0FFFFE00
1FC3FC00
3F00FE00
3E007E00
7E00FE00
7C01DF00
7C03DF00
F8079F00
F8071F00
F80E1F00
F81C1F00
F83C1F00
F8781F00
F8701F00
F8E01F00
7DE01F00
7FC03F00
7F803E00
3F007E00
3F80FC00
1FC1FC00
3FFFF800
7FFFF000
F3FFC000
F07F0000
20000000
ENDCHAR
STARTCHAR 00D9
ENCODING 217
SWIDTH 672 0
DWIDTH 28 0
BBX 21 38 3 0
BITMAP
020000
038000
07C000
0FE000
03F000
00F800
007800
001000
000000
000000
F800F8
F800F8
F800F8
F800F8
F800F8
F800F8
F800F8
F800F8
F800F8
F800F8
F800F8
F800F8
F800F8
F800F8
F800F8
F800F8
F800F8
F800F8
7800F8
7C00F8
7C00F8
7C01F0
3E01F0
3F07E0
1FFFE0
0FFFC0
07FF80
01FC00
ENDCHAR
STARTCHAR 00DA
ENCODING 218
SWIDTH 672 0
DWIDTH 28 0
BBX 21 38 3 0
BITMAP
000200
000700
000F80
003F80
007E00
00FC00
007000
002000
000000
000000
F800F8
F800F8
F800F8
F800F8
F800F8
F800F8
F800F8
F800F8
F800F8
F800F8
F800F8
F800F8
F800F8
F800F8
F800F8
F800F8
F800F8
F800F8
7800F8
7C00F8
7C00F8
7C01F0
3E01F0
3F07E0
1FFFE0
0FFFC0
07FF80
01FC00
ENDCHAR
STARTCHAR 00DB
ENCODING 219
SWIDTH 672 0
DWIDTH 28 0
BBX 21 36 3 0
BITMAP
00FC00
01FE00
03DF00
078F00
0F0780
060100
000000
000000
F800F8
F800F8
F800F8
F800F8
F800F8
F800F8
F800F8
F800F8
F800F8
F800F8
F800F8
F800F8
F800F8
F800F8
F800F8
F800F8
F800F8
F800F8
7800F8
7C00F8
7C00F8
7C01F0
3E01F0
3F07E0
1FFFE0
0FFFC0
07FF80
01FC00
ENDCHAR
STARTCHAR 00DC
ENCODING 220
SWIDTH 672 0
DWIDTH 28 0
BBX 21 35 3 0
BITMAP
070380
0F87C0
0F87C0
0F87C0
070380
000000
000000
F800F8
F800F8
F800F8
F800F8
F800F8
F800F8
F800F8
F800F8
F800F8
F800F8
F800F8
F800F8
F800F8
F800F8
F800F8
F800F8
F800F8
F800F8
7800F8
7C00F8
7C00F8
7C01F0
3E01F0
3F07E0
1FFFE0
0FFFC0
07FF80
01FC00
ENDCHAR
STARTCHAR 00DD
ENCODING 221
SWIDTH 504 0
DWIDTH 21 0
BBX 21 38 0 0
BITMAP
000200
000700
001F00
003F80
007E00
00FC00
007000
006000
000000
000000
F800F8
7C01F8
7C01F0
7C01F0
3E03E0
3E03E0
1F07C0
1F07C0
0F8780
0F8F80
078F00
07DF00
03DE00
03FE00
01FC00
01FC00
00F800
00F800
00F800
00F800
00F800
00F800
00F800
00F800
00F800
00F800
00F800
00F800
ENDCHAR
STARTCHAR 00DE
ENCODING 222
SWIDTH 600 0
DWIDTH 25 0
BBX 20 28 3 0
BITMAP
F80000
F80000
F80000
F80000
F80000
FFFC00
FFFF80
FFFFC0
FFFFE0
F807E0
F801F0
F801F0
F801F0
F801F0
F801F0
F801F0
F803F0
F807E0
FFFFE0
FFFFC0
FFFF00
FFFC00
F80000
F80000
F80000
F80000
F80000
F80000
ENDCHAR
STARTCHAR 00DF
ENCODING 223
SWIDTH 600 0
DWIDTH 25 0
BBX 21 30 3 0
BITMAP
03F000
1FFC00
3FFE00
7FFF00
7E1F80
7C0F80
F80F80
F80F80
F80F80
F80F00
F81E00
F83E00
F83C00
F87800
F87800
F87C00
F87E00
F83F80
F81FE0
F80FF0
F803F0
F801F8
F800F8
F80078
F84078
F870F8
F87FF8
F8FFF0
F87FE0
001F80
ENDCHAR
STARTCHAR 00E0
ENCODING 224
SWIDTH 528 0
DWIDTH 22 0
BBX 17 34 2 0
BITMAP
040000
0E0000
1F0000
3F0000
0F8000
07C000
03E000
01F000
00E000
004000
000000
000000
000000
000000
03F800
1FFC00
7FFE00
7FFF00
3C1F00
200F80
000F80
007F80
07FF80
1FFF80
7F8F80
7C0F80
F80F80
F80F80
F81F80
FC3F80
FFFF80
7FF780
3FE780
1F8000
ENDCHAR
STARTCHAR 00E1
ENCODING 225
SWIDTH 528 0
DWIDTH 22 0
BBX 17 34 2 0
BITMAP
000400
000E00
001F00
003F00
007E00
00FC00
00F800
01F000
00E000
004000
000000
000000
000000
000000
03F800
1FFC00
7FFE00
7FFF00
3C1F00
200F80
000F80
007F80
07FF80
1FFF80
7F8F80
7C0F80
F80F80
F80F80
F81F80
FC3F80
FFFF80
7FF780
3FE780
1F8000
ENDCHAR
STARTCHAR 00E2
ENCODING 226
SWIDTH 528 0
DWIDTH 22 0
BBX 17 31 2 0
BITMAP
03F000
03F800
07FC00
0FBE00
1E1F00
3C0700
080200
000000
000000
000000
000000
03F800
1FFC00
7FFE00
7FFF00
3C1F00
200F80
000F80
007F80
07FF80
1FFF80
7F8F80
7C0F80
F80F80
F80F80
F81F80
FC3F80
FFFF80
7FF780
3FE780
1F8000
ENDCHAR
STARTCHAR 00E3
ENCODING 227
SWIDTH 528 0
DWIDTH 22 0
BBX 17 30 2 0
BITMAP
060000
1F8380
3FE780
3DFF00
387F00
383C00
000000
000000
000000
000000
03F800
1FFC00
7FFE00
7FFF00
3C1F00
200F80
000F80
007F80
07FF80
1FFF80
7F8F80
7C0F80
F80F80
F80F80
F81F80
FC3F80
FFFF80
7FF780
3FE780
1F8000
ENDCHAR
STARTCHAR 00E4
ENCODING 228
SWIDTH 528 0
DWIDTH 22 0
BBX 17 29 2 0
BITMAP
1E0E00
1E1F00
3F1F00
1E1F00
1E0E00
000000
000000
000000
000000
03F800
1FFC00
7FFE00
7FFF00
3C1F00
200F80
000F80
007F80
07FF80
1FFF80
7F8F80
7C0F80
F80F80
F80F80
F81F80
FC3F80
FFFF80
7FF780
3FE780
1F8000
ENDCHAR
STARTCHAR 00E5
ENCODING 229
SWIDTH 528 0
DWIDTH 22 0
BBX 17 32 2 0
BITMAP
01F000
07F800
071C00
0E1C00
0E1C00
0E1C00
071C00
07F800
01F000
000000
000000
000000
03F800
1FFC00
7FFE00
7FFF00
3C1F00
200F80
000F80
007F80
07FF80
1FFF80
7F8F80
7C0F80
F80F80
F80F80
F81F80
FC3F80
FFFF80
7FF780
3FE780
1F8000
ENDCHAR
STARTCHAR 00E6
ENCODING 230
SWIDTH 792 0
DWIDTH 33 0
BBX 29 20 2 0
BITMAP
03F01F00
1FF87FC0
7FFCFFE0
7FFFFFF0
3C1FE0F8
300FC078
000F8078
007F8078
07FFFFF8
1FFFFFF8
3F8FFFF8
7C0F8000
F80F8000
F8078000
F80FC020
FC3FF070
7FFFFFF0
7FF9FFF8
3FF0FFE0
0F803F80
ENDCHAR
STARTCHAR 00E7
ENCODING 231
SWIDTH 456 0
DWIDTH 19 0
BBX 16 30 2 -10
BITMAP
01F8
0FFE
1FFF
3FFE
7F0E
7C04
FC00
F800
F800
F800
F800
F800
F800
FC00
7C02
7F0E
3FFF
1FFF
0FFE
03F8
00E0
00E0
01C0
01F0
00F8
0038
0038
00F8
07F0
03C0
ENDCHAR
STARTCHAR 00E8
ENCODING 232
SWIDTH 504 0
DWIDTH 21 0
BBX 18 34 2 0
BITMAP
040000
0E0000
1F0000
3F0000
1F8000
07C000
03E000
01F000
00E000
004000
000000
000000
000000
000000
03F000
0FFC00
1FFF00
3FFF00
7E0F80
7C0780
F80780
F803C0
FFFFC0
FFFFC0
FFFFC0
F00000
F80000
F80000
7C0200
7F0700
3FFF00
1FFF80
0FFF00
03F800
ENDCHAR
STARTCHAR 00E9
ENCODING 233
SWIDTH 504 0
DWIDTH 21 0
BBX 18 34 2 0
BITMAP
000800
000C00
001E00
003F00
007E00
00FC00
00F800
01F000
00E000
004000
000000
000000
000000
000000
03F000
0FFC00
1FFF00
3FFF00
7E0F80
7C0780
F80780
F803C0
FFFFC0
FFFFC0
FFFFC0
F00000
F80000
F80000
7C0200
7F0700
3FFF00
1FFF80
0FFF00
03F800
ENDCHAR
STARTCHAR 00EA
ENCODING 234
SWIDTH 504 0
DWIDTH 21 0
BBX 18 31 2 0
BITMAP
03F000
07F800
07FC00
0F3E00
1E1F00
3C0700
180200
000000
000000
000000
000000
03F000
0FFC00
1FFF00
3FFF00
7E0F80
7C0780
F80780
F803C0
FFFFC0
FFFFC0
FFFFC0
F00000
F80000
F80000
7C0200
7F0700
3FFF00
1FFF80
0FFF00
03F800
ENDCHAR
STARTCHAR 00EB
ENCODING 235
SWIDTH 504 0
DWIDTH 21 0
BBX 18 29 2 0
BITMAP
1C0E00
1E1F00
3E1F00
1E1F00
1C0E00
000000
000000
000000
000000
03F000
0FFC00
1FFF00
3FFF00
7E0F80
7C0780
F80780
F803C0
FFFFC0
FFFFC0
FFFFC0
F00000
F80000
F80000
7C0200
7F0700
3FFF00
1FFF80
0FFF00
03F800
ENDCHAR
STARTCHAR 00EC
ENCODING 236
SWIDTH 264 0
DWIDTH 11 0
BBX 10 34 -2 0
BITMAP
1000
3800
7C00
FE00
3E00
1F00
0F80
07C0
0380
0100
0000
0000
0000
0000
07C0
07C0
07C0
07C0
07C0
07C0
07C0
07C0
07C0
07C0
07C0
07C0
07C0
07C0
07C0
07C0
07C0
07C0
07C0
07C0
ENDCHAR
STARTCHAR 00ED
ENCODING 237
SWIDTH 264 0
DWIDTH 11 0
BBX 10 34 3 0
BITMAP
0200
0700
0F80
1FC0
3F00
3E00
7C00
F800
7000
2000
0000
0000
0000
0000
F800
F800
F800
F800
F800
F800
F800
F800
F800
F800
F800
F800
F800
F800
F800
F800
F800
F800
F800
F800
ENDCHAR
STARTCHAR 00EE
ENCODING 238
SWIDTH 264 0
DWIDTH 11 0
BBX 15 31 -2 0
BITMAP
07C0
0FE0
1FF0
3EF8
783C
F01E
2008
0000
0000
0000
0000
07C0
07C0
07C0
07C0
07C0
07C0
07C0
07C0
07C0
07C0
07C0
07C0
07C0
07C0
07C0
07C0
07C0
07C0
07C0
07C0
ENDCHAR
STARTCHAR 00EF
ENCODING 239
SWIDTH 264 0
DWIDTH 11 0
BBX 13 29 -1 0
BITMAP
7070
F8F8
F8F8
F8F8
7070
0000
0000
0000
0000
0F80
0F80
0F80
0F80
0F80
0F80
0F80
0F80
0F80
0F80
0F80
0F80
0F80
0F80
0F80
0F80
0F80
0F80
0F80
0F80
ENDCHAR
STARTCHAR 00F0
ENCODING 240
SWIDTH 552 0
DWIDTH 23 0
BBX 19 30 2 0
BITMAP
040000
0F01C0
0FC7C0
1FEF80
03FF00
01FC00
03FC00
0FFE00
3F3F00
1C1F00
100F80
000F80
03E7C0
0FFFC0
1FFFC0
3FFFE0
7E0FE0
7C07E0
F803E0
F803E0
F003E0
F003E0
F803E0
F803C0
7C07C0
7E0F80
3FFF80
1FFF00
0FFE00
03F800
ENDCHAR
STARTCHAR 00F1
ENCODING 241
SWIDTH 576 0
DWIDTH 24 0
BBX 18 30 3 0
BITMAP
070000
1FC380
1FE780
3DFF80
387F00
381E00
000000
000000
000000
007C00
F1FF00
F3FF00
F7FF80
FF1F80
FE0F80
FC07C0
F807C0
F807C0
F807C0
F807C0
F807C0
F807C0
F807C0
F807C0
F807C0
F807C0
F807C0
F807C0
F807C0
F807C0
ENDCHAR
STARTCHAR 00F2
ENCODING 242
SWIDTH 552 0
DWIDTH 23 0
BBX 19 34 2 0
BITMAP
040000
0E0000
1F0000
3F8000
0FC000
07C000
03E000
01F000
00E000
004000
000000
000000
000000
000000
03F800
0FFE00
1FFF00
3FFF80
7E0FC0
7C07C0
F803E0
F803E0
F803E0
F803E0
F803E0
F803E0
F803E0
F803E0
7C07C0
7E0FC0
3FFF80
1FFF00
0FFE00
03F800
ENDCHAR
STARTCHAR 00F3
ENCODING 243
SWIDTH 552 0
DWIDTH 23 0
BBX 19 34 2 0
BITMAP
000400
000E00
001F00
003F80
003E00
007C00
00F800
01F000
00E000
004000
000000
000000
000000
000000
03F800
0FFE00
1FFF00
3FFF80
7E0FC0
7C07C0
F803E0
F803E0
F803E0
F803E0
F803E0
F803E0
F803E0
F803E0
7C07C0
7E0FC0
3FFF80
1FFF00
0FFE00
03F800
ENDCHAR
STARTCHAR 00F4
ENCODING 244
SWIDTH 552 0
DWIDTH 23 0
BBX 19 31 2 0
BITMAP
01F000
03F800
07FC00
0FBE00
1E0F00
3C0780
080200
000000
000000
000000
000000
03F800
0FFE00
1FFF00
3FFF80
7E0FC0
7C07C0
F803E0
F803E0
F803E0
F803E0
F803E0
F803E0
F803E0
F803E0
7C07C0
7E0FC0
3FFF80
1FFF00
0FFE00
03F800
ENDCHAR
STARTCHAR 00F5
ENCODING 245
SWIDTH 552 0
DWIDTH 23 0
BBX 19 30 2 0
BITMAP
070000
1FC380
1FE780
3DFF80
387F00
383E00
000000
000000
000000
000000
03F800
0FFE00
1FFF00
3FFF80
7E0FC0
7C07C0
F803E0
F803E0
F803E0
F803E0
F803E0
F803E0
F803E0
F803E0
7C07C0
7E0FC0
3FFF80
1FFF00
0FFE00
03F800
ENDCHAR
STARTCHAR 00F6
ENCODING 246
SWIDTH 552 0
DWIDTH 23 0
BBX 19 29 2 0
BITMAP
0E0E00
1F1F00
1F1F00
1F1F00
0E0E00
000000
000000
000000
000000
03F800
0FFE00
1FFF00
3FFF80
7E0FC0
7C07C0
F803E0
F803E0
F803E0
F803E0
F803E0
F803E0
F803E0
F803E0
7C07C0
7E0FC0
3FFF80
1FFF00
0FFE00
03F800
ENDCHAR
STARTCHAR 00F7
ENCODING 247
SWIDTH 528 0
DWIDTH 22 0
BBX 19 21 1 3
BITMAP
00E000
01F000
01F800
01F800
01F000
00E000
000000
000000
FFFFE0
FFFFE0
FFFFE0
FFFFE0
000000
000000
000000
00E000
01F000
01F800
01F800
01F000
00E000
ENDCHAR
STARTCHAR 00F8
ENCODING 248
SWIDTH 552 0
DWIDTH 23 0
BBX 19 22 2 -1
BITMAP
000080
03F8E0
0FFFE0
1FFFC0
3FFF80
7E0FC0
7C0FC0
F81FE0
F83BE0
F87BE0
F0F1E0
F1E1E0
FBC3E0
FB83E0
FF03E0
7E07C0
7E0FC0
3FFF80
7FFF00
FFFE00
E3F800
400000
ENDCHAR
STARTCHAR 00F9
ENCODING 249
SWIDTH 552 0
DWIDTH 23 0
BBX 17 34 3 0
BITMAP
080000
1C0000
3E0000
3F0000
1F8000
0FC000
07C000
03E000
01C000
008000
000000
000000
000000
000000
F80F80
F80F80
F80F80
F80F80
F80F80
F80F80
F80F80
F80F80
F80F80
F80F80
F80F80
F80F80
F80F80
F80F80
F81F80
FC3F80
7FFF80
7FF780
3FE780
1F8000
ENDCHAR
STARTCHAR 00FA
ENCODING 250
SWIDTH 552 0
DWIDTH 23 0
BBX 17 34 3 0
BITMAP
000800
001C00
003E00
003F00
007E00
00F800
01F000
03E000
01C000
008000
000000
000000
000000
000000
F80F80
F80F80
F80F80
F80F80
F80F80
F80F80
F80F80
F80F80
F80F80
F80F80
F80F80
F80F80
F80F80
F80F80
F81F80
FC3F80
7FFF80
7FF780
3FE780
1F8000
ENDCHAR
STARTCHAR 00FB
ENCODING 251
SWIDTH 552 0
DWIDTH 23 0
BBX 17 31 3 0
BITMAP
03F000
07F000
0FF800
1F7C00
3E1E00
380F00
100600
000000
000000
000000
000000
F80F80
F80F80
F80F80
F80F80
F80F80
F80F80
F80F80
F80F80
F80F80
F80F80
F80F80
F80F80
F80F80
F80F80
F81F80
FC3F80
7FFF80
7FF780
3FE780
1F8000
ENDCHAR
STARTCHAR 00FC
ENCODING 252
SWIDTH 552 0
DWIDTH 23 0
BBX 17 29 3 0
BITMAP
1C1E00
3E1E00
3E3F00
3E1E00
1C1E00
000000
000000
000000
000000
F80F80
F80F80
F80F80
F80F80
F80F80
F80F80
F80F80
F80F80
F80F80
F80F80
F80F80
F80F80
F80F80
F80F80
F81F80
FC3F80
7FFF80
7FF780
3FE780
1F8000
ENDCHAR
STARTCHAR 00FD
ENCODING 253
SWIDTH 504 0
DWIDTH 21 0
BBX 20 43 0 -9
BITMAP
000200
000700
000F80
000FC0
001F00
003E00
007C00
00F800
007000
002000
000000
000000
000000
000000
FC01F0
7C01F0
3C01E0
3E01E0
3E03E0
1E03C0
1F03C0
0F07C0
0F0780
0F8780
078F80
078F00
03CF00
03CF00
03DE00
01FE00
01FE00
01FC00
00FC00
00FC00
007800
00F800
00F000
01F000
03E000
3FE000
3FC000
3F8000
3E0000
ENDCHAR
STARTCHAR 00FE
ENCODING 254
SWIDTH 576 0
DWIDTH 24 0
BBX 19 39 3 -9
BITMAP
F80000
F80000
F80000
F80000
F80000
F80000
F80000
F80000
F80000
F80000
F8FC00
FBFE00
FFFF80
FFFF80
FE0FC0
FC07C0
F807E0
F803E0
F803E0
F803E0
F803E0
F803E0
F803E0
F807C0
F80FC0
FE1F80
FFFF80
FFFF00
FFFE00
F9F800
F80000
F80000
F80000
F80000
F80000
F80000
F80000
F80000
F80000
ENDCHAR
STARTCHAR 00FF
ENCODING 255
SWIDTH 504 0
DWIDTH 21 0
BBX 20 38 0 -9
BITMAP
070780
0F8780
0F8FC0
0F8780
070780
000000
000000
000000
000000
FC01F0
7C01F0
3C01E0
3E01E0
3E03E0
1E03C0
1F03C0
0F07C0
0F0780
0F8780
078F80
078F00
03CF00
03CF00
03DE00
01FE00
01FE00
01FC00
00FC00
00FC00
007800
00F800
00F000
01F000
03E000
3FE000
3FC000
3F8000
3E0000
ENDCHAR
STARTCHAR 0100
ENCODING 256
SWIDTH 552 0
DWIDTH 23 0
BBX 24 33 0 0
BITMAP
03FFC0
03FFC0
03FFC0
000000
000000
007E00
00FE00
00FE00
00FF00
01EF00
01EF00
01EF80
03E780
03C780
03C7C0
07C3C0
0783C0
0783E0
0783E0
0F81E0
0F01F0
0FFFF0
1FFFF0
1FFFF0
1FFFF8
3E00F8
3E0078
3C007C
7C007C
7C007C
7C003E
F8003E
F8003F
ENDCHAR
STARTCHAR 0101
ENCODING 257
SWIDTH 528 0
DWIDTH 22 0
BBX 17 28 2 0
BITMAP
1FFE00
1FFE00
1FFE00
000000
000000
000000
000000
000000
03F800
1FFC00
7FFE00
7FFF00
3C1F00
200F80
000F80
007F80
07FF80
1FFF80
7F8F80
7C0F80
F80F80
F80F80
F81F80
FC3F80
FFFF80
7FF780
3FE780
1F8000
ENDCHAR
STARTCHAR 0102
ENCODING 258
SWIDTH 552 0
DWIDTH 23 0
BBX 24 36 0 0
BITMAP
0701C0
0781C0
03C3C0
03FF80
01FF00
007E00
000000
000000
007E00
00FE00
00FE00
00FF00
01EF00
01EF00
01EF80
03E780
03C780
03C7C0
07C3C0
0783C0
0783E0
0783E0
0F81E0
0F01F0
0FFFF0
1FFFF0
1FFFF0
1FFFF8
3E00F8
3E0078
3C007C
7C007C
7C007C
7C003E
F8003E
F8003F
ENDCHAR
STARTCHAR 0103
ENCODING 259
SWIDTH 528 0
DWIDTH 22 0
BBX 17 31 2 0
BITMAP
380700
1C0700
1C0F00
1E1E00
0FFE00
07FC00
03F000
000000
000000
000000
000000
03F800
1FFC00
7FFE00
7FFF00
3C1F00
200F80
000F80
007F80
07FF80
1FFF80
7F8F80
7C0F80
F80F80
F80F80
F81F80
FC3F80
FFFF80
7FF780
3FE780
1F8000
ENDCHAR
STARTCHAR 0104
ENCODING 260
SWIDTH 552 0
DWIDTH 23 0
BBX 25 37 0 -9
BITMAP
007E0000
00FE0000
00FE0000
00FF0000
01EF0000
01EF0000
01EF8000
03E78000
03C78000
03C7C000
07C3C000
0783C000
0783E000
0783E000
0F81E000
0F01F000
0FFFF000
1FFFF000
1FFFF000
1FFFF800
3E00F800
3E007800
3C007C00
7C007C00
7C007C00
7C003E00
F8003E00
F8003E00
00001D00
00003800
00007000
00007000
0000F000
0000F200
00007F00
00007F00
00003E80
ENDCHAR
STARTCHAR 0105
ENCODING 261
SWIDTH 528 0
DWIDTH 22 0
BBX 18 29 2 -9
BITMAP
03F800
1FFC00
7FFE00
7FFF00
3C1F00
200F80
000F80
007F80
07FF80
1FFF80
7F8F80
7C0F80
F80F80
F80F80
F81F80
FC3F80
FFFF80
7FF780
3FE780
1F8F00
001E00
001C00
003C00
003800
003800
003C80
003F80
001FC0
000F00
ENDCHAR
STARTCHAR 0106
ENCODING 262
SWIDTH 576 0
DWIDTH 24 0
BBX 21 38 2 0
BITMAP
000100
000380
0007C0
000FE0
001F80
003E00
007C00
001000
000000
000000
007F00
01FFC0
07FFF0
0FFFF8
1FC1F0
3F0060
3E0000
7E0000
7C0000
7C0000
F80000
F80000
F80000
F80000
F80000
F80000
F80000
F80000
7C0000
7C0000
7E0000
3E0020
3F0070
1FC1F0
0FFFF8
07FFF0
03FFC0
007F00
ENDCHAR
STARTCHAR 0107
ENCODING 263
SWIDTH 456 0
DWIDTH 19 0
BBX 17 34 2 0
BITMAP
000400
000E00
000F00
001F80
003F00
007E00
00FC00
00F800
01F000
004000
000000
000000
000000
000000
01F800
0FFE00
1FFF00
3FFE00
7F0E00
7C0400
FC0000
F80000
F80000
F80000
F80000
F80000
F80000
FC0000
7C0200
7F0E00
3FFF00
1FFF00
0FFE00
03F800
ENDCHAR
STARTCHAR 0108
ENCODING 264
SWIDTH 576 0
DWIDTH 24 0
BBX 21 36 2 0
BITMAP
007E00
00FF00
01FF80
03E3C0
0381E0
0500C0
000000
000000
007F00
01FFC0
07FFF0
0FFFF8
1FC1F0
3F0060
3E0000
7E0000
7C0000
7C0000
F80000
F80000
F80000
F80000
F80000
F80000
F80000
F80000
7C0000
7C0000
7E0000
3E0020
3F0070
1FC1F0
0FFFF8
07FFF0
03FFC0
007F00
ENDCHAR
STARTCHAR 0109
ENCODING 265
SWIDTH 456 0
DWIDTH 19 0
BBX 17 31 2 0
BITMAP
01F800
03FC00
07FE00
0F9E00
0F0F00
1E0780
080100
000000
000000
000000
000000
01F800
0FFE00
1FFF00
3FFE00
7F0E00
7C0400
FC0000
F80000
F80000
F80000
F80000
F80000
F80000
FC0000
7C0200
7F0E00
3FFF00
1FFF00
0FFE00
03F800
ENDCHAR
STARTCHAR 010A
ENCODING 266
SWIDTH 576 0
DWIDTH 24 0
BBX 21 36 2 0
BITMAP
003C00
007E00
007E00
007E00
003E00
003C00
000000
000000
007F00
01FFC0
07FFF0
0FFFF8
1FC1F0
3F0060
3E0000
7E0000
7C0000
7C0000
F80000
F80000
F80000
F80000
F80000
F80000
F80000
F80000
7C0000
7C0000
7E0000
3E0020
3F0070
1FC1F0
0FFFF8
07FFF0
03FFC0
007F00
ENDCHAR
STARTCHAR 010B
ENCODING 267
SWIDTH 456 0
DWIDTH 19 0
BBX 16 30 2 0
BITMAP
00F0
01F8
01F8
01F8
01F0
00F0
0000
0000
0000
0000
01F8
0FFE
1FFF
3FFE
7F0E
7C04
FC00
F800
F800
F800
F800
F800
F800
FC00
7C02
7F0E
3FFF
1FFF
0FFE
03F8
ENDCHAR
STARTCHAR 010C
ENCODING 268
SWIDTH 576 0
DWIDTH 24 0
BBX 21 36 2 0
BITMAP
0100C0
0781E0
01E3C0
01FF80
00FF00
007E00
000000
000000
007F00
01FFC0
07FFF0
0FFFF8
1FC1F0
3F0060
3E0000
7E0000
7C0000
7C0000
F80000
F80000
F80000
F80000
F80000
F80000
F80000
F80000
7C0000
7C0000
7E0000
3E0020
3F0070
1FC1F0
0FFFF8
07FFF0
03FFC0
007F00
ENDCHAR
STARTCHAR 010D
ENCODING 269
SWIDTH 456 0
DWIDTH 19 0
BBX 17 31 2 0
BITMAP
080100
1E0780
0F0F00
0F9E00
07FE00
03FC00
01F800
000000
000000
000000
000000
01F800
0FFE00
1FFF00
3FFE00
7F0E00
7C0400
FC0000
F80000
F80000
F80000
F80000
F80000
F80000
FC0000
7C0200
7F0E00
3FFF00
1FFF00
0FFE00
03F800
ENDCHAR
STARTCHAR 010E
ENCODING 270
SWIDTH 624 0
DWIDTH 26 0
BBX 21 36 3 0
BITMAP
040300
1E0780
0F8F00
07FE00
03FC00
01F800
000000
000000
FFF000
FFFE00
FFFF80
FFFFC0
F81FE0
F807E0
F803F0
F801F0
F801F8
F800F8
F800F8
F800F8
F800F8
F800F8
F800F8
F800F8
F800F8
F800F8
F800F8
F801F0
F801F0
F803F0
F807E0
F81FC0
FFFFC0
FFFF00
FFFE00
FFF000
ENDCHAR
STARTCHAR 010F
ENCODING 271
SWIDTH 600 0
DWIDTH 25 0
BBX 24 32 2 0
BITMAP
000007
000007
0003E7
0003E7
0003E6
0003E6
0003E6
0003E6
0003E6
0003E0
0003E0
0003E0
03E3E0
0FFBE0
1FFFE0
3FFFE0
7F0FE0
7C07E0
FC03E0
F803E0
F803E0
F803E0
F803E0
F803E0
F803E0
F803E0
FC07E0
7E1FE0
7FFFE0
3FFFE0
1FF9E0
07E000
ENDCHAR
STARTCHAR 0110
ENCODING 272
SWIDTH 648 0
DWIDTH 27 0
BBX 24 28 1 0
BITMAP
1FFE00
1FFFC0
1FFFF0
1FFFF8
1F03FC
1F00FC
1F007E
1F003E
1F003F
1F001F
1F001F
1F001F
1F001F
FFFC1F
FFFC1F
1F001F
1F001F
1F001F
1F001F
1F003E
1F003E
1F007E
1F00FC
1F03F8
1FFFF8
1FFFE0
1FFFC0
1FFE00
ENDCHAR
STARTCHAR 0111
ENCODING 273
SWIDTH 576 0
DWIDTH 24 0
BBX 22 30 2 0
BITMAP
0003E0
0003E0
0003E0
01FFFC
01FFFC
0003E0
0003E0
0003E0
0003E0
03E3E0
0FFBE0
1FFFE0
3FFFE0
7F0FE0
7C07E0
FC03E0
F803E0
F803E0
F803E0
F803E0
F803E0
F803E0
F803E0
FC03E0
7C07E0
7E1FE0
3FFFE0
3FFFE0
1FFBE0
07E000
ENDCHAR
STARTCHAR 0112
ENCODING 274
SWIDTH 552 0
DWIDTH 23 0
BBX 17 33 3 0
BITMAP
1FFE00
1FFE00
1FFE00
000000
000000
FFFF80
FFFF80
FFFF80
FFFF80
F80000
F80000
F80000
F80000
F80000
F80000
F80000
F80000
FFFE00
FFFE00
FFFE00
FFFE00
F80000
F80000
F80000
F80000
F80000
F80000
F80000
F80000
FFFF80
FFFF80
FFFF80
FFFF80
ENDCHAR
STARTCHAR 0113
ENCODING 275
SWIDTH 504 0
DWIDTH 21 0
BBX 18 28 2 0
BITMAP
1FFE00
1FFE00
1FFE00
000000
000000
000000
000000
000000
03F000
0FFC00
1FFF00
3FFF00
7E0F80
7C0780
F80780
F803C0
FFFFC0
FFFFC0
FFFFC0
F00000
F80000
F80000
7C0200
7F0700
3FFF00
1FFF80
0FFF00
03F800
ENDCHAR
STARTCHAR 0114
ENCODING 276
SWIDTH 552 0
DWIDTH 23 0
BBX 17 36 3 0
BITMAP
180700
1C0E00
1E1E00
0FFC00
0FFC00
03F000
000000
000000
FFFF80
FFFF80
FFFF80
FFFF80
F80000
F80000
F80000
F80000
F80000
F80000
F80000
F80000
FFFE00
FFFE00
FFFE00
FFFE00
F80000
F80000
F80000
F80000
F80000
F80000
F80000
F80000
FFFF80
FFFF80
FFFF80
FFFF80
ENDCHAR
STARTCHAR 0115
ENCODING 277
SWIDTH 504 0
DWIDTH 21 0
BBX 18 31 2 0
BITMAP
380700
3C0700
1C0F00
1E1E00
0FFE00
07FC00
03F000
000000
000000
000000
000000
03F000
0FFC00
1FFF00
3FFF00
7E0F80
7C0780
F80780
F803C0
FFFFC0
FFFFC0
FFFFC0
F00000
F80000
F80000
7C0200
7F0700
3FFF00
1FFF80
0FFF00
03F800
ENDCHAR
STARTCHAR 0116
ENCODING 278
SWIDTH 552 0
DWIDTH 23 0
BBX 17 36 3 0
BITMAP
01E000
03F000
03F000
03F000
03F000
01E000
000000
000000
FFFF80
FFFF80
FFFF80
FFFF80
F80000
F80000
F80000
F80000
F80000
F80000
F80000
F80000
FFFE00
FFFE00
FFFE00
FFFE00
F80000
F80000
F80000
F80000
F80000
F80000
F80000
F80000
FFFF80
FFFF80
FFFF80
FFFF80
ENDCHAR
STARTCHAR 0117
ENCODING 279
SWIDTH 504 0
DWIDTH 21 0
BBX 18 30 2 0
BITMAP
00E000
01F000
03F000
03F000
01F000
00E000
000000
000000
000000
000000
03F000
0FFC00
1FFF00
3FFF00
7E0F80
7C0780
F80780
F803C0
FFFFC0
FFFFC0
FFFFC0
F00000
F80000
F80000
7C0200
7F0700
3FFF00
1FFF80
0FFF00
03F800
ENDCHAR
STARTCHAR 0118
ENCODING 280
SWIDTH 552 0
DWIDTH 23 0
BBX 18 37 3 -9
BITMAP
FFFF80
FFFF80
FFFF80
FFFF80
F80000
F80000
F80000
F80000
F80000
F80000
F80000
F80000
FFFE00
FFFE00
FFFE00
FFFE00
F80000
F80000
F80000
F80000
F80000
F80000
F80000
F80000
FFFF80
FFFF80
FFFF80
FFFF80
000F00
001E00
001C00
003C00
003C00
003C80
003FC0
001FC0
000F80
ENDCHAR
STARTCHAR 0119
ENCODING 281
SWIDTH 504 0
DWIDTH 21 0
BBX 18 29 2 -9
BITMAP
03F000
0FFC00
1FFF00
3FFF00
7E0F80
7C0780
F80780
F803C0
FFFFC0
FFFFC0
FFFFC0
F00000
F80000
F80000
7C0200
7F0700
3FFF00
1FFF80
0FFF00
03FE00
001C00
003800
003800
007000
007000
007900
007F00
003F80
001E00
ENDCHAR
STARTCHAR 011A
ENCODING 282
SWIDTH 552 0
DWIDTH 23 0
BBX 17 36 3 0
BITMAP
080400
3C0F00
1F1E00
0FFC00
07F800
03F000
000000
000000
FFFF80
FFFF80
FFFF80
FFFF80
F80000
F80000
F80000
F80000
F80000
F80000
F80000
F80000
FFFE00
FFFE00
FFFE00
FFFE00
F80000
F80000
F80000
F80000
F80000
F80000
F80000
F80000
FFFF80
FFFF80
FFFF80
FFFF80
ENDCHAR
STARTCHAR 011B
ENCODING 283
SWIDTH 504 0
DWIDTH 21 0
BBX 18 31 2 0
BITMAP
180200
3C0F00
1E1F00
0F3E00
07FC00
07F800
03F000
000000
000000
000000
000000
03F000
0FFC00
1FFF00
3FFF00
7E0F80
7C0780
F80780
F803C0
FFFFC0
FFFFC0
FFFFC0
F00000
F80000
F80000
7C0200
7F0700
3FFF00
1FFF80
0FFF00
03F800
ENDCHAR
STARTCHAR 011C
ENCODING 284
SWIDTH 624 0
DWIDTH 26 0
BBX 22 36 2 0
BITMAP
003F00
007F80
00FFC0
01F1E0
01C0F0
028060
000000
000000
007F80
01FFE0
07FFF0
0FFFF8
1FC0F0
3F8030
3E0000
7E0000
7C0000
7C0000
F80000
F80000
F80000
F80FFC
F80FFC
F80FFC
F80FFC
F8007C
7C007C
7C007C
7E007C
3E007C
3F007C
1FC0FC
0FFFFC
07FFF8
01FFE0
007F80
ENDCHAR
STARTCHAR 011D
ENCODING 285
SWIDTH 528 0
DWIDTH 22 0
BBX 19 40 2 -9
BITMAP
01F000
03F800
07FC00
0FBE00
1E0F00
3C0780
080200
000000
000000
000000
000000
07FFE0
1FFFE0
3FFFE0
7FFFE0
7C1F00
F80F00
F80F00
F80F00
780F00
7C1F00
3FFF00
1FFE00
3FFC00
3FF000
780000
780000
780000
7FFF00
3FFFC0
1FFFE0
7FFFE0
F003E0
F001E0
F003E0
F80FE0
FFFFC0
7FFF80
3FFE00
0FF800
ENDCHAR
STARTCHAR 011E
ENCODING 286
SWIDTH 624 0
DWIDTH 26 0
BBX 22 36 2 0
BITMAP
01C070
01C0E0
01E1E0
00FFE0
007FC0
003F00
000000
000000
007F80
01FFE0
07FFF0
0FFFF8
1FC0F0
3F8030
3E0000
7E0000
7C0000
7C0000
F80000
F80000
F80000
F80FFC
F80FFC
F80FFC
F80FFC
F8007C
7C007C
7C007C
7E007C
3E007C
3F007C
1FC0FC
0FFFFC
07FFF8
01FFE0
007F80
ENDCHAR
STARTCHAR 011F
ENCODING 287
SWIDTH 528 0
DWIDTH 22 0
BBX 19 40 2 -9
BITMAP
1C0700
1C0700
1C0700
1F1F00
0FFE00
07FC00
01F000
000000
000000
000000
000000
07FFE0
1FFFE0
3FFFE0
7FFFE0
7C1F00
F80F00
F80F00
F80F00
780F00
7C1F00
3FFF00
1FFE00
3FFC00
3FF000
780000
780000
780000
7FFF00
3FFFC0
1FFFE0
7FFFE0
F003E0
F001E0
F003E0
F80FE0
FFFFC0
7FFF80
3FFE00
0FF800
ENDCHAR
STARTCHAR 0120
ENCODING 288
SWIDTH 624 0
DWIDTH 26 0
BBX 22 36 2 0
BITMAP
001E00
003F00
003F00
003F00
001F00
001E00
000000
000000
007F80
01FFE0
07FFF0
0FFFF8
1FC0F0
3F8030
3E0000
7E0000
7C0000
7C0000
F80000
F80000
F80000
F80FFC
F80FFC
F80FFC
F80FFC
F8007C
7C007C
7C007C
7E007C
3E007C
3F007C
1FC0FC
0FFFFC
07FFF8
01FFE0
007F80
ENDCHAR
STARTCHAR 0121
ENCODING 289
SWIDTH 528 0
DWIDTH 22 0
BBX 19 39 2 -9
BITMAP
00E000
01F000
01F000
01F000
01F000
00E000
000000
000000
000000
000000
07FFE0
1FFFE0
3FFFE0
7FFFE0
7C1F00
F80F00
F80F00
F80F00
780F00
7C1F00
3FFF00
1FFE00
3FFC00
3FF000
780000
780000
780000
7FFF00
3FFFC0
1FFFE0
7FFFE0
F003E0
F001E0
F003E0
F80FE0
FFFFC0
7FFF80
3FFE00
0FF800
ENDCHAR
STARTCHAR 0122
ENCODING 290
SWIDTH 624 0
DWIDTH 26 0
BBX 22 37 2 -9
BITMAP
007F80
01FFE0
07FFF0
0FFFF8
1FC0F0
3F8030
3E0000
7E0000
7C0000
7C0000
F80000
F80000
F80000
F80FFC
F80FFC
F80FFC
F80FFC
F8007C
7C007C
7C007C
7E007C
3E007C
3F007C
1FC0FC
0FFFFC
07FFF8
01FFE0
007F80
000000
000000
001C00
003F00
000F80
000780
000F00
007E00
007800
ENDCHAR
STARTCHAR 0123
ENCODING 291
SWIDTH 528 0
DWIDTH 22 0
BBX 19 40 2 -9
BITMAP
003C00
01FC00
03C000
038000
03C000
03F000
00F000
000000
000000
000000
000000
07FFE0
1FFFE0
3FFFE0
7FFFE0
7C1F00
F80F00
F80F00
F80F00
780F00
7C1F00
3FFF00
1FFE00
3FFC00
3FF000
780000
780000
780000
7FFF00
3FFFC0
1FFFE0
7FFFE0
F003E0
F001E0
F003E0
F80FE0
FFFFC0
7FFF80
3FFE00
0FF800
ENDCHAR
STARTCHAR 0124
ENCODING 292
SWIDTH 672 0
DWIDTH 28 0
BBX 21 36 3 0
BITMAP
00FC00
01FE00
03FF00
078F80
0F0380
020140
000000
000000
F800F8
F800F8
F800F8
F800F8
F800F8
F800F8
F800F8
F800F8
F800F8
F800F8
F800F8
F800F8
FFFFF8
FFFFF8
FFFFF8
FFFFF8
F800F8
F800F8
F800F8
F800F8
F800F8
F800F8
F800F8
F800F8
F800F8
F800F8
F800F8
F800F8
ENDCHAR
STARTCHAR 0125
ENCODING 293
SWIDTH 552 0
DWIDTH 23 0
BBX 22 38 -1 0
BITMAP
1FC000
1FC000
3DE000
78F000
F07800
603000
000000
000000
0F8000
0F8000
0F8000
0F8000
0F8000
0F8000
0F8000
0F8000
0F8000
0F8000
0F8FC0
0F9FF0
0FFFF0
0FFFF8
0FF0F8
0FC0F8
0F807C
0F807C
0F807C
0F807C
0F807C
0F807C
0F807C
0F807C
0F807C
0F807C
0F807C
0F807C
0F807C
0F807C
ENDCHAR
STARTCHAR 0126
ENCODING 294
SWIDTH 696 0
DWIDTH 29 0
BBX 27 28 1 0
BITMAP
1F001F00
1F001F00
1F001F00
1F001F00
1F001F00
FFFFFFE0
FFFFFFE0
1F001F00
1F001F00
1F001F00
1F001F00
1FFFFF00
1FFFFF00
1FFFFF00
1FFFFF00
1F001F00
1F001F00
1F001F00
1F001F00
1F001F00
1F001F00
1F001F00
1F001F00
1F001F00
1F001F00
1F001F00
1F001F00
1F001F00
ENDCHAR
STARTCHAR 0127
ENCODING 295
SWIDTH 552 0
DWIDTH 23 0
BBX 21 30 0 0
BITMAP
1F0000
1F0000
1F0000
FFFE00
FFFE00
1F0000
1F0000
1F0000
1F0000
1F0000
1F1F80
1F3FE0
1FFFE0
1FFFF0
1FE1F0
1F81F0
1F00F8
1F00F8
1F00F8
1F00F8
1F00F8
1F00F8
1F00F8
1F00F8
1F00F8
1F00F8
1F00F8
1F00F8
1F00F8
1F00F8
ENDCHAR
STARTCHAR 0128
ENCODING 296
SWIDTH 288 0
DWIDTH 12 0
BBX 16 35 -2 0
BITMAP
3F0F
7F8F
FFFE
F1FE
E078
0000
0000
07C0
07C0
07C0
07C0
07C0
07C0
07C0
07C0
07C0
07C0
07C0
07C0
07C0
07C0
07C0
07C0
07C0
07C0
07C0
07C0
07C0
07C0
07C0
07C0
07C0
07C0
07C0
07C0
ENDCHAR
STARTCHAR 0129
ENCODING 297
SWIDTH 264 0
DWIDTH 11 0
BBX 15 30 -2 0
BITMAP
1800
7F0E
7F9E
F7FE
E1FC
E0F8
0000
0000
0000
0000
07C0
07C0
07C0
07C0
07C0
07C0
07C0
07C0
07C0
07C0
07C0
07C0
07C0
07C0
07C0
07C0
07C0
07C0
07C0
07C0
ENDCHAR
STARTCHAR 012A
ENCODING 298
SWIDTH 288 0
DWIDTH 12 0
BBX 12 33 0 0
BITMAP
FFF0
FFF0
FFF0
0000
0000
1F00
1F00
1F00
1F00
1F00
1F00
1F00
1F00
1F00
1F00
1F00
1F00
1F00
1F00
1F00
1F00
1F00
1F00
1F00
1F00
1F00
1F00
1F00
1F00
1F00
1F00
1F00
1F00
ENDCHAR
STARTCHAR 012B
ENCODING 299
SWIDTH 264 0
DWIDTH 11 0
BBX 11 28 0 0
BITMAP
FFE0
FFE0
FFE0
0000
0000
0000
0000
0000
1F00
1F00
1F00
1F00
1F00
1F00
1F00
1F00
1F00
1F00
1F00
1F00
1F00
1F00
1F00
1F00
1F00
1F00
1F00
1F00
ENDCHAR
STARTCHAR 012C
ENCODING 300
SWIDTH 288 0
DWIDTH 12 0
BBX 13 36 -1 0
BITMAP
E018
7038
7878
7FF0
3FF0
0FC0
0000
0000
0F80
0F80
0F80
0F80
0F80
0F80
0F80
0F80
0F80
0F80
0F80
0F80
0F80
0F80
0F80
0F80
0F80
0F80
0F80
0F80
0F80
0F80
0F80
0F80
0F80
0F80
0F80
0F80
ENDCHAR
STARTCHAR 012D
ENCODING 301
SWIDTH 264 0
DWIDTH 11 0
BBX 13 31 -1 0
BITMAP
E038
E038
E038
F8F8
7FF0
3FE0
0F80
0000
0000
0000
0000
0F80
0F80
0F80
0F80
0F80
0F80
0F80
0F80
0F80
0F80
0F80
0F80
0F80
0F80
0F80
0F80
0F80
0F80
0F80
0F80
ENDCHAR
STARTCHAR 012E
ENCODING 302
SWIDTH 288 0
DWIDTH 12 0
BBX 8 37 2 -9
BITMAP
7C
7C
7C
7C
7C
7C
7C
7C
7C
7C
7C
7C
7C
7C
7C
7C
7C
7C
7C
7C
7C
7C
7C
7C
7C
7C
7C
7C
3C
70
70
E0
E0
F2
FE
7F
3E
ENDCHAR
STARTCHAR 012F
ENCODING 303
SWIDTH 264 0
DWIDTH 11 0
BBX 8 39 2 -9
BITMAP
38
7C
FC
7C
7C
38
00
00
00
00
7C
7C
7C
7C
7C
7C
7C
7C
7C
7C
7C
7C
7C
7C
7C
7C
7C
7C
7C
7C
38
70
E0
E0
E0
F2
FE
FE
3D
ENDCHAR
STARTCHAR 0130
ENCODING 304
SWIDTH 288 0
DWIDTH 12 0
BBX 6 36 3 0
BITMAP
78
FC
FC
FC
FC
78
00
00
F8
F8
F8
F8
F8
F8
F8
F8
F8
F8
F8
F8
F8
F8
F8
F8
F8
F8
F8
F8
F8
F8
F8
F8
F8
F8
F8
F8
ENDCHAR
STARTCHAR 0131
ENCODING 305
SWIDTH 264 0
DWIDTH 11 0
BBX 5 20 3 0
BITMAP
F8
F8
F8
F8
F8
F8
F8
F8
F8
F8
F8
F8
F8
F8
F8
F8
F8
F8
F8
F8
ENDCHAR
STARTCHAR 0132
ENCODING 306
SWIDTH 576 0
DWIDTH 24 0
BBX 17 35 3 -7
BITMAP
F80F80
F80F80
F80F80
F80F80
F80F80
F80F80
F80F80
F80F80
F80F80
F80F80
F80F80
F80F80
F80F80
F80F80
F80F80
F80F80
F80F80
F80F80
F80F80
F80F80
F80F80
F80F80
F80F80
F80F80
F80F80
F80F80
F80F80
F80F80
000F80
000F80
000F80
00FF80
00FF00
00FE00
01F800
ENDCHAR
STARTCHAR 0133
ENCODING 307
SWIDTH 528 0
DWIDTH 22 0
BBX 17 38 3 -9
BITMAP
700E00
F81F00
F81F80
F81F00
F81F00
000000
000000
000000
000000
F81F00
F81F00
F81F00
F81F00
F81F00
F81F00
F81F00
F81F00
F81F00
F81F00
F81F00
F81F00
F81F00
F81F00
F81F00
F81F00
F81F00
F81F00
F81F00
F81F00
001F00
001F00
001F00
001F00
003F00
01FE00
01FE00
03FC00
03F000
ENDCHAR
STARTCHAR 0134
ENCODING 308
SWIDTH 504 0
DWIDTH 21 0
BBX 21 36 1 0
BITMAP
001F80
003FC0
007FE0
00F1F0
01E070
00C028
000000
000000
000F00
000F00
000F00
000F00
000F00
000F00
000F00
000F00
000F00
000F00
000F00
000F00
000F00
000F00
000F00
000F00
000F00
000F00
000F00
001F00
001F00
101F00
701F00
FC3F00
7FFE00
7FFC00
1FF800
07E000
ENDCHAR
STARTCHAR 0135
ENCODING 309
SWIDTH 264 0
DWIDTH 11 0
BBX 15 40 -2 -9
BITMAP
07C0
0FE0
1FF0
3EF8
7C3C
F01E
2008
0000
0000
0000
0000
07C0
07C0
07C0
07C0
07C0
07C0
07C0
07C0
07C0
07C0
07C0
07C0
07C0
07C0
07C0
07C0
07C0
07C0
07C0
07C0
07C0
07C0
07C0
07C0
0FC0
7F80
7F80
FF00
FC00
ENDCHAR
STARTCHAR 0136
ENCODING 310
SWIDTH 600 0
DWIDTH 25 0
BBX 22 37 3 -9
BITMAP
F801F8
F803F0
F807E0
F807C0
F80F80
F81F00
F83F00
F87E00
F87C00
F8F800
F9F800
FBF800
FBF800
FFFC00
FFFC00
FFBE00
FF3E00
FE1F00
FC1F80
FC0F80
F807C0
F807C0
F803E0
F803F0
F801F0
F801F8
F800F8
F800FC
000000
000000
007000
00FC00
003C00
001C00
003C00
03F800
01E000
ENDCHAR
STARTCHAR 0137
ENCODING 311
SWIDTH 528 0
DWIDTH 22 0
BBX 19 39 3 -9
BITMAP
F80000
F80000
F80000
F80000
F80000
F80000
F80000
F80000
F80000
F80000
F80FC0
F81F80
F83F00
F87E00
F87C00
F8F800
F9F000
FBE000
FFE000
FFF000
FFF000
FFF800
FE7C00
FC3C00
F83E00
F81F00
F81F00
F80F80
F80FC0
F807C0
000020
000000
01C000
03F000
00F000
007800
00F000
07E000
078000
ENDCHAR
STARTCHAR 0138
ENCODING 312
SWIDTH 528 0
DWIDTH 22 0
BBX 19 20 3 0
BITMAP
F80FC0
F81F80
F81F00
F83E00
F87C00
F8F800
F9F000
FBE000
FBE000
FFF000
FFF000
FFF800
FE7C00
FC7C00
F83E00
F81F00
F81F00
F80F80
F80FC0
F807E0
ENDCHAR
STARTCHAR 0139
ENCODING 313
SWIDTH 504 0
DWIDTH 21 0
BBX 17 38 3 0
BITMAP
020000
070000
0F8000
1FC000
3F0000
FC0000
780000
200000
000000
000000
F80000
F80000
F80000
F80000
F80000
F80000
F80000
F80000
F80000
F80000
F80000
F80000
F80000
F80000
F80000
F80000
F80000
F80000
F80000
F80000
F80000
F80000
F80000
F80000
FFFF80
FFFF80
FFFF80
FFFF80
ENDCHAR
STARTCHAR 013A
ENCODING 314
SWIDTH 264 0
DWIDTH 11 0
BBX 9 40 3 0
BITMAP
0200
0700
1F00
3F80
7E00
FC00
7000
6000
0000
0000
F800
F800
F800
F800
F800
F800
F800
F800
F800
F800
F800
F800
F800
F800
F800
F800
F800
F800
F800
F800
F800
F800
F800
F800
F800
F800
FE00
7E00
7E00
3E00
ENDCHAR
STARTCHAR 013B
ENCODING 315
SWIDTH 504 0
DWIDTH 21 0
BBX 17 37 3 -9
BITMAP
F80000
F80000
F80000
F80000
F80000
F80000
F80000
F80000
F80000
F80000
F80000
F80000
F80000
F80000
F80000
F80000
F80000
F80000
F80000
F80000
F80000
F80000
F80000
F80000
FFFF80
FFFF80
FFFF80
FFFF80
000000
000000
01C000
01F000
027800
007800
00F000
07F000
078000
ENDCHAR
STARTCHAR 013C
ENCODING 316
SWIDTH 264 0
DWIDTH 11 0
BBX 8 39 3 -9
BITMAP
F8
F8
F8
F8
F8
F8
F8
F8
F8
F8
F8
F8
F8
F8
F8
F8
F8
F8
F8
F8
F8
F8
F8
F8
F8
F8
FE
7E
7E
3E
00
00
38
3E
4F
0F
1F
FE
F0
ENDCHAR
STARTCHAR 013D
ENCODING 317
SWIDTH 504 0
DWIDTH 21 0
BBX 17 31 3 0
BITMAP
001C00
001C00
001C00
F81C00
F81C00
F81C00
F81C00
F81C00
F81C00
F80000
F80000
F80000
F80000
F80000
F80000
F80000
F80000
F80000
F80000
F80000
F80000
F80000
F80000
F80000
F80000
F80000
F80000
FFFF80
FFFF80
FFFF80
FFFF80
ENDCHAR
STARTCHAR 013E
ENCODING 318
SWIDTH 288 0
DWIDTH 12 0
BBX 10 32 3 0
BITMAP
01C0
01C0
F9C0
F9C0
F9C0
F9C0
F9C0
F980
F980
F800
F800
F800
F800
F800
F800
F800
F800
F800
F800
F800
F800
F800
F800
F800
F800
F800
F800
F800
FE00
7E00
7E00
3E00
ENDCHAR
STARTCHAR 013F
ENCODING 319
SWIDTH 504 0
DWIDTH 21 0
BBX 17 28 3 0
BITMAP
F80000
F80000
F80000
F80000
F80000
F80000
F80000
F80000
F80000
F80000
F80E00
F81F00
F83F80
F83F80
F83F80
F81F00
F80E00
F80000
F80000
F80000
F80000
F80000
F80000
F80000
FFFF80
FFFF80
FFFF80
FFFF80
ENDCHAR
STARTCHAR 0140
ENCODING 320
SWIDTH 408 0
DWIDTH 17 0
BBX 14 30 3 0
BITMAP
F800
F800
F800
F800
F800
F800
F800
F800
F800
F800
F800
F800
F878
F8FC
F8FC
F8FC
F8FC
F8FC
F878
F800
F800
F800
F800
F800
F800
F800
FE00
7E00
7E00
3E00
ENDCHAR
STARTCHAR 0141
ENCODING 321
SWIDTH 504 0
DWIDTH 21 0
BBX 21 28 -1 0
BITMAP
07C000
07C000
07C000
07C000
07C000
07C000
07C000
07C000
07C080
07C3C0
07CFC0
07FF80
07FF00
07FC00
0FF000
3FC000
FFC000
7FC000
77C000
47C000
07C000
07C000
07C000
07C000
07FFF8
07FFF8
07FFF8
07FFF8
ENDCHAR
STARTCHAR 0142
ENCODING 322
SWIDTH 288 0
DWIDTH 12 0
BBX 12 30 0 0
BITMAP
1F00
1F00
1F00
1F00
1F00
1F00
1F00
1F00
1F00
1F40
1FE0
1FF0
1FF0
1FC0
7F00
FF00
FF00
7F00
1F00
1F00
1F00
1F00
1F00
1F00
1F00
1F00
0FC0
0FC0
0FC0
03E0
ENDCHAR
STARTCHAR 0143
ENCODING 323
SWIDTH 672 0
DWIDTH 28 0
BBX 21 38 3 0
BITMAP
000200
000700
000F80
001F80
007E00
00FC00
007000
002000
000000
000000
FC00F8
FC00F8
FE00F8
FE00F8
FF00F8
FF00F8
FF80F8
FFC0F8
FBC0F8
FBE0F8
F9E0F8
F9F0F8
F8F0F8
F8F8F8
F878F8
F87C78
F83C78
F83E78
F81E78
F81F78
F80F78
F807F8
F807F8
F803F8
F803F8
F801F8
F801F8
F800F8
ENDCHAR
STARTCHAR 0144
ENCODING 324
SWIDTH 576 0
DWIDTH 24 0
BBX 18 34 3 0
BITMAP
000400
000E00
001F00
003F80
003E00
007C00
00F800
01F000
00E000
004000
000000
000000
000000
007C00
F1FF00
F3FF00
F7FF80
FF1F80
FE0F80
FC07C0
F807C0
F807C0
F807C0
F807C0
F807C0
F807C0
F807C0
F807C0
F807C0
F807C0
F807C0
F807C0
F807C0
F807C0
ENDCHAR
STARTCHAR 0145
ENCODING 325
SWIDTH 672 0
DWIDTH 28 0
BBX 21 37 3 -9
BITMAP
FC00F8
FC00F8
FE00F8
FE00F8
FF00F8
FF00F8
FF80F8
FFC0F8
FBC0F8
FBE0F8
F9E0F8
F9F0F8
F8F0F8
F8F8F8
F878F8
F87C78
F83C78
F83E78
F81E78
F81F78
F80F78
F807F8
F807F8
F803F8
F803F8
F801F8
F801F8
F800F8
000000
000000
007000
007C00
009E00
001E00
003C00
01FC00
01E000
ENDCHAR
STARTCHAR 0146
ENCODING 326
SWIDTH 576 0
DWIDTH 24 0
BBX 18 30 3 -9
BITMAP
007C00
F1FF00
F3FF00
F7FF80
FF1F80
FE0F80
FC07C0
F807C0
F807C0
F807C0
F807C0
F807C0
F807C0
F807C0
F807C0
F807C0
F807C0
F807C0
F807C0
F807C0
F807C0
000000
000000
01C000
03F000
00F800
007800
00F000
07E000
078000
ENDCHAR
STARTCHAR 0147
ENCODING 327
SWIDTH 672 0
DWIDTH 28 0
BBX 21 36 3 0
BITMAP
060100
0F03C0
078F80
03FF00
01FE00
00FC00
000000
000000
FC00F8
FC00F8
FE00F8
FE00F8
FF00F8
FF00F8
FF80F8
FFC0F8
FBC0F8
FBE0F8
F9E0F8
F9F0F8
F8F0F8
F8F8F8
F878F8
F87C78
F83C78
F83E78
F81E78
F81F78
F80F78
F807F8
F807F8
F803F8
F803F8
F801F8
F801F8
F800F8
ENDCHAR
STARTCHAR 0148
ENCODING 328
SWIDTH 576 0
DWIDTH 24 0
BBX 18 31 3 0
BITMAP
080200
1C0780
3F0F00
0FBE00
07FC00
03F800
01F000
000000
000000
000000
007C00
F1FF00
F3FF00
F7FF80
FF1F80
FE0F80
FC07C0
F807C0
F807C0
F807C0
F807C0
F807C0
F807C0
F807C0
F807C0
F807C0
F807C0
F807C0
F807C0
F807C0
F807C0
ENDCHAR
STARTCHAR 0149
ENCODING 329
SWIDTH 816 0
DWIDTH 34 0
BBX 28 30 3 0
BITMAP
78000000
F8000000
FC000000
FC000000
FC000000
7C000000
1C000000
1C000000
1C000000
38001F80
781E3FC0
F01EFFE0
C01FFFE0
001FC3F0
001F81F0
001F01F0
001F01F0
001E01F0
001E01F0
001E01F0
001E01F0
001E01F0
001E01F0
001E01F0
001E01F0
001E01F0
001E01F0
001E01F0
001E01F0
001E01F0
ENDCHAR
STARTCHAR 014A
ENCODING 330
SWIDTH 648 0
DWIDTH 27 0
BBX 22 28 3 0
BITMAP
F83F00
F8FFC0
FBFFE0
FFFFF0
FF83F0
FE01F8
FC00F8
F800FC
F8007C
F8007C
F8007C
F8007C
F8007C
F8007C
F8007C
F8007C
F8007C
F8007C
F8007C
F8007C
F8007C
F800F8
F800F8
F801F8
F81FF0
F81FF0
F81FE0
F81F80
ENDCHAR
STARTCHAR 014B
ENCODING 331
SWIDTH 576 0
DWIDTH 24 0
BBX 18 28 3 -8
BITMAP
F0FC00
F1FF00
F7FF00
FFFF80
FF1F80
FC0F80
F807C0
F807C0
F807C0
F807C0
F807C0
F807C0
F807C0
F807C0
F807C0
F807C0
F807C0
F807C0
F807C0
F807C0
0007C0
0007C0
0007C0
000F80
00FF80
00FF80
00FF00
00FC00
ENDCHAR
STARTCHAR 014C
ENCODING 332
SWIDTH 672 0
DWIDTH 28 0
BBX 24 33 2 0
BITMAP
03FFC0
03FFC0
03FFC0
000000
000000
007F00
03FFC0
07FFF0
0FFFF8
1FC1FC
3F00FC
3E007E
7C003E
7C003F
7C001F
F8001F
F8001F
F8001F
F8001F
F8001F
F8001F
F8001F
F8001F
7C001F
7C003F
7E003E
3E007E
3F00FC
1FC1FC
0FFFF8
07FFF0
03FFC0
007F00
ENDCHAR
STARTCHAR 014D
ENCODING 333
SWIDTH 552 0
DWIDTH 23 0
BBX 19 28 2 0
BITMAP
0FFE00
0FFE00
0FFE00
000000
000000
000000
000000
000000
03F800
0FFE00
1FFF00
3FFF80
7E0FC0
7C07C0
F803E0
F803E0
F803E0
F803E0
F803E0
F803E0
F803E0
F803E0
7C07C0
7E0FC0
3FFF80
1FFF00
0FFE00
03F800
ENDCHAR
STARTCHAR 014E
ENCODING 334
SWIDTH 672 0
DWIDTH 28 0
BBX 24 36 2 0
BITMAP
0380E0
0381C0
03C3C0
01FFC0
00FF80
007E00
000000
000000
007F00
03FFC0
07FFF0
0FFFF8
1FC1FC
3F00FC
3E007E
7C003E
7C003F
7C001F
F8001F
F8001F
F8001F
F8001F
F8001F
F8001F
F8001F
F8001F
7C001F
7C003F
7E003E
3E007E
3F00FC
1FC1FC
0FFFF8
07FFF0
03FFC0
007F00
ENDCHAR
STARTCHAR 014F
ENCODING 335
SWIDTH 552 0
DWIDTH 23 0
BBX 19 31 2 0
BITMAP
1C0700
1C0700
1C0700
1F1F00
0FFE00
07FC00
01F000
000000
000000
000000
000000
03F800
0FFE00
1FFF00
3FFF80
7E0FC0
7C07C0
F803E0
F803E0
F803E0
F803E0
F803E0
F803E0
F803E0
F803E0
7C07C0
7E0FC0
3FFF80
1FFF00
0FFE00
03F800
ENDCHAR
STARTCHAR 0150
ENCODING 336
SWIDTH 672 0
DWIDTH 28 0
BBX 24 38 2 0
BITMAP
001020
003C38
003C7C
0078F0
0070F0
00F1E0
01E1C0
004280
000000
000000
007F00
03FFC0
07FFF0
0FFFF8
1FC1FC
3F00FC
3E007E
7C003E
7C003F
7C001F
F8001F
F8001F
F8001F
F8001F
F8001F
F8001F
F8001F
F8001F
7C001F
7C003F
7E003E
3E007E
3F00FC
1FC1FC
0FFFF8
07FFF0
03FFC0
007F00
ENDCHAR
STARTCHAR 0151
ENCODING 337
SWIDTH 552 0
DWIDTH 23 0
BBX 19 33 2 0
BITMAP
008000
00F180
01E3E0
01E3C0
03C780
038780
078F00
070E00
030600
000000
000000
000000
000000
03F800
0FFE00
1FFF00
3FFF80
7E0FC0
7C07C0
F803E0
F803E0
F803E0
F803E0
F803E0
F803E0
F803E0
F803E0
7C07C0
7E0FC0
3FFF80
1FFF00
0FFE00
03F800
ENDCHAR
STARTCHAR 0152
ENCODING 338
SWIDTH 864 0
DWIDTH 36 0
BBX 32 28 2 0
BITMAP
007FFFFF
01FFFFFF
07FFFFFF
0FFFFFFF
1FE0F800
3F80F800
3E00F800
7E00F800
7C00F800
7C00F800
F800F800
F800F800
F800FFFC
F800FFFC
F800FFFC
F800FFFC
F800F800
F800F800
7C00F800
7C00F800
7E00F800
3E00F800
3F80F800
1FE0F800
0FFFFFFF
07FFFFFF
01FFFFFF
007FFFFF
ENDCHAR
STARTCHAR 0153
ENCODING 339
SWIDTH 840 0
DWIDTH 35 0
BBX 31 20 2 0
BITMAP
03F007C0
0FFC1FF0
1FFE3FF8
3FFF7FFC
7E1FF83E
7C07E01E
F807E01E
F803C01E
F803FFFE
F803FFFE
F803FFFE
F803C000
F803E000
F807E000
7C07F008
7E1FF818
3FFF7FFC
1FFE3FFC
0FFC1FFA
03F007E0
ENDCHAR
STARTCHAR 0154
ENCODING 340
SWIDTH 600 0
DWIDTH 25 0
BBX 21 38 3 0
BITMAP
000400
000E00
003E00
007F00
00FC00
01F800
00E000
004000
000000
000000
FFFC00
FFFF00
FFFFC0
FFFFE0
F807E0
F803E0
F801F0
F801F0
F801F0
F801F0
F801F0
F803E0
F80FE0
FFFFC0
FFFFC0
FFFF00
FFFC00
F83E00
F83F00
F81F00
F81F80
F80F80
F807C0
F807C0
F803E0
F803F0
F801F0
F801F8
ENDCHAR
STARTCHAR 0155
ENCODING 341
SWIDTH 384 0
DWIDTH 16 0
BBX 14 34 3 0
BITMAP
0020
0070
00F8
00FC
01F8
03E0
07C0
0F80
0700
0200
0000
0000
0000
00F8
F1F8
F3F0
F7F0
F700
FE00
FC00
F800
F800
F800
F800
F800
F800
F800
F800
F800
F800
F800
F800
F800
F800
ENDCHAR
STARTCHAR 0156
ENCODING 342
SWIDTH 600 0
DWIDTH 25 0
BBX 21 37 3 -9
BITMAP
FFFC00
FFFF00
FFFFC0
FFFFE0
F807E0
F803E0
F801F0
F801F0
F801F0
F801F0
F801F0
F803E0
F80FE0
FFFFC0
FFFFC0
FFFF00
FFFC00
F83E00
F83F00
F81F00
F81F80
F80F80
F807C0
F807C0
F803E0
F803F0
F801F0
F801F8
000000
000000
00E000
00F800
013C00
003C00
007C00
03F800
03C000
ENDCHAR
STARTCHAR 0157
ENCODING 343
SWIDTH 384 0
DWIDTH 16 0
BBX 15 30 1 -9
BITMAP
003E
3C7E
3CFC
3DFC
3DC0
3F80
3F00
3E00
3E00
3E00
3E00
3E00
3E00
3E00
3E00
3E00
3E00
3E00
3E00
3E00
3E00
0000
0000
3C00
3E00
0F00
0F00
0F00
FE00
F000
ENDCHAR
STARTCHAR 0158
ENCODING 344
SWIDTH 600 0
DWIDTH 25 0
BBX 21 36 3 0
BITMAP
0C0200
1E0F00
0F1E00
07BC00
03F800
01F800
000000
000000
FFFC00
FFFF00
FFFFC0
FFFFE0
F807E0
F803E0
F801F0
F801F0
F801F0
F801F0
F801F0
F803E0
F80FE0
FFFFC0
FFFFC0
FFFF00
FFFC00
F83E00
F83F00
F81F00
F81F80
F80F80
F807C0
F807C0
F803E0
F803F0
F801F0
F801F8
ENDCHAR
STARTCHAR 0159
ENCODING 345
SWIDTH 384 0
DWIDTH 16 0
BBX 14 31 3 0
BITMAP
4018
E03C
F878
7DF0
3FE0
1FE0
0FC0
0000
0000
0000
00F8
F1F8
F3F0
F7F0
F700
FE00
FC00
F800
F800
F800
F800
F800
F800
F800
F800
F800
F800
F800
F800
F800
F800
ENDCHAR
STARTCHAR 015A
ENCODING 346
SWIDTH 552 0
DWIDTH 23 0
BBX 19 38 2 0
BITMAP
000400
000E00
001F00
003F00
007C00
01F800
00F000
004000
000000
000000
01FC00
0FFF00
1FFFC0
3FFFE0
3F07C0
7C0180
7C0000
7C0000
7C0000
7E0000
7F8000
3FE000
1FF800
0FFF00
03FF80
00FFC0
003FE0
000FE0
0003E0
0003E0
0003E0
2003E0
7803E0
FE0FC0
FFFFC0
7FFF80
1FFE00
03F800
ENDCHAR
STARTCHAR 015B
ENCODING 347
SWIDTH 432 0
DWIDTH 18 0
BBX 16 34 1 0
BITMAP
0008
001C
003E
007F
007C
00F8
01F0
03E0
01C0
0080
0000
0000
0000
0000
07F0
1FFC
3FFE
3FFE
7C1C
7C08
7C00
7E00
3FC0
1FF8
07FC
00FE
003F
001F
201F
783F
FFFE
7FFE
3FF8
07E0
ENDCHAR
STARTCHAR 015C
ENCODING 348
SWIDTH 552 0
DWIDTH 23 0
BBX 19 36 2 0
BITMAP
01F800
03FC00
07FE00
0F1F00
1E0780
040200
000000
000000
01FC00
0FFF00
1FFFC0
3FFFE0
3F07C0
7C0180
7C0000
7C0000
7C0000
7E0000
7F8000
3FE000
1FF800
0FFF00
03FF80
00FFC0
003FE0
000FE0
0003E0
0003E0
0003E0
2003E0
7803E0
FE0FC0
FFFFC0
7FFF80
1FFE00
03F800
ENDCHAR
STARTCHAR 015D
ENCODING 349
SWIDTH 432 0
DWIDTH 18 0
BBX 16 31 1 0
BITMAP
03E0
07F0
0FF8
1F7C
3E1E
780F
1004
0000
0000
0000
0000
07F0
1FFC
3FFE
3FFE
7C1C
7C08
7C00
7E00
3FC0
1FF8
07FC
00FE
003F
001F
201F
783F
FFFE
7FFE
3FF8
07E0
ENDCHAR
STARTCHAR 015E
ENCODING 350
SWIDTH 552 0
DWIDTH 23 0
BBX 19 38 2 -10
BITMAP
01FC00
0FFF00
1FFFC0
3FFFE0
3F07C0
7C0180
7C0000
7C0000
7C0000
7E0000
7F8000
3FE000
1FF800
0FFF00
03FF80
00FFC0
003FE0
000FE0
0003E0
0003E0
0003E0
2003E0
7803E0
FE0FC0
FFFFC0
7FFF80
1FFE00
03F800
00E000
00E000
01C000
01F000
02F800
003800
003800
00F800
07F000
038000
ENDCHAR
STARTCHAR 015F
ENCODING 351
SWIDTH 432 0
DWIDTH 18 0
BBX 16 30 1 -10
BITMAP
07F0
1FFC
3FFE
3FFE
7C1C
7C08
7C00
7E00
3FC0
1FF8
07FC
00FE
003F
001F
201F
783F
FFFE
7FFE
3FF8
07E0
01C0
01C0
0380
03E0
05F0
0070
0070
01F0
0FE0
0700
ENDCHAR
STARTCHAR 0160
ENCODING 352
SWIDTH 552 0
DWIDTH 23 0
BBX 19 36 2 0
BITMAP
040200
1E0780
0F1F00
07FE00
03FC00
01F800
000000
000000
01FC00
0FFF00
1FFFC0
3FFFE0
3F07C0
7C0180
7C0000
7C0000
7C0000
7E0000
7F8000
3FE000
1FF800
0FFF00
03FF80
00FFC0
003FE0
000FE0
0003E0
0003E0
0003E0
2003E0
7803E0
FE0FC0
FFFFC0
7FFF80
1FFE00
03F800
ENDCHAR
STARTCHAR 0161
ENCODING 353
SWIDTH 432 0
DWIDTH 18 0
BBX 16 31 1 0
BITMAP
1004
380E
7E1F
1F7C
0FF8
07F0
03E0
0000
0000
0000
0000
07F0
1FFC
3FFE
3FFE
7C1C
7C08
7C00
7E00
3FC0
1FF8
07FC
00FE
003F
001F
201F
783F
FFFE
7FFE
3FF8
07E0
ENDCHAR
STARTCHAR 0162
ENCODING 354
SWIDTH 552 0
DWIDTH 23 0
BBX 21 38 1 -10
BITMAP
FFFFF8
FFFFF8
FFFFF8
FFFFF8
00F800
00F800
00F800
00F800
00F800
00F800
00F800
00F800
00F800
00F800
00F800
00F800
00F800
00F800
00F800
00F800
00F800
00F800
00F800
00F800
00F800
00F800
00F800
00F800
007000
007000
00E000
00F000
017C00
003C00
003C00
007C00
03F800
03C000
ENDCHAR
STARTCHAR 0163
ENCODING 355
SWIDTH 360 0
DWIDTH 15 0
BBX 14 37 1 -10
BITMAP
0F00
1F00
1F00
1F00
1F00
1F00
1F00
FFF8
FFF8
FFF8
FFF8
1F00
1F00
1F00
1F00
1F00
1F00
1F00
1F00
1F00
1F00
1F00
1F80
1FF8
0FF8
07F8
03FC
01C0
01C0
0380
03E0
05F0
0070
0070
01F0
0FE0
0700
ENDCHAR
STARTCHAR 0164
ENCODING 356
SWIDTH 552 0
DWIDTH 23 0
BBX 21 36 1 0
BITMAP
060300
0F0780
078F00
03DE00
01FC00
01FC00
000000
000000
FFFFF8
FFFFF8
FFFFF8
FFFFF8
00F800
00F800
00F800
00F800
00F800
00F800
00F800
00F800
00F800
00F800
00F800
00F800
00F800
00F800
00F800
00F800
00F800
00F800
00F800
00F800
00F800
00F800
00F800
00F800
ENDCHAR
STARTCHAR 0165
ENCODING 357
SWIDTH 360 0
DWIDTH 15 0
BBX 14 32 1 0
BITMAP
0038
0038
0038
0038
0038
0F38
1F38
1F38
1F38
1F00
1F00
1F00
FFF8
FFF8
FFF8
FFF8
1F00
1F00
1F00
1F00
1F00
1F00
1F00
1F00
1F00
1F00
1F00
1F80
1FF8
0FF8
07F8
03FC
ENDCHAR
STARTCHAR 0166
ENCODING 358
SWIDTH 552 0
DWIDTH 23 0
BBX 21 28 1 0
BITMAP
FFFFF8
FFFFF8
FFFFF8
FFFFF8
00F800
00F800
00F800
00F800
00F800
00F800
00F800
00F800
00F800
1FFFC0
1FFFC0
00F800
00F800
00F800
00F800
00F800
00F800
00F800
00F800
00F800
00F800
00F800
00F800
00F800
ENDCHAR
STARTCHAR 0167
ENCODING 359
SWIDTH 360 0
DWIDTH 15 0
BBX 14 27 1 0
BITMAP
0F00
1F00
1F00
1F00
1F00
1F00
1F00
FFF8
FFF8
FFF8
FFF8
1F00
1F00
1F00
1F00
FFF8
FFF8
1F00
1F00
1F00
1F00
1F00
1F80
1FF8
0FF8
07F8
03FC
ENDCHAR
STARTCHAR 0168
ENCODING 360
SWIDTH 672 0
DWIDTH 28 0
BBX 21 35 3 0
BITMAP
07E1E0
0FF1C0
1FFFC0
1C3F80
1C1F00
000000
000000
F800F8
F800F8
F800F8
F800F8
F800F8
F800F8
F800F8
F800F8
F800F8
F800F8
F800F8
F800F8
F800F8
F800F8
F800F8
F800F8
F800F8
F800F8
7800F8
7C00F8
7C00F8
7C01F0
3E01F0
3F07E0
1FFFE0
0FFFC0
07FF80
01FC00
ENDCHAR
STARTCHAR 0169
ENCODING 361
SWIDTH 552 0
DWIDTH 23 0
BBX 17 30 3 0
BITMAP
060000
3F8700
3FC700
7BFF00
70FE00
703C00
000000
000000
000000
000000
F80F80
F80F80
F80F80
F80F80
F80F80
F80F80
F80F80
F80F80
F80F80
F80F80
F80F80
F80F80
F80F80
F80F80
F81F80
FC3F80
7FFF80
7FF780
3FE780
1F8000
ENDCHAR
STARTCHAR 016A
ENCODING 362
SWIDTH 672 0
DWIDTH 28 0
BBX 21 33 3 0
BITMAP
07FF80
07FF80
07FF80
000000
000000
F800F8
F800F8
F800F8
F800F8
F800F8
F800F8
F800F8
F800F8
F800F8
F800F8
F800F8
F800F8
F800F8
F800F8
F800F8
F800F8
F800F8
F800F8
7800F8
7C00F8
7C00F8
7C01F0
3E01F0
3F07E0
1FFFE0
0FFFC0
07FF80
01FC00
ENDCHAR
STARTCHAR 016B
ENCODING 363
SWIDTH 552 0
DWIDTH 23 0
BBX 17 28 3 0
BITMAP
1FFE00
1FFE00
1FFE00
000000
000000
000000
000000
000000
F80F80
F80F80
F80F80
F80F80
F80F80
F80F80
F80F80
F80F80
F80F80
F80F80
F80F80
F80F80
F80F80
F80F80
F81F80
FC3F80
7FFF80
7FF780
3FE780
1F8000
ENDCHAR
STARTCHAR 016C
ENCODING 364
SWIDTH 672 0
DWIDTH 28 0
BBX 21 36 3 0
BITMAP
0E0380
0F0380
078780
07FF00
03FE00
00FC00
000000
000000
F800F8
F800F8
F800F8
F800F8
F800F8
F800F8
F800F8
F800F8
F800F8
F800F8
F800F8
F800F8
F800F8
F800F8
F800F8
F800F8
F800F8
F800F8
7800F8
7C00F8
7C00F8
7C01F0
3E01F0
3F07E0
1FFFE0
0FFFC0
07FF80
01FC00
ENDCHAR
STARTCHAR 016D
ENCODING 365
SWIDTH 552 0
DWIDTH 23 0
BBX 17 31 3 0
BITMAP
380700
380E00
3C0E00
1E1E00
1FFC00
0FF800
03F000
000000
000000
000000
000000
F80F80
F80F80
F80F80
F80F80
F80F80
F80F80
F80F80
F80F80
F80F80
F80F80
F80F80
F80F80
F80F80
F80F80
F81F80
FC3F80
7FFF80
7FF780
3FE780
1F8000
ENDCHAR
STARTCHAR 016E
ENCODING 366
SWIDTH 672 0
DWIDTH 28 0
BBX 21 37 3 0
BITMAP
00F800
01FC00
018E00
038600
038600
018E00
01FC00
00F800
000000
F800F8
F800F8
F800F8
F800F8
F800F8
F800F8
F800F8
F800F8
F800F8
F800F8
F800F8
F800F8
F800F8
F800F8
F800F8
F800F8
F800F8
F800F8
7800F8
7C00F8
7C00F8
7C01F0
3E01F0
3F07E0
1FFFE0
0FFFC0
07FF80
01FC00
ENDCHAR
STARTCHAR 016F
ENCODING 367
SWIDTH 552 0
DWIDTH 23 0
BBX 17 32 3 0
BITMAP
03E000
07F800
0E3800
0E1C00
0E1C00
0E1C00
0E3800
07F800
03E000
000000
000000
000000
F80F80
F80F80
F80F80
F80F80
F80F80
F80F80
F80F80
F80F80
F80F80
F80F80
F80F80
F80F80
F80F80
F80F80
F81F80
FC3F80
7FFF80
7FF780
3FE780
1F8000
ENDCHAR
STARTCHAR 0170
ENCODING 368
SWIDTH 672 0
DWIDTH 28 0
BBX 21 38 3 0
BITMAP
006040
0070F0
00F8F0
00F1E0
01E3C0
03C380
038780
018300
000000
000000
F800F8
F800F8
F800F8
F800F8
F800F8
F800F8
F800F8
F800F8
F800F8
F800F8
F800F8
F800F8
F800F8
F800F8
F800F8
F800F8
F800F8
F800F8
7800F8
7C00F8
7C00F8
7C01F0
3E01F0
3F07E0
1FFFE0
0FFFC0
07FF80
01FC00
ENDCHAR
STARTCHAR 0171
ENCODING 369
SWIDTH 552 0
DWIDTH 23 0
BBX 18 33 3 0
BITMAP
018000
01E380
03C3C0
03C780
078700
078F00
070E00
0E1E00
020C00
000000
000000
000000
000000
F80F80
F80F80
F80F80
F80F80
F80F80
F80F80
F80F80
F80F80
F80F80
F80F80
F80F80
F80F80
F80F80
F80F80
F81F80
FC3F80
7FFF80
7FF780
3FE780
1F8000
ENDCHAR
STARTCHAR 0172
ENCODING 370
SWIDTH 672 0
DWIDTH 28 0
BBX 21 37 3 -9
BITMAP
F800F8
F800F8
F800F8
F800F8
F800F8
F800F8
F800F8
F800F8
F800F8
F800F8
F800F8
F800F8
F800F8
F800F8
F800F8
F800F8
F800F8
F800F8
7800F8
7C00F8
7C00F8
7C01F0
3E01F0
3F07E0
1FFFE0
0FFFC0
07FF80
01FE00
003800
007000
00E000
00E000
01E000
01F200
00FE00
00FF00
003C00
ENDCHAR
STARTCHAR 0173
ENCODING 371
SWIDTH 552 0
DWIDTH 23 0
BBX 18 29 3 -9
BITMAP
F80F80
F80F80
F80F80
F80F80
F80F80
F80F80
F80F80
F80F80
F80F80
F80F80
F80F80
F80F80
F80F80
F80F80
F81F80
FC3F80
7FFF80
7FF780
3FE780
1F8700
000E00
001C00
001C00
003C00
003C00
003C80
003FC0
001FC0
000F80
ENDCHAR
STARTCHAR 0174
ENCODING 372
SWIDTH 816 0
DWIDTH 34 0
BBX 32 36 1 0
BITMAP
0007E000
000FF000
001FF800
003C7800
00781C00
00300800
00000000
00000000
F803C01F
F807C01F
F807E01E
F807E01E
7C07E03E
7C07E03E
7C0FF03E
7C0FF03C
7C0EF03C
3C0EF03C
3E1E787C
3E1E787C
3E1E7878
3E1C7878
1E3C7878
1E3C3C78
1E3C3CF8
1F3C3CF8
1F383CF0
0F781EF0
0F781EF0
0F781EF0
0F701EF0
0FF01FE0
07F00FE0
07F00FE0
07E00FE0
07E00FE0
ENDCHAR
STARTCHAR 0175
ENCODING 373
SWIDTH 744 0
DWIDTH 31 0
BBX 29 31 1 0
BITMAP
000FC000
001FE000
003FE000
007CF000
00F87800
00E03C00
00401800
00000000
00000000
00000000
00000000
F80F8078
F80F8078
780FC0F8
7C0FC0F8
7C1FC0F0
3C1DC0F0
3C1DE1F0
3E1DE1E0
3E3CE1E0
1E3CF1E0
1E38F3E0
1F38F3C0
1F78F3C0
0F787BC0
0F707BC0
0F707F80
07F03F80
07F03F80
07E03F80
07E03F00
ENDCHAR
STARTCHAR 0176
ENCODING 374
SWIDTH 504 0
DWIDTH 21 0
BBX 21 36 0 0
BITMAP
01FC00
01FC00
03DE00
078F00
0F0780
060300
000000
000000
F800F8
7C01F8
7C01F0
7C01F0
3E03E0
3E03E0
1F07C0
1F07C0
0F8780
0F8F80
078F00
07DF00
03DE00
03FE00
01FC00
01FC00
00F800
00F800
00F800
00F800
00F800
00F800
00F800
00F800
00F800
00F800
00F800
00F800
ENDCHAR
STARTCHAR 0177
ENCODING 375
SWIDTH 504 0
DWIDTH 21 0
BBX 20 40 0 -9
BITMAP
00FC00
01FC00
03FE00
07DF00
0F8780
0E03C0
040100
000000
000000
000000
000000
FC01F0
7C01F0
3C01E0
3E01E0
3E03E0
1E03C0
1F03C0
0F07C0
0F0780
0F8780
078F80
078F00
03CF00
03CF00
03DE00
01FE00
01FE00
01FC00
00FC00
00FC00
007800
00F800
00F000
01F000
03E000
3FE000
3FC000
3F8000
3E0000
ENDCHAR
STARTCHAR 0178
ENCODING 376
SWIDTH 504 0
DWIDTH 21 0
BBX 21 35 0 0
BITMAP
0F0780
0F0780
0F8F80
0F0780
0F0780
000000
000000
F800F8
7C01F8
7C01F0
7C01F0
3E03E0
3E03E0
1F07C0
1F07C0
0F8780
0F8F80
078F00
07DF00
03DE00
03FE00
01FC00
01FC00
00F800
00F800
00F800
00F800
00F800
00F800
00F800
00F800
00F800
00F800
00F800
00F800
ENDCHAR
STARTCHAR 0179
ENCODING 377
SWIDTH 552 0
DWIDTH 23 0
BBX 19 38 2 0
BITMAP
000400
000E00
001F00
003F00
00FC00
01F800
00E000
004000
000000
000000
7FFFE0
7FFFE0
7FFFE0
7FFFE0
0007C0
000F80
001F80
001F00
003F00
007E00
007C00
00FC00
00F800
01F000
03F000
03E000
07C000
0FC000
0F8000
1F8000
1F0000
3E0000
7E0000
7C0000
FFFFE0
FFFFE0
FFFFE0
FFFFE0
ENDCHAR
STARTCHAR 017A
ENCODING 378
SWIDTH 456 0
DWIDTH 19 0
BBX 17 34 1 0
BITMAP
000800
001C00
001E00
003F00
007E00
00FC00
01F800
03F000
01C000
008000
000000
000000
000000
000000
3FFF00
3FFF00
3FFF00
3FFF00
003E00
007C00
00FC00
00F800
01F000
03E000
07E000
07C000
0F8000
1F0000
3F0000
3E0000
7FFF80
FFFF80
FFFF80
FFFF80
ENDCHAR
STARTCHAR 017B
ENCODING 379
SWIDTH 552 0
DWIDTH 23 0
BBX 19 36 2 0
BITMAP
00F000
01F000
01F800
01F800
01F000
00F000
000000
000000
7FFFE0
7FFFE0
7FFFE0
7FFFE0
0007C0
000F80
001F80
001F00
003F00
007E00
007C00
00FC00
00F800
01F000
03F000
03E000
07C000
0FC000
0F8000
1F8000
1F0000
3E0000
7E0000
7C0000
FFFFE0
FFFFE0
FFFFE0
FFFFE0
ENDCHAR
STARTCHAR 017C
ENCODING 380
SWIDTH 456 0
DWIDTH 19 0
BBX 17 30 1 0
BITMAP
01E000
03E000
03F000
03F000
03E000
01E000
000000
000000
000000
000000
3FFF00
3FFF00
3FFF00
3FFF00
003E00
007C00
00FC00
00F800
01F000
03E000
07E000
07C000
0F8000
1F0000
3F0000
3E0000
7FFF80
FFFF80
FFFF80
FFFF80
ENDCHAR
STARTCHAR 017D
ENCODING 381
SWIDTH 552 0
DWIDTH 23 0
BBX 19 36 2 0
BITMAP
0C0200
1E0780
0F1F00
07FE00
03FC00
01F800
000000
000000
7FFFE0
7FFFE0
7FFFE0
7FFFE0
0007C0
000F80
001F80
001F00
003F00
007E00
007C00
00FC00
00F800
01F000
03F000
03E000
07C000
0FC000
0F8000
1F8000
1F0000
3E0000
7E0000
7C0000
FFFFE0
FFFFE0
FFFFE0
FFFFE0
ENDCHAR
STARTCHAR 017E
ENCODING 382
SWIDTH 456 0
DWIDTH 19 0
BBX 17 31 1 0
BITMAP
100200
3C0F00
1E1E00
1F3C00
0FFC00
07F800
03F000
000000
000000
000000
000000
3FFF00
3FFF00
3FFF00
3FFF00
003E00
007C00
00FC00
00F800
01F000
03E000
07E000
07C000
0F8000
1F0000
3F0000
3E0000
7FFF80
FFFF80
FFFF80
FFFF80
ENDCHAR
STARTCHAR 0180
ENCODING 384
SWIDTH 552 0
DWIDTH 23 0
BBX 22 30 0 0
BITMAP
1F0000
1F0000
1F0000
FFFE00
FFFE00
1F0000
1F0000
1F0000
1F0000
1F1F80
1F7FC0
1FFFE0
1FFFF0
1FE1F8
1F80F8
1F00F8
1F007C
1F007C
1F007C
1F007C
1F007C
1F007C
1F00F8
1F00F8
1F81F8
1FC3F0
1FFFF0
1EFFE0
1E7FC0
001F00
ENDCHAR
STARTCHAR 018F
ENCODING 399
SWIDTH 672 0
DWIDTH 28 0
BBX 24 28 2 0
BITMAP
00FF00
03FFC0
0FFFF0
1FFFF8
0F83F8
0E00FC
08007E
00003E
00003E
00001F
00001F
00001F
00001F
FFFFFF
FFFFFF
FFFFFF
FFFFFF
F8001F
78001E
7C003E
7C003E
3E007C
3F00FC
1F81F8
1FFFF8
0FFFE0
03FFC0
00FF00
ENDCHAR
STARTCHAR 0192
ENCODING 402
SWIDTH 528 0
DWIDTH 22 0
BBX 19 32 1 -4
BITMAP
0007C0
001FE0
003FE0
007FC0
007C40
00F800
00F800
00F800
00F800
00F000
00F000
0FFF80
0FFF80
0FFF80
0FFF80
01F000
01F000
01F000
01E000
01E000
01E000
03E000
03E000
03E000
03E000
03C000
07C000
0FC000
7F8000
FF8000
FF0000
7C0000
ENDCHAR
STARTCHAR 0193
ENCODING 403
SWIDTH 624 0
DWIDTH 26 0
BBX 24 34 2 0
BITMAP
00001F
00007F
00007F
0000FF
0000F8
0000F0
007FF0
01FFF0
07FFF8
0FFFF8
1FC0F0
3F8020
3E0000
7E0000
7C0000
7C0000
F80000
F80000
F80000
F80FFC
F80FFC
F80FFC
F80FFC
F8007C
7C007C
7C007C
7E007C
3E007C
3F007C
1FC0FC
0FFFFC
07FFF8
01FFE0
007F80
ENDCHAR
STARTCHAR 01A0
ENCODING 416
SWIDTH 672 0
DWIDTH 28 0
BBX 25 34 2 0
BITMAP
00000300
00000F80
00000780
00000780
00000780
00000F80
007F0F00
03FFFE00
07FFFC00
0FFFF800
1FC1FC00
3F00FC00
3E007E00
7C003E00
7C003F00
7C001F00
F8001F00
F8001F00
F8001F00
F8001F00
F8001F00
F8001F00
F8001F00
FC001F00
7C001F00
7C003F00
7E003E00
3E007E00
3F00FC00
1FC1FC00
0FFFF800
07FFF000
03FFC000
007F0000
ENDCHAR
STARTCHAR 01A1
ENCODING 417
SWIDTH 552 0
DWIDTH 23 0
BBX 21 28 2 0
BITMAP
000010
0000F0
000078
000078
000078
000078
0000F0
03F9F0
0FFFC0
1FFF00
3FFF80
7E0FC0
7C07C0
F803E0
F803E0
F803E0
F803E0
F803E0
F803E0
F803E0
F803E0
F803E0
7C07C0
7E0FC0
3FFF80
1FFF00
0FFE00
03F800
ENDCHAR
STARTCHAR 01AF
ENCODING 431
SWIDTH 672 0
DWIDTH 28 0
BBX 26 35 3 0
BITMAP
000001C0
000003C0
000003C0
000003C0
000003C0
000003C0
000007C0
F800FF80
F800FE00
F800F800
F800F800
F800F800
F800F800
F800F800
F800F800
F800F800
F800F800
F800F800
F800F800
F800F800
F800F800
F800F800
F800F800
F800F800
F800F800
7800F800
7C00F800
7C00F800
7C01F000
3E01F000
3F07E000
1FFFE000
0FFFC000
07FF8000
01FC0000
ENDCHAR
STARTCHAR 01B0
ENCODING 432
SWIDTH 552 0
DWIDTH 23 0
BBX 21 28 3 0
BITMAP
000018
000078
000078
000078
000078
000078
000078
0000F0
F80FE0
F80FC0
F80F80
F80F80
F80F80
F80F80
F80F80
F80F80
F80F80
F80F80
F80F80
F80F80
F80F80
F80F80
F81F80
FC3F80
7FFF80
7FF780
3FE780
1F8780
ENDCHAR
STARTCHAR 01C2
ENCODING 450
SWIDTH 312 0
DWIDTH 13 0
BBX 13 42 0 -11
BITMAP
0700
0700
0700
0700
0700
0700
0700
0700
0700
0700
0700
0700
0700
0700
0700
FFF8
FFF8
0700
0700
0700
0700
0700
0700
FFF8
FFF8
0700
0700
0700
0700
0700
0700
0700
0700
0700
0700
0700
0700
0700
0700
0700
0700
0700
ENDCHAR
STARTCHAR 01CD
ENCODING 461
SWIDTH 552 0
DWIDTH 23 0
BBX 24 36 0 0
BITMAP
030080
0783C0
03C780
01EF00
00FF00
007E00
000000
000000
007E00
00FE00
00FE00
00FF00
01EF00
01EF00
01EF80
03E780
03C780
03C7C0
07C3C0
0783C0
0783E0
0783E0
0F81E0
0F01F0
0FFFF0
1FFFF0
1FFFF0
1FFFF8
3E00F8
3E0078
3C007C
7C007C
7C007C
7C003E
F8003E
F8003F
ENDCHAR
STARTCHAR 01CE
ENCODING 462
SWIDTH 528 0
DWIDTH 22 0
BBX 17 31 2 0
BITMAP
080200
3C0700
1E1F00
0FBE00
07FC00
03F800
03F000
000000
000000
000000
000000
03F800
1FFC00
7FFE00
7FFF00
3C1F00
200F80
000F80
007F80
07FF80
1FFF80
7F8F80
7C0F80
F80F80
F80F80
F81F80
FC3F80
FFFF80
7FF780
3FE780
1F8000
ENDCHAR
STARTCHAR 01CF
ENCODING 463
SWIDTH 288 0
DWIDTH 12 0
BBX 14 36 -1 0
BITMAP
2010
F03C
78F8
3FF0
1FE0
0FC0
0000
0000
0F80
0F80
0F80
0F80
0F80
0F80
0F80
0F80
0F80
0F80
0F80
0F80
0F80
0F80
0F80
0F80
0F80
0F80
0F80
0F80
0F80
0F80
0F80
0F80
0F80
0F80
0F80
0F80
ENDCHAR
STARTCHAR 01D0
ENCODING 464
SWIDTH 264 0
DWIDTH 11 0
BBX 15 31 -2 0
BITMAP
2008
701C
F83E
3EF8
1FF0
0FE0
07C0
0000
0000
0000
0000
07C0
07C0
07C0
07C0
07C0
07C0
07C0
07C0
07C0
07C0
07C0
07C0
07C0
07C0
07C0
07C0
07C0
07C0
07C0
07C0
ENDCHAR
STARTCHAR 01D1
ENCODING 465
SWIDTH 672 0
DWIDTH 28 0
BBX 24 36 2 0
BITMAP
0100C0
0781E0
01E3C0
01FF80
00FF00
007E00
000000
000000
007F00
03FFC0
07FFF0
0FFFF8
1FC1FC
3F00FC
3E007E
7C003E
7C003F
7C001F
F8001F
F8001F
F8001F
F8001F
F8001F
F8001F
F8001F
F8001F
7C001F
7C003F
7E003E
3E007E
3F00FC
1FC1FC
0FFFF8
07FFF0
03FFC0
007F00
ENDCHAR
STARTCHAR 01D2
ENCODING 466
SWIDTH 552 0
DWIDTH 23 0
BBX 19 31 2 0
BITMAP
080200
1C0700
3E0F80
0FBE00
07FC00
03F800
01F000
000000
000000
000000
000000
03F800
0FFE00
1FFF00
3FFF80
7E0FC0
7C07C0
F803E0
F803E0
F803E0
F803E0
F803E0
F803E0
F803E0
F803E0
7C07C0
7E0FC0
3FFF80
1FFF00
0FFE00
03F800
ENDCHAR
STARTCHAR 01D3
ENCODING 467
SWIDTH 672 0
DWIDTH 28 0
BBX 21 36 3 0
BITMAP
060100
0F0780
078F00
03DF00
01FE00
00FC00
000000
000000
F800F8
F800F8
F800F8
F800F8
F800F8
F800F8
F800F8
F800F8
F800F8
F800F8
F800F8
F800F8
F800F8
F800F8
F800F8
F800F8
F800F8
F800F8
7800F8
7C00F8
7C00F8
7C01F0
3E01F0
3F07E0
1FFFE0
0FFFC0
07FF80
01FC00
ENDCHAR
STARTCHAR 01D4
ENCODING 468
SWIDTH 552 0
DWIDTH 23 0
BBX 17 31 3 0
BITMAP
100600
380F00
3E1E00
1F7C00
0FF800
07F000
03F000
000000
000000
000000
000000
F80F80
F80F80
F80F80
F80F80
F80F80
F80F80
F80F80
F80F80
F80F80
F80F80
F80F80
F80F80
F80F80
F80F80
F81F80
FC3F80
7FFF80
7FF780
3FE780
1F8000
ENDCHAR
STARTCHAR 01D5
ENCODING 469
SWIDTH 672 0
DWIDTH 28 0
BBX 21 39 3 0
BITMAP
07FF80
07FF80
000000
000000
070380
0F0780
0F8780
0F0780
070380
000000
000000
F800F8
F800F8
F800F8
F800F8
F800F8
F800F8
F800F8
F800F8
F800F8
F800F8
F800F8
F800F8
F800F8
F800F8
F800F8
F800F8
F800F8
F800F8
7800F8
7C00F8
7C00F8
7C01F0
3E01F0
3F07E0
1FFFE0
0FFFC0
07FF80
01FC00
ENDCHAR
STARTCHAR 01D6
ENCODING 470
SWIDTH 552 0
DWIDTH 23 0
BBX 17 34 3 0
BITMAP
1FFE00
1FFE00
000000
000000
000000
1C0C00
3C1E00
3E1E00
3C1E00
1C0C00
000000
000000
000000
000000
F80F80
F80F80
F80F80
F80F80
F80F80
F80F80
F80F80
F80F80
F80F80
F80F80
F80F80
F80F80
F80F80
F80F80
F81F80
FC3F80
7FFF80
7FF780
3FE780
1F8000
ENDCHAR
STARTCHAR 01D7
ENCODING 471
SWIDTH 672 0
DWIDTH 28 0
BBX 21 42 3 0
BITMAP
000C00
000E00
001F00
003C00
003800
007000
002000
070380
0F0780
0F8780
0F0780
070380
000000
000000
F800F8
F800F8
F800F8
F800F8
F800F8
F800F8
F800F8
F800F8
F800F8
F800F8
F800F8
F800F8
F800F8
F800F8
F800F8
F800F8
F800F8
F800F8
7800F8
7C00F8
7C00F8
7C01F0
3E01F0
3F07E0
1FFFE0
0FFFC0
07FF80
01FC00
ENDCHAR
STARTCHAR 01D8
ENCODING 472
SWIDTH 552 0
DWIDTH 23 0
BBX 17 36 3 0
BITMAP
002000
007800
00F000
00E000
01C000
008000
000000
1C0C00
3C1E00
3E1E00
3C1E00
1C0C00
000000
000000
000000
000000
F80F80
F80F80
F80F80
F80F80
F80F80
F80F80
F80F80
F80F80
F80F80
F80F80
F80F80
F80F80
F80F80
F80F80
F81F80
FC3F80
7FFF80
7FF780
3FE780
1F8000
ENDCHAR
STARTCHAR 01D9
ENCODING 473
SWIDTH 672 0
DWIDTH 28 0
BBX 21 42 3 0
BITMAP
020300
070780
03CF00
03FE00
01FC00
00F800
000000
070380
0F0780
0F8780
0F0780
070380
000000
000000
F800F8
F800F8
F800F8
F800F8
F800F8
F800F8
F800F8
F800F8
F800F8
F800F8
F800F8
F800F8
F800F8
F800F8
F800F8
F800F8
F800F8
F800F8
7800F8
7C00F8
7C00F8
7C01F0
3E01F0
3F07E0
1FFFE0
0FFFC0
07FF80
01FC00
ENDCHAR
STARTCHAR 01DA
ENCODING 474
SWIDTH 552 0
DWIDTH 23 0
BBX 17 36 3 0
BITMAP
080C00
1E1E00
0F7800
07F000
03E000
000000
000000
1C0C00
3C1E00
3E1E00
3C1E00
1C0C00
000000
000000
000000
000000
F80F80
F80F80
F80F80
F80F80
F80F80
F80F80
F80F80
F80F80
F80F80
F80F80
F80F80
F80F80
F80F80
F80F80
F81F80
FC3F80
7FFF80
7FF780
3FE780
1F8000
ENDCHAR
STARTCHAR 01DB
ENCODING 475
SWIDTH 672 0
DWIDTH 28 0
BBX 21 42 3 0
BITMAP
008000
03C000
03C000
01E000
00F000
007800
002000
070380
0F0780
0F8780
0F0780
070380
000000
000000
F800F8
F800F8
F800F8
F800F8
F800F8
F800F8
F800F8
F800F8
F800F8
F800F8
F800F8
F800F8
F800F8
F800F8
F800F8
F800F8
F800F8
F800F8
7800F8
7C00F8
7C00F8
7C01F0
3E01F0
3F07E0
1FFFE0
0FFFC0
07FF80
01FC00
ENDCHAR
STARTCHAR 01DC
ENCODING 476
SWIDTH 552 0
DWIDTH 23 0
BBX 17 36 3 0
BITMAP
030000
070000
078000
03C000
01C000
00E000
000000
1C0C00
3C1E00
3E1E00
3C1E00
1C0C00
000000
000000
000000
000000
F80F80
F80F80
F80F80
F80F80
F80F80
F80F80
F80F80
F80F80
F80F80
F80F80
F80F80
F80F80
F80F80
F80F80
F81F80
FC3F80
7FFF80
7FF780
3FE780
1F8000
ENDCHAR
STARTCHAR 01E2
ENCODING 482
SWIDTH 840 0
DWIDTH 35 0
BBX 33 34 0 0
BITMAP
00007FF800
00007FF800
00007FF800
0000000000
0000000000
0000000000
0007FFFF00
0007FFFF00
000FFFFF00
000FFFFF00
001F780000
001F780000
003E780000
003E780000
007C780000
007C780000
00F8780000
00F8780000
01F07FFE00
01F07FFE00
03F07FFE00
03E07FFE00
03E0780000
07FFF80000
07FFF80000
0FFFF80000
0FFFF80000
1F00780000
1F00780000
3E00780000
3E007FFF80
7C007FFF80
7C007FFF80
F8007FFF80
ENDCHAR
STARTCHAR 01E3
ENCODING 483
SWIDTH 792 0
DWIDTH 33 0
BBX 29 28 2 0
BITMAP
007FF800
007FF800
007FF800
00000000
00000000
00000000
00000000
00000000
03F01F00
1FF87FC0
7FFCFFE0
7FFFFFF0
3C1FE0F8
300FC078
000F8078
007F8078
07FFFFF8
1FFFFFF8
3F8FFFF8
7C0F8000
F80F8000
F8078000
F80FC020
FC3FF070
7FFFFFF0
7FF9FFF8
3FF0FFE0
0F803F80
ENDCHAR
STARTCHAR 01E6
ENCODING 486
SWIDTH 624 0
DWIDTH 26 0
BBX 22 36 2 0
BITMAP
008060
03C0F0
00F1E0
00FFC0
007F80
003F00
000000
000000
007F80
01FFE0
07FFF0
0FFFF8
1FC0F0
3F8030
3E0000
7E0000
7C0000
7C0000
F80000
F80000
F80000
F80FFC
F80FFC
F80FFC
F80FFC
F8007C
7C007C
7C007C
7E007C
3E007C
3F007C
1FC0FC
0FFFFC
07FFF8
01FFE0
007F80
ENDCHAR
STARTCHAR 01E7
ENCODING 487
SWIDTH 528 0
DWIDTH 22 0
BBX 19 40 2 -9
BITMAP
080200
1C0700
3E0F80
0FBE00
07FC00
03F800
01F000
000000
000000
000000
000000
07FFE0
1FFFE0
3FFFE0
7FFFE0
7C1F00
F80F00
F80F00
F80F00
780F00
7C1F00
3FFF00
1FFE00
3FFC00
3FF000
780000
780000
780000
7FFF00
3FFFC0
1FFFE0
7FFFE0
F003E0
F001E0
F003E0
F80FE0
FFFFC0
7FFF80
3FFE00
0FF800
ENDCHAR
STARTCHAR 01EA
ENCODING 490
SWIDTH 672 0
DWIDTH 28 0
BBX 24 37 2 -9
BITMAP
007F00
03FFC0
07FFF0
0FFFF8
1FC1FC
3F00FC
3E007E
7C003E
7C003F
7C001F
F8001F
F8001F
F8001F
F8001F
F8001F
F8001F
F8001F
F8001F
7C001F
7C003F
7E003E
3E007E
3F00FC
1FC1F8
0FFFF8
07FFF0
03FFC0
00FF00
001C00
003800
007800
007800
007800
007900
007F80
003F80
001F00
ENDCHAR
STARTCHAR 01EB
ENCODING 491
SWIDTH 552 0
DWIDTH 23 0
BBX 19 29 2 -9
BITMAP
03F800
0FFE00
1FFF00
3FFF80
7E0FC0
7C07C0
F803E0
F803E0
F803E0
F803E0
F803E0
F803E0
F803E0
F803E0
7C07C0
7E0FC0
3FFF80
1FFF00
0FFE00
03F800
00E000
01C000
01C000
01C000
03C000
03C800
01FC00
01FC00
00F800
ENDCHAR
STARTCHAR 01F4
ENCODING 500
SWIDTH 624 0
DWIDTH 26 0
BBX 22 38 2 0
BITMAP
000080
0001C0
0003E0
0007F0
000FC0
003F00
001E00
000800
000000
000000
007F80
01FFE0
07FFF0
0FFFF8
1FC0F0
3F8030
3E0000
7E0000
7C0000
7C0000
F80000
F80000
F80000
F80FFC
F80FFC
F80FFC
F80FFC
F8007C
7C007C
7C007C
7E007C
3E007C
3F007C
1FC0FC
0FFFFC
07FFF8
01FFE0
007F80
ENDCHAR
STARTCHAR 01F5
ENCODING 501
SWIDTH 528 0
DWIDTH 22 0
BBX 19 43 2 -9
BITMAP
000400
000E00
001F00
003F80
003E00
007C00
00F800
01F000
00E000
004000
000000
000000
000000
000000
07FFE0
1FFFE0
3FFFE0
7FFFE0
7C1F00
F80F00
F80F00
F80F00
780F00
7C1F00
3FFF00
1FFE00
3FFC00
3FF000
780000
780000
780000
7FFF00
3FFFC0
1FFFE0
7FFFE0
F003E0
F001E0
F003E0
F80FE0
FFFFC0
7FFF80
3FFE00
0FF800
ENDCHAR
STARTCHAR 01F8
ENCODING 504
SWIDTH 672 0
DWIDTH 28 0
BBX 21 38 3 0
BITMAP
010000
038000
07C000
0FE000
03F000
00FC00
007800
001000
000000
000000
FC00F8
FC00F8
FE00F8
FE00F8
FF00F8
FF00F8
FF80F8
FFC0F8
FBC0F8
FBE0F8
F9E0F8
F9F0F8
F8F0F8
F8F8F8
F878F8
F87C78
F83C78
F83E78
F81E78
F81F78
F80F78
F807F8
F807F8
F803F8
F803F8
F801F8
F801F8
F800F8
ENDCHAR
STARTCHAR 01F9
ENCODING 505
SWIDTH 576 0
DWIDTH 24 0
BBX 18 34 3 0
BITMAP
040000
0E0000
1F0000
1F8000
0FC000
07C000
03E000
01F000
00E000
004000
000000
000000
000000
007C00
F1FF00
F3FF00
F7FF80
FF1F80
FE0F80
FC07C0
F807C0
F807C0
F807C0
F807C0
F807C0
F807C0
F807C0
F807C0
F807C0
F807C0
F807C0
F807C0
F807C0
F807C0
ENDCHAR
STARTCHAR 01FC
ENCODING 508
SWIDTH 840 0
DWIDTH 35 0
BBX 33 39 0 0
BITMAP
0000002000
0000007000
000000F800
000001FC00
000003F000
00000FC000
0000078000
0000020000
0000000000
0000000000
0000000000
0007FFFF00
0007FFFF00
000FFFFF00
000FFFFF00
001F780000
001F780000
003E780000
003E780000
007C780000
007C780000
00F8780000
00F8780000
01F07FFE00
01F07FFE00
03F07FFE00
03E07FFE00
03E0780000
07FFF80000
07FFF80000
0FFFF80000
0FFFF80000
1F00780000
1F00780000
3E00780000
3E007FFF80
7C007FFF80
7C007FFF80
F8007FFF80
ENDCHAR
STARTCHAR 01FD
ENCODING 509
SWIDTH 792 0
DWIDTH 33 0
BBX 29 34 2 0
BITMAP
00002000
00003800
00007C00
0000FC00
0001F800
0003F000
0003E000
0007C000
00038000
00010000
00000000
00000000
00000000
00000000
03F01F00
1FF87FC0
7FFCFFE0
7FFFFFF0
3C1FE0F8
300FC078
000F8078
007F8078
07FFFFF8
1FFFFFF8
3F8FFFF8
7C0F8000
F80F8000
F8078000
F80FC020
FC3FF070
7FFFFFF0
7FF9FFF8
3FF0FFE0
0F803F80
ENDCHAR
STARTCHAR 0218
ENCODING 536
SWIDTH 552 0
DWIDTH 23 0
BBX 19 37 2 -9
BITMAP
01FC00
0FFF00
1FFFC0
3FFFE0
3F07C0
7C0180
7C0000
7C0000
7C0000
7E0000
7F8000
3FE000
1FF800
0FFF00
03FF80
00FFC0
003FE0
000FE0
0003E0
0003E0
0003E0
2003E0
7803E0
FE0FC0
FFFFC0
7FFF80
1FFE00
03F800
000000
000000
00E000
01F800
007800
003800
007800
07F000
03C000
ENDCHAR
STARTCHAR 0219
ENCODING 537
SWIDTH 432 0
DWIDTH 18 0
BBX 16 29 1 -9
BITMAP
07F0
1FFC
3FFE
3FFE
7C1C
7C08
7C00
7E00
3FC0
1FF8
07FC
00FE
003F
001F
201F
783F
FFFE
7FFE
3FF8
07E0
0000
0000
01C0
03F0
00F0
0070
00F0
0FE0
0F00
ENDCHAR
STARTCHAR 021A
ENCODING 538
SWIDTH 552 0
DWIDTH 23 0
BBX 21 37 1 -9
BITMAP
FFFFF8
FFFFF8
FFFFF8
FFFFF8
00F800
00F800
00F800
00F800
00F800
00F800
00F800
00F800
00F800
00F800
00F800
00F800
00F800
00F800
00F800
00F800
00F800
00F800
00F800
00F800
00F800
00F800
00F800
00F800
000000
000000
00F000
00FC00
003C00
001C00
003C00
03F800
03C000
ENDCHAR
STARTCHAR 021B
ENCODING 539
SWIDTH 360 0
DWIDTH 15 0
BBX 14 36 1 -9
BITMAP
0F00
1F00
1F00
1F00
1F00
1F00
1F00
FFF8
FFF8
FFF8
FFF8
1F00
1F00
1F00
1F00
1F00
1F00
1F00
1F00
1F00
1F00
1F00
1F80
1FF8
0FF8
07F8
03FC
0000
0000
03C0
03E0
00F0
00F0
00F0
0FE0
0F00
ENDCHAR
STARTCHAR 0237
ENCODING 567
SWIDTH 264 0
DWIDTH 11 0
BBX 10 29 -2 -9
BITMAP
07C0
07C0
07C0
07C0
07C0
07C0
07C0
07C0
07C0
07C0
07C0
07C0
07C0
07C0
07C0
07C0
07C0
07C0
07C0
07C0
07C0
07C0
07C0
07C0
0FC0
7F80
7F80
FF00
FC00
ENDCHAR
STARTCHAR 0243
ENCODING 579
SWIDTH 624 0
DWIDTH 26 0
BBX 23 28 1 0
BITMAP
1FFF00
1FFFE0
1FFFF0
1FFFF8
1F01FC
1F007C
1F007C
1F007C
1F007C
1F00F8
1F01F8
1FFFF0
1FFF80
1FFFF0
1FFFF8
1F00FC
1F003E
1F003E
FFFC1E
FFFC1E
1F001E
1F003E
1F007E
1F00FE
1FFFFC
1FFFF8
1FFFE0
1FFF80
ENDCHAR
STARTCHAR 0250
ENCODING 592
SWIDTH 528 0
DWIDTH 22 0
BBX 17 20 3 0
BITMAP
F0FC00
F3FE00
F7FF00
FFFF80
FE1F80
FC0F80
F80F80
F81F00
FBFF00
FFFE00
FFF800
FFE000
FC0000
F80000
F80200
FE0F00
7FFF00
3FFF80
1FFC00
07F000
ENDCHAR
STARTCHAR 0251
ENCODING 593
SWIDTH 576 0
DWIDTH 24 0
BBX 19 20 2 0
BITMAP
03E1E0
0FF9E0
1FFFE0
3FFFE0
7F0FE0
7C07E0
FC03E0
F803E0
F803E0
F803E0
F803E0
F803E0
F803E0
F803E0
FC07E0
7E1FE0
7FFFE0
3FFFE0
1FF9E0
07E000
ENDCHAR
STARTCHAR 0252
ENCODING 594
SWIDTH 576 0
DWIDTH 24 0
BBX 19 20 3 0
BITMAP
F0FC00
F3FF00
F7FF80
FFFF80
FF0FC0
FC07C0
F807E0
F803E0
F803E0
F803E0
F803E0
F803E0
F803E0
F807C0
FC0FC0
FE1F80
FFFF80
FFFF00
F3FE00
00F800
ENDCHAR
STARTCHAR 0253
ENCODING 595
SWIDTH 576 0
DWIDTH 24 0
BBX 19 30 3 0
BITMAP
07E000
1FF000
3FE000
7FE000
7E2000
FC0000
F80000
F80000
F80000
F80000
F8FC00
FBFF00
FFFF80
FFFF80
FE0FC0
FC07C0
F807E0
F803E0
F803E0
F803E0
F803E0
F803E0
F803E0
F807C0
F80FC0
FE1F80
FFFF80
FFFF00
F7FE00
01F800
ENDCHAR
STARTCHAR 0254
ENCODING 596
SWIDTH 456 0
DWIDTH 19 0
BBX 17 20 1 0
BITMAP
0FC000
7FF000
FFFC00
7FFE00
307E00
203F00
001F00
001F00
000F80
000F80
000F80
000F80
001F00
001F00
403F00
707E00
7FFE00
FFFC00
7FF000
0FC000
ENDCHAR
STARTCHAR 0255
ENCODING 597
SWIDTH 456 0
DWIDTH 19 0
BBX 17 22 2 -2
BITMAP
01F800
0FFE00
1FFF00
3FFE00
7F0E00
7C0400
F80000
F80000
F07C00
F1FE00
FBFF00
FFFF00
FF8F80
FF0780
7E0780
3F0F00
3FFF00
7FFE00
7FFE00
F9F800
F00000
300000
ENDCHAR
STARTCHAR 0256
ENCODING 598
SWIDTH 576 0
DWIDTH 24 0
BBX 23 38 2 -8
BITMAP
0003E0
0003E0
0003E0
0003E0
0003E0
0003E0
0003E0
0003E0
0003E0
0003E0
03E3E0
0FFBE0
1FFFE0
3FFFE0
7F0FE0
7C07E0
FC03E0
F803E0
F803E0
F803E0
F803E0
F803E0
F803E0
F803E0
FC07E0
7E1FE0
7FFFE0
3FFFE0
1FFBE0
07E3E0
0003E0
0003E0
0003E0
0003E0
0003FC
0001FC
0000FE
00007E
ENDCHAR
STARTCHAR 0257
ENCODING 599
SWIDTH 576 0
DWIDTH 24 0
BBX 23 30 2 0
BITMAP
00003E
0000FE
0001FC
0001FC
0003E0
0003E0
0003E0
0003E0
0003E0
0003E0
03E3E0
0FFBE0
1FFFE0
3FFFE0
7F0FE0
7C07E0
FC03E0
F803E0
F803E0
F803E0
F803E0
F803E0
F803E0
F803E0
FC07E0
7E1FE0
7FFFE0
3FFFE0
1FF9E0
07E000
ENDCHAR
STARTCHAR 0258
ENCODING 600
SWIDTH 504 0
DWIDTH 21 0
BBX 18 20 2 0
BITMAP
07E000
1FFC00
3FFE00
7FFF00
FC1F00
F80F80
F00F80
F00780
FFFF80
FFFFC0
FFFFC0
000780
000F80
000F80
401F80
703F00
7FFE00
FFFE00
3FF800
0FE000
ENDCHAR
STARTCHAR 0259
ENCODING 601
SWIDTH 504 0
DWIDTH 21 0
BBX 18 20 2 0
BITMAP
07E000
3FFC00
7FFE00
7FFF00
383F00
201F80
000F80
000780
000780
FFFFC0
FFFFC0
FFFFC0
F00780
F00F80
F00F80
FC3F00
7FFF00
3FFE00
1FF800
07E000
ENDCHAR
STARTCHAR 025A
ENCODING 602
SWIDTH 672 0
DWIDTH 28 0
BBX 27 20 2 0
BITMAP
07F00000
3FFC0000
7FFE1000
3FFF3E00
383FFE00
200FFE00
001FEE40
007F8FE0
03FFC7E0
0FF7C3C0
7F87C000
FE078000
F0078000
F00F8000
F80F8000
7C3F0000
7FFE0000
3FFE0000
1FF80000
07F00000
ENDCHAR
STARTCHAR 025B
ENCODING 603
SWIDTH 456 0
DWIDTH 19 0
BBX 16 20 2 0
BITMAP
07F0
1FFC
3FFE
7FFE
7E0C
7C00
3E00
3FF0
0FF0
3FF0
7FF0
FC00
F800
F800
F804
FE0E
7FFE
3FFF
1FFE
07F8
ENDCHAR
STARTCHAR 025C
ENCODING 604
SWIDTH 480 0
DWIDTH 20 0
BBX 17 20 1 0
BITMAP
0FF000
3FFC00
7FFE00
3FFE00
383F00
001E00
003E00
0FFC00
0FF000
0FFC00
0FFE00
003F00
000F00
000F80
201F80
383F00
7FFF00
7FFE00
BFFC00
0FE000
ENDCHAR
STARTCHAR 025E
ENCODING 606
SWIDTH 552 0
DWIDTH 23 0
BBX 20 20 2 0
BITMAP
07F800
1FFE00
3FFF00
7FFF80
7E0FC0
7C07E0
3E03E0
3FE3E0
0FE1F0
3FE1F0
7FE1F0
FC01F0
F803E0
F803E0
F807E0
FC0FC0
7FFFC0
3FFF80
1FFE00
07F800
ENDCHAR
STARTCHAR 025F
ENCODING 607
SWIDTH 288 0
DWIDTH 12 0
BBX 13 29 -1 -9
BITMAP
07C0
07C0
07C0
07C0
07C0
07C0
07C0
07C0
7FF8
7FF8
07C0
07C0
07C0
07C0
07C0
07C0
07C0
07C0
07C0
07C0
07C0
07C0
07C0
0F80
0F80
FF80
FF00
FF00
FC00
ENDCHAR
STARTCHAR 0260
ENCODING 608
SWIDTH 576 0
DWIDTH 24 0
BBX 23 36 2 -9
BITMAP
00003E
0000FE
0001FE
0001FC
0003F0
0003E0
0003E0
03E3E0
0FFBE0
1FFFE0
3FFFE0
7F0FE0
7C07E0
FC03E0
F803E0
F803E0
F803E0
F803E0
F803E0
F803E0
FC03E0
7C07E0
7E0FE0
3FFFE0
3FFFE0
0FFBE0
07E3E0
0003E0
0003E0
0003E0
2007C0
3C0FC0
3FFF80
7FFF80
1FFE00
03F800
ENDCHAR
STARTCHAR 0261
ENCODING 609
SWIDTH 576 0
DWIDTH 24 0
BBX 19 29 2 -9
BITMAP
03E1E0
0FF9E0
1FFFE0
3FFFE0
7F0FE0
7C07E0
FC03E0
F803E0
F803E0
F803E0
F803E0
F803E0
F803E0
FC03E0
7C07E0
7E0FE0
3FFFE0
3FFFE0
0FFBE0
07E3E0
0003E0
0003E0
0003E0
2007C0
3C0FC0
3FFF80
7FFF80
1FFE00
03F800
ENDCHAR
STARTCHAR 0262
ENCODING 610
SWIDTH 504 0
DWIDTH 21 0
BBX 17 20 2 0
BITMAP
01F800
0FFE00
1FFF80
3FFF00
7F0700
7C0200
FC0000
F80000
F87F80
F87F80
F87F80
F87F80
F80780
F80780
7C0780
7F0780
3FFF80
1FFF80
0FFF00
01FC00
ENDCHAR
STARTCHAR 0263
ENCODING 611
SWIDTH 504 0
DWIDTH 21 0
BBX 20 29 0 -9
BITMAP
FC01F0
7C01F0
7C01E0
3E03E0
3E03E0
1E03C0
1F07C0
1F0780
0F0780
0F8F80
078F00
078F00
07DE00
03DE00
03FE00
01FC00
01FC00
01FC00
01FC00
03DE00
03DE00
078F00
078F00
078F00
078F00
07FF00
03FE00
03FE00
00F800
ENDCHAR
STARTCHAR 0264
ENCODING 612
SWIDTH 552 0
DWIDTH 23 0
BBX 21 20 1 0
BITMAP
7C03F0
FF0FF8
FFDFF0
7FFFF0
87FE10
01FC00
03FC00
07FE00
0FDF00
0F8F80
1F07C0
1E07C0
1E03C0
1E03C0
1F07C0
1F0FC0
1FFF80
0FFF80
07FF00
01FC00
ENDCHAR
STARTCHAR 0265
ENCODING 613
SWIDTH 576 0
DWIDTH 24 0
BBX 17 29 3 -9
BITMAP
F80780
F80780
F80780
F80780
F80780
F80780
F80780
F80780
F80780
F80780
F80780
F80780
F80780
F80780
F80F80
FC3F80
7FFF80
7FFF80
3FF780
1FC780
000780
000780
000780
000780
000780
000780
000780
000780
000780
ENDCHAR
STARTCHAR 0266
ENCODING 614
SWIDTH 552 0
DWIDTH 23 0
BBX 18 30 3 0
BITMAP
07E000
1FF000
3FE000
7FE000
7E2000
FC0000
F80000
F80000
F80000
F80000
F8FC00
FBFF00
FFFF00
FFFF80
FF1F80
FC0F80
F807C0
F807C0
F807C0
F807C0
F807C0
F807C0
F807C0
F807C0
F807C0
F807C0
F807C0
F807C0
F807C0
F807C0
ENDCHAR
STARTCHAR 0267
ENCODING 615
SWIDTH 552 0
DWIDTH 23 0
BBX 18 38 3 -8
BITMAP
07E000
1FF000
3FE000
7FE000
7E2000
FC0000
F80000
F80000
F80000
F80000
F8FC00
FBFF00
FFFF00
FFFF80
FF1F80
FC0F80
F807C0
F807C0
F807C0
F807C0
F807C0
F807C0
F807C0
F807C0
F807C0
F807C0
F807C0
F807C0
F807C0
F807C0
0007C0
0007C0
0007C0
000F80
00FF80
00FF00
00FF00
00FC00
ENDCHAR
STARTCHAR 0268
ENCODING 616
SWIDTH 288 0
DWIDTH 12 0
BBX 12 30 0 0
BITMAP
0F00
0F80
1F80
1F80
0F80
0F00
0000
0000
0000
0000
0F80
0F80
0F80
0F80
0F80
0F80
0F80
0F80
FFF0
FFF0
0F80
0F80
0F80
0F80
0F80
0F80
0F80
0F80
0F80
0F80
ENDCHAR
STARTCHAR 026A
ENCODING 618
SWIDTH 384 0
DWIDTH 16 0
BBX 11 20 2 0
BITMAP
FFE0
FFE0
FFE0
FFE0
1F00
1F00
1F00
1F00
1F00
1F00
1F00
1F00
1F00
1F00
1F00
1F00
FFE0
FFE0
FFE0
FFE0
ENDCHAR
STARTCHAR 026C
ENCODING 620
SWIDTH 336 0
DWIDTH 14 0
BBX 14 30 0 0
BITMAP
03E0
03E0
03E0
03E0
03E0
03E0
03E0
03E0
03E0
03E0
3BE0
FFE0
E7E0
C3E0
E3E0
FFFC
3FFC
03E0
03E0
03E0
03E0
03E0
03E0
03E0
03E0
03E0
03F8
03F8
01F8
00F8
ENDCHAR
STARTCHAR 026D
ENCODING 621
SWIDTH 264 0
DWIDTH 11 0
BBX 9 38 3 -8
BITMAP
F800
F800
F800
F800
F800
F800
F800
F800
F800
F800
F800
F800
F800
F800
F800
F800
F800
F800
F800
F800
F800
F800
F800
F800
F800
F800
F800
F800
F800
F800
F800
F800
F800
FC00
7F00
7F80
3F80
1F80
ENDCHAR
STARTCHAR 026E
ENCODING 622
SWIDTH 624 0
DWIDTH 26 0
BBX 22 39 3 -9
BITMAP
F80000
F80000
F80000
F80000
F80000
F80000
F80000
F80000
F80000
F80000
FFFFF8
FFFFF8
FFFFF8
FFFFF0
F801E0
F803E0
F807C0
F80F80
F80F00
F81F00
F83E00
F83C00
F87F80
F8FFE0
F8FFF0
F87FF8
F801F8
F800F8
F8007C
F8007C
00007C
00007C
0000F8
0300F8
0783F8
0FFFF0
07FFE0
01FFC0
007F00
ENDCHAR
STARTCHAR 026F
ENCODING 623
SWIDTH 840 0
DWIDTH 35 0
BBX 29 20 3 0
BITMAP
F80F8078
F80F8078
F80F8078
F80F8078
F80F8078
F80F8078
F80F8078
F80F8078
F80F8078
F80F8078
F80F8078
F80F8078
F80F8078
F80F80F8
F81FC1F8
FC7FC3F8
7FFFFFF8
7FF7FF78
3FE3FE78
1F80F800
ENDCHAR
STARTCHAR 0270
ENCODING 624
SWIDTH 840 0
DWIDTH 35 0
BBX 29 29 3 -9
BITMAP
F80F8078
F80F8078
F80F8078
F80F8078
F80F8078
F80F8078
F80F8078
F80F8078
F80F8078
F80F8078
F80F8078
F80F8078
F80F8078
F80F80F8
F81FC1F8
FC7FC3F8
7FFFFFF8
7FF7FF78
3FE3FE78
1F80F878
00000078
00000078
00000078
00000078
00000078
00000078
00000078
00000078
00000078
ENDCHAR
STARTCHAR 0271
ENCODING 625
SWIDTH 840 0
DWIDTH 35 0
BBX 30 28 3 -8
BITMAP
F0FC07C0
F3FE1FF0
F7FF3FF0
FFFFFFF8
FF1FF1F8
FC0FE0F8
F80FC07C
F80F807C
F80F807C
F80F807C
F80F807C
F80F807C
F80F807C
F80F807C
F80F807C
F80F807C
F80F807C
F80F807C
F80F807C
F80F807C
0000007C
0000007C
000000F8
000000F8
000007F8
000007F0
00000FF0
00000FC0
ENDCHAR
STARTCHAR 0272
ENCODING 626
SWIDTH 576 0
DWIDTH 24 0
BBX 22 28 -1 -8
BITMAP
0F0FC0
0F1FF0
0F7FF0
0FFFF8
0FF0F8
0FC0F8
0F807C
0F807C
0F807C
0F807C
0F807C
0F807C
0F807C
0F807C
0F807C
0F807C
0F807C
0F807C
0F807C
0F807C
0F8000
0F8000
0F8000
1F8000
7F0000
FF0000
FE0000
FC0000
ENDCHAR
STARTCHAR 0273
ENCODING 627
SWIDTH 576 0
DWIDTH 24 0
BBX 22 28 3 -8
BITMAP
F0FC00
F1FF00
F7FF00
FFFF80
FF1F80
FC0F80
F807C0
F807C0
F807C0
F807C0
F807C0
F807C0
F807C0
F807C0
F807C0
F807C0
F807C0
F807C0
F807C0
F807C0
0007C0
0007C0
0007C0
0007C0
0007F8
0003F8
0001FC
0000FC
ENDCHAR
STARTCHAR 0274
ENCODING 628
SWIDTH 552 0
DWIDTH 23 0
BBX 17 20 3 0
BITMAP
F80780
F80780
FC0780
FE0780
FE0780
FF0780
F78780
F78780
F3C780
F3C780
F9E780
F9F780
F8F780
F87F80
F87F80
F83F80
F83F80
F81F80
F80F80
F80F80
ENDCHAR
STARTCHAR 0275
ENCODING 629
SWIDTH 552 0
DWIDTH 23 0
BBX 19 20 2 0
BITMAP
03F800
0FFE00
1FFF00
3FFF80
7E0FC0
7803C0
F803E0
FFFFE0
FFFFE0
FFFFE0
FFFFE0
F001E0
F803E0
F803E0
7C07C0
7E0FC0
3FFF80
1FFF00
0FFE00
03F800
ENDCHAR
STARTCHAR 0276
ENCODING 630
SWIDTH 720 0
DWIDTH 30 0
BBX 27 20 2 0
BITMAP
01FFFFE0
0FFFFFE0
1FFFFFE0
3FFFFFE0
7F078000
7C078000
FC078000
F807FF80
F807FF80
F807FF80
F807FF80
F8078000
F8078000
FC078000
7C078000
7F078000
3FFFFFE0
1FFFFFE0
0FFFFFE0
01FE0000
ENDCHAR
STARTCHAR 0278
ENCODING 632
SWIDTH 720 0
DWIDTH 30 0
BBX 26 39 2 -9
BITMAP
001E0000
001E0000
001E0000
001E0000
001E0000
001E0000
001E0000
001E0000
001E0000
001E0000
01FFC000
07FFF800
1FFFFC00
3FFFFF00
7F1E3F00
7E1E1F80
FC1E0F80
F81E07C0
F81E07C0
F81E07C0
F81E07C0
F81E07C0
F81E07C0
FC1E0F80
7E1E1F80
7F1E3F00
3FFFFF00
1FFFFC00
07FFF800
01FFC000
001E0000
001E0000
001E0000
001E0000
001E0000
001E0000
001E0000
001E0000
001E0000
ENDCHAR
STARTCHAR 0279
ENCODING 633
SWIDTH 384 0
DWIDTH 16 0
BBX 13 20 0 0
BITMAP
00F8
00F8
00F8
00F8
00F8
00F8
00F8
00F8
00F8
00F8
00F8
00F8
00F8
01F8
03F8
07F8
7FF8
FEF8
FC78
F000
ENDCHAR
STARTCHAR 027A
ENCODING 634
SWIDTH 384 0
DWIDTH 16 0
BBX 13 30 0 0
BITMAP
00F8
00F8
00F8
00F8
00F8
00F8
00F8
00F8
00F8
00F8
00F8
00F8
00F8
00F8
00F8
00F8
00F8
00F8
00F8
00F8
00F8
00F8
01F8
01F8
03F8
07F8
7FF8
FEF8
FC78
F000
ENDCHAR
STARTCHAR 027B
ENCODING 635
SWIDTH 384 0
DWIDTH 16 0
BBX 17 28 0 -8
BITMAP
00F800
00F800
00F800
00F800
00F800
00F800
00F800
00F800
00F800
00F800
00F800
00F800
00F800
01F800
03F800
07F800
7FF800
FEF800
FCF800
F0F800
00F800
00F800
00F800
00F800
007F00
007F00
003F80
001F80
ENDCHAR
STARTCHAR 027D
ENCODING 637
SWIDTH 384 0
DWIDTH 16 0
BBX 13 28 3 -8
BITMAP
F0F8
F1F8
F3F0
F7F0
FF00
FC00
FC00
F800
F800
F800
F800
F800
F800
F800
F800
F800
F800
F800
F800
F800
F800
F800
F800
FC00
7F00
7F80
3F80
1F80
ENDCHAR
STARTCHAR 027E
ENCODING 638
SWIDTH 360 0
DWIDTH 15 0
BBX 12 20 3 0
BITMAP
07F0
1FF0
3FF0
7FE0
7E00
FC00
F800
F800
F800
F800
F800
F800
F800
F800
F800
F800
F800
F800
F800
F800
ENDCHAR
STARTCHAR 0280
ENCODING 640
SWIDTH 528 0
DWIDTH 22 0
BBX 18 20 3 0
BITMAP
FFF000
FFFC00
FFFE00
FFFF00
F83F00
F81F00
F81F00
F81F00
F83F00
FFFE00
FFFE00
FFF800
FFF800
F8F800
F87C00
F87E00
F83E00
F81F00
F81F80
F80FC0
ENDCHAR
STARTCHAR 0281
ENCODING 641
SWIDTH 528 0
DWIDTH 22 0
BBX 18 20 1 0
BITMAP
FC07C0
7C07C0
3E07C0
1F07C0
1F87C0
0F87C0
07FFC0
0FFFC0
1FFFC0
3FFFC0
3F07C0
3E07C0
7C07C0
7C07C0
3E07C0
3F07C0
3FFFC0
1FFFC0
0FFFC0
03FFC0
ENDCHAR
STARTCHAR 0282
ENCODING 642
SWIDTH 432 0
DWIDTH 18 0
BBX 16 28 1 -8
BITMAP
07F0
1FFC
3FFE
3FFE
7C1C
7C08
7C00
7E00
3FC0
1FF8
07FC
00FE
003F
001F
201F
783F
FFFE
FFFE
FFF8
FFE0
F000
F000
F800
F800
7F80
7F80
3F80
0F80
ENDCHAR
STARTCHAR 0283
ENCODING 643
SWIDTH 264 0
DWIDTH 11 0
BBX 15 39 -2 -9
BITMAP
007E
01FE
03FE
03FC
07E0
07C0
07C0
07C0
07C0
07C0
07C0
07C0
07C0
07C0
07C0
07C0
07C0
07C0
07C0
07C0
07C0
07C0
07C0
07C0
07C0
07C0
07C0
07C0
07C0
07C0
07C0
07C0
07C0
07C0
0FC0
7F80
7F80
FF00
FC00
ENDCHAR
STARTCHAR 0284
ENCODING 644
SWIDTH 288 0
DWIDTH 12 0
BBX 15 39 -1 -9
BITMAP
007C
01FE
03FC
07FC
07E0
07C0
07C0
07C0
07C0
07C0
07C0
07C0
07C0
07C0
07C0
07C0
07C0
07C0
7FF8
7FF8
07C0
07C0
07C0
07C0
07C0
07C0
07C0
07C0
07C0
07C0
07C0
07C0
07C0
0F80
0F80
FF80
FF00
FF00
FC00
ENDCHAR
STARTCHAR 0288
ENCODING 648
SWIDTH 360 0
DWIDTH 15 0
BBX 14 34 1 -8
BITMAP
0F00
1F00
1F00
1F00
1F00
1F00
FFF8
FFF8
FFF8
FFF8
1F00
1F00
1F00
1F00
1F00
1F00
1F00
1F00
1F00
1F00
1F00
1F00
1F00
1F00
1F00
1F00
1F00
1F00
1F00
1F80
1FF8
0FF8
07F8
03FC
ENDCHAR
STARTCHAR 0289
ENCODING 649
SWIDTH 600 0
DWIDTH 25 0
BBX 24 20 0 0
BITMAP
0F80F8
0F80F8
0F80F8
0F80F8
0F80F8
0F80F8
0F80F8
FFFFFF
FFFFFF
0F80F8
0F80F8
0F80F8
0F80F8
0F80F8
0F81F8
0FC3F8
0FFFF8
07FF78
03FE78
01F800
ENDCHAR
STARTCHAR 028A
ENCODING 650
SWIDTH 552 0
DWIDTH 23 0
BBX 21 20 1 0
BITMAP
FF8FF8
FF8FF8
FF8FF8
FF07F8
0E0380
1E03C0
3C01E0
3C01E0
7C01F0
7C01F0
7C01F0
7C01F0
7C01F0
7C01F0
7E03F0
3F07E0
1FFFC0
0FFFC0
07FF00
01FC00
ENDCHAR
STARTCHAR 028B
ENCODING 651
SWIDTH 552 0
DWIDTH 23 0
BBX 18 20 3 0
BITMAP
F87C00
F87F00
F87F00
F87F80
F80F80
F80FC0
F807C0
F807C0
F807C0
F807C0
F807C0
F807C0
F80F80
F80F80
FC1F80
7E3F00
7FFF00
3FFE00
1FFC00
07F000
ENDCHAR
STARTCHAR 028C
ENCODING 652
SWIDTH 504 0
DWIDTH 21 0
BBX 20 20 0 0
BITMAP
01F800
01FC00
01FC00
03FC00
03DE00
03DE00
079E00
079F00
078F00
0F0F80
0F0F80
1F0780
1F07C0
1E07C0
3E03C0
3E03E0
3C03E0
7C01E0
7C01F0
F801F0
ENDCHAR
STARTCHAR 028D
ENCODING 653
SWIDTH 744 0
DWIDTH 31 0
BBX 29 20 1 0
BITMAP
07E03F00
07E03F00
07F03F80
0FF07F80
0FF07F80
0F707780
0F7877C0
1E78F3C0
1E78F3C0
1E38F3E0
3E3CE3E0
3E3CE3E0
3C3DE1E0
3C1DC1F0
7C1DC1F0
7C1FC1F0
781FC0F0
780F80F8
F80F80F8
F80F80F8
ENDCHAR
STARTCHAR 028E
ENCODING 654
SWIDTH 504 0
DWIDTH 21 0
BBX 20 30 0 0
BITMAP
0003E0
000FE0
001FE0
003FE0
003E00
007C00
007800
00F800
00F800
00F000
01F800
01F800
01F800
03FC00
03FC00
03BC00
079E00
079E00
0F9F00
0F0F00
0F0F00
1F0F80
1E0780
1E07C0
3E07C0
3E03C0
3C03E0
7C03E0
7C01F0
F801F0
ENDCHAR
STARTCHAR 028F
ENCODING 655
SWIDTH 456 0
DWIDTH 19 0
BBX 19 20 0 0
BITMAP
F807E0
7C07C0
7C0780
3E0F80
3E0F00
1E1F00
1F1E00
0F3E00
0FBC00
07FC00
07F800
03F800
03F000
01F000
01F000
01F000
01F000
01F000
01F000
01F000
ENDCHAR
STARTCHAR 0290
ENCODING 656
SWIDTH 456 0
DWIDTH 19 0
BBX 20 28 1 -8
BITMAP
3FFF00
3FFF00
3FFF00
3FFF00
003E00
007C00
00F800
00F800
01F000
03E000
07E000
07C000
0F8000
1F0000
3F0000
3E0000
7FFF00
FFFF00
FFFF00
FFFF00
001F00
001F00
001F00
000F80
000FF0
000FF0
0007F0
0001F0
ENDCHAR
STARTCHAR 0291
ENCODING 657
SWIDTH 480 0
DWIDTH 20 0
BBX 20 23 1 -3
BITMAP
3FFF00
3FFF00
3FFF00
3FFE00
003C00
007C00
00F800
00F000
01F000
03E000
07C3C0
078FE0
0F9FE0
1F1C70
3E3870
3E30F0
7FFFE0
FFFFE0
FFFFC0
FFFF00
00E000
00C000
00C000
ENDCHAR
STARTCHAR 0292
ENCODING 658
SWIDTH 456 0
DWIDTH 19 0
BBX 18 29 0 -9
BITMAP
3FFF80
3FFF80
3FFF80
3FFF00
001E00
003C00
007C00
00F800
00F000
01E000
03C000
07F000
0FFE00
0FFF00
07FF00
043F80
000F80
000FC0
0007C0
0007C0
0007C0
0007C0
000F80
300F80
783F80
FFFF00
7FFE00
1FFC00
07F000
ENDCHAR
STARTCHAR 0294
ENCODING 660
SWIDTH 432 0
DWIDTH 18 0
BBX 17 30 0 0
BITMAP
07F000
1FFC00
7FFE00
FFFF00
F83F80
700F80
200F80
000F80
000780
000F80
000F80
000F80
001F00
003F00
007E00
00FC00
03F800
03F000
03E000
03E000
03E000
03E000
03E000
03E000
03E000
03E000
03E000
03E000
03E000
03E000
ENDCHAR
STARTCHAR 0295
ENCODING 661
SWIDTH 480 0
DWIDTH 20 0
BBX 17 30 2 0
BITMAP
07F000
1FFC00
3FFF00
7FFF80
FE0F80
F80700
F80200
F00000
F00000
F00000
F80000
F80000
FC0000
7E0000
3F0000
1F8000
0FE000
07E000
03E000
03E000
03E000
03E000
03E000
03E000
03E000
03E000
03E000
03E000
03E000
03E000
ENDCHAR
STARTCHAR 0298
ENCODING 664
SWIDTH 552 0
DWIDTH 23 0
BBX 18 30 2 0
BITMAP
01F000
07FC00
0FFE00
1FFF00
3F1F00
3E0F80
7C0780
7C07C0
7807C0
7803C0
F803C0
F803C0
F803C0
F8E3C0
F9F3C0
F9F3C0
F8E3C0
F803C0
F803C0
7803C0
7803C0
7807C0
7C07C0
7C0780
3E0F80
3F1F00
1FFF00
0FFE00
07FC00
03F000
ENDCHAR
STARTCHAR 0299
ENCODING 665
SWIDTH 528 0
DWIDTH 22 0
BBX 17 20 3 0
BITMAP
FFF800
FFFE00
FFFF00
FFFF00
F81F00
F80F00
F81F00
FFFE00
FFF800
FFFE00
FFFF00
F81F80
F80F80
F80F80
F80F80
F81F80
FFFF80
FFFF00
FFFE00
FFF800
ENDCHAR
STARTCHAR 029C
ENCODING 668
SWIDTH 576 0
DWIDTH 24 0
BBX 18 20 3 0
BITMAP
F807C0
F807C0
F807C0
F807C0
F807C0
F807C0
F807C0
FFFFC0
FFFFC0
FFFFC0
FFFFC0
F807C0
F807C0
F807C0
F807C0
F807C0
F807C0
F807C0
F807C0
F807C0
ENDCHAR
STARTCHAR 029D
ENCODING 669
SWIDTH 336 0
DWIDTH 14 0
BBX 18 42 -3 -12
BITMAP
007800
00FC00
00FC00
00FC00
00FC00
007800
000000
000000
000000
000000
007C00
007C00
007C00
007C00
007C00
007C00
007C00
007C00
007C00
007C00
007C00
007C00
007C00
007C00
007C00
007C00
007C00
007C00
007C00
1F7C00
7FFC00
7FF800
F1F800
F0FC00
F0FE00
FFFF00
7FFF00
3FEF80
1F87C0
0007C0
000380
000200
ENDCHAR
STARTCHAR 029F
ENCODING 671
SWIDTH 432 0
DWIDTH 18 0
BBX 14 20 3 0
BITMAP
F800
F800
F800
F800
F800
F800
F800
F800
F800
F800
F800
F800
F800
F800
F800
F800
FFFC
FFFC
FFFC
FFFC
ENDCHAR
STARTCHAR 02A1
ENCODING 673
SWIDTH 456 0
DWIDTH 19 0
BBX 19 30 0 0
BITMAP
03F800
1FFE00
3FFF00
7FFF80
FC1F80
300FC0
2007C0
0007C0
0007C0
0007C0
0007C0
000F80
001F00
003F00
007E00
00F800
FFFFE0
FFFFE0
FFFFE0
FFFFE0
03E000
03E000
03E000
03E000
03E000
03E000
03E000
03E000
03E000
03E000
ENDCHAR
STARTCHAR 02A2
ENCODING 674
SWIDTH 456 0
DWIDTH 19 0
BBX 18 30 1 0
BITMAP
03F800
0FFE00
3FFF00
3FFFC0
7E0F80
7C0300
F80100
F80000
F80000
F80000
7C0000
7C0000
3E0000
1F0000
0F8000
07E000
FFFFC0
FFFFC0
FFFFC0
FFFFC0
01F000
01F000
01F000
01F000
01F000
01F000
01F000
01F000
01F000
01F000
ENDCHAR
STARTCHAR 02B0
ENCODING 688
SWIDTH 384 0
DWIDTH 16 0
BBX 12 20 2 16
BITMAP
E000
E000
E000
E000
E000
E000
E3C0
EFE0
FFF0
F8F0
F0F0
E0F0
E0F0
E0F0
E0F0
E0F0
E0F0
E0F0
E0F0
E0F0
ENDCHAR
STARTCHAR 02B2
ENCODING 690
SWIDTH 192 0
DWIDTH 8 0
BBX 7 26 -1 10
BITMAP
1C
1E
1E
1C
00
00
1E
1E
1E
1E
1E
1E
1E
1E
1E
1E
1E
1E
1E
1E
1E
1C
1C
FC
FC
F0
ENDCHAR
STARTCHAR 02B3
ENCODING 691
SWIDTH 264 0
DWIDTH 11 0
BBX 9 14 2 16
BITMAP
E780
EF80
FF00
F800
F000
F000
F000
F000
F000
F000
F000
F000
F000
F000
ENDCHAR
STARTCHAR 02B7
ENCODING 695
SWIDTH 504 0
DWIDTH 21 0
BBX 20 14 1 16
BITMAP
E0E0F0
F0F0E0
F0F0E0
71F0E0
71B1C0
71B9C0
79B9C0
3BB9C0
3B9B80
3B1F80
3B1F80
1F1F80
1F0F00
1E0F00
ENDCHAR
STARTCHAR 02B8
ENCODING 696
SWIDTH 336 0
DWIDTH 14 0
BBX 14 19 0 11
BITMAP
F03C
7038
7838
3878
3870
1C70
1C70
1CE0
0EE0
0EE0
07C0
07C0
0780
0380
0780
0F00
3F00
7E00
7C00
ENDCHAR
STARTCHAR 02B9
ENCODING 697
SWIDTH 288 0
DWIDTH 12 0
BBX 6 11 3 18
BITMAP
7C
7C
7C
7C
78
78
78
78
70
70
F0
ENDCHAR
STARTCHAR 02BB
ENCODING 699
SWIDTH 288 0
DWIDTH 12 0
BBX 7 13 2 16
BITMAP
0C
1E
3C
70
70
60
E0
F8
FC
FC
7C
7C
38
ENDCHAR
STARTCHAR 02BC
ENCODING 700
SWIDTH 288 0
DWIDTH 12 0
BBX 6 13 3 17
BITMAP
78
F8
FC
FC
FC
7C
1C
1C
1C
38
78
F0
C0
ENDCHAR
STARTCHAR 02BE
ENCODING 702
SWIDTH 168 0
DWIDTH 7 0
BBX 6 9 1 23
BITMAP
E0
F8
38
1C
1C
1C
38
F8
E0
ENDCHAR
STARTCHAR 02BF
ENCODING 703
SWIDTH 168 0
DWIDTH 7 0
BBX 5 9 1 23
BITMAP
38
78
E0
C0
C0
C0
E0
78
38
ENDCHAR
STARTCHAR 02C1
ENCODING 705
SWIDTH 336 0
DWIDTH 14 0
BBX 12 20 1 16
BITMAP
0F80
3FE0
7FF0
F860
F020
F000
F000
F000
7800
7C00
3E00
1F00
0700
0700
0700
0700
0700
0700
0700
0700
ENDCHAR
STARTCHAR 02C6
ENCODING 710
SWIDTH 552 0
DWIDTH 23 0
BBX 15 7 4 24
BITMAP
07C0
0FE0
1FF0
3EF8
783C
F01E
2008
ENDCHAR
STARTCHAR 02C7
ENCODING 711
SWIDTH 552 0
DWIDTH 23 0
BBX 15 7 4 24
BITMAP
2008
701C
F83E
3EF8
1FF0
0FE0
07C0
ENDCHAR
STARTCHAR 02C8
ENCODING 712
SWIDTH 144 0
DWIDTH 6 0
BBX 4 8 1 23
BITMAP
F0
F0
F0
F0
F0
F0
F0
F0
ENDCHAR
STARTCHAR 02C9
ENCODING 713
SWIDTH 288 0
DWIDTH 12 0
BBX 12 3 0 25
BITMAP
FFF0
FFF0
FFF0
ENDCHAR
STARTCHAR 02CA
ENCODING 714
SWIDTH 240 0
DWIDTH 10 0
BBX 10 10 2 24
BITMAP
0200
0700
0F80
0FC0
1F80
3F00
7C00
F800
7000
2000
ENDCHAR
STARTCHAR 02CB
ENCODING 715
SWIDTH 240 0
DWIDTH 10 0
BBX 9 10 -2 24
BITMAP
2000
3000
7800
FC00
7E00
3F00
1F00
0F80
0700
0200
ENDCHAR
STARTCHAR 02CC
ENCODING 716
SWIDTH 144 0
DWIDTH 6 0
BBX 4 8 1 -11
BITMAP
F0
F0
F0
F0
F0
F0
F0
F0
ENDCHAR
STARTCHAR 02D0
ENCODING 720
SWIDTH 288 0
DWIDTH 12 0
BBX 8 20 2 0
BITMAP
FF
7E
7C
3C
38
18
10
00
00
00
00
00
00
10
18
38
3C
7C
7E
FF
ENDCHAR
STARTCHAR 02D1
ENCODING 721
SWIDTH 288 0
DWIDTH 12 0
BBX 8 7 2 12
BITMAP
FF
7E
7C
3C
38
18
10
ENDCHAR
STARTCHAR 02D8
ENCODING 728
SWIDTH 552 0
DWIDTH 23 0
BBX 13 7 5 24
BITMAP
E038
E038
E038
F8F8
7FF0
3FE0
0F80
ENDCHAR
STARTCHAR 02D9
ENCODING 729
SWIDTH 552 0
DWIDTH 23 0
BBX 5 6 9 24
BITMAP
70
F8
F8
F8
F8
70
ENDCHAR
STARTCHAR 02DA
ENCODING 730
SWIDTH 552 0
DWIDTH 23 0
BBX 11 9 6 23
BITMAP
1F00
3F80
71C0
71C0
E0E0
71C0
71C0
3F80
1F00
ENDCHAR
STARTCHAR 02DB
ENCODING 731
SWIDTH 552 0
DWIDTH 23 0
BBX 8 9 8 -9
BITMAP
1C
38
70
70
F0
F2
FF
7F
3E
ENDCHAR
STARTCHAR 02DC
ENCODING 732
SWIDTH 552 0
DWIDTH 23 0
BBX 15 6 4 24
BITMAP
1C00
7F0E
7F9E
F7FE
E1FC
E0F8
ENDCHAR
STARTCHAR 02DD
ENCODING 733
SWIDTH 552 0
DWIDTH 23 0
BBX 14 9 7 24
BITMAP
1000
1E30
3C7C
3C78
78F0
70F0
F1E0
E1C0
60C0
ENDCHAR
STARTCHAR 02DE
ENCODING 734
SWIDTH 168 0
DWIDTH 7 0
BBX 12 9 -4 10
BITMAP
0200
0E00
7E00
FE00
FF00
E720
87E0
03F0
01E0
ENDCHAR
STARTCHAR 02E0
ENCODING 736
SWIDTH 336 0
DWIDTH 14 0
BBX 14 20 0 10
BITMAP
F03C
7038
7838
3870
3870
3C70
1CE0
1CE0
0EE0
0FC0
0FC0
0780
07C0
0FC0
0EE0
1CE0
1CE0
1CE0
0FC0
0780
ENDCHAR
STARTCHAR 02E1
ENCODING 737
SWIDTH 192 0
DWIDTH 8 0
BBX 5 20 2 16
BITMAP
E0
E0
E0
E0
E0
E0
E0
E0
E0
E0
E0
E0
E0
E0
E0
E0
F0
F8
F8
78
ENDCHAR
STARTCHAR 02E2
ENCODING 738
SWIDTH 288 0
DWIDTH 12 0
BBX 10 14 1 16
BITMAP
1F00
7FC0
7FC0
F180
F000
7C00
3F00
1FC0
03C0
01C0
61C0
FFC0
7F80
3F00
ENDCHAR
STARTCHAR 02E3
ENCODING 739
SWIDTH 336 0
DWIDTH 14 0
BBX 13 14 0 16
BITMAP
7878
3870
3CF0
1CE0
1FE0
0FC0
0780
0F80
0FC0
1DE0
3CE0
38F0
7870
F078
ENDCHAR
STARTCHAR 0300
ENCODING 768
SWIDTH 0 0
DWIDTH 0 0
BBX 9 10 -7 24
BITMAP
1000
3800
7800
FC00
7E00
3F00
1F80
0F80
0780
0100
ENDCHAR
STARTCHAR 0301
ENCODING 769
SWIDTH 0 0
DWIDTH 0 0
BBX 9 10 -2 24
BITMAP
0400
0E00
0F00
1F80
3F00
7E00
FC00
F800
F000
4000
ENDCHAR
STARTCHAR 0302
ENCODING 770
SWIDTH 0 0
DWIDTH 0 0
BBX 14 7 -7 24
BITMAP
0FC0
1FE0
3FF0
7CF8
7878
F03C
4008
ENDCHAR
STARTCHAR 0303
ENCODING 771
SWIDTH 0 0
DWIDTH 0 0
BBX 16 6 -8 24
BITMAP
0C00
3F0F
7FCE
73FE
F1FC
F078
ENDCHAR
STARTCHAR 0304
ENCODING 772
SWIDTH 0 0
DWIDTH 0 0
BBX 12 3 -6 25
BITMAP
FFF0
FFF0
FFF0
ENDCHAR
STARTCHAR 0305
ENCODING 773
SWIDTH 0 0
DWIDTH 0 0
BBX 12 3 -6 25
BITMAP
FFF0
FFF0
FFF0
ENDCHAR
STARTCHAR 0306
ENCODING 774
SWIDTH 0 0
DWIDTH 0 0
BBX 14 7 -7 24
BITMAP
E01C
E01C
F038
7878
7FF8
3FF0
0FC0
ENDCHAR
STARTCHAR 0307
ENCODING 775
SWIDTH 0 0
DWIDTH 0 0
BBX 6 6 -3 24
BITMAP
78
FC
FC
FC
FC
78
ENDCHAR
STARTCHAR 0308
ENCODING 776
SWIDTH 0 0
DWIDTH 0 0
BBX 14 5 -7 24
BITMAP
7038
F87C
F87C
F87C
7038
ENDCHAR
STARTCHAR 0309
ENCODING 777
SWIDTH 0 0
DWIDTH 0 0
BBX 7 9 -3 24
BITMAP
E0
F8
FC
3E
1E
1E
3C
78
70
ENDCHAR
STARTCHAR 030A
ENCODING 778
SWIDTH 0 0
DWIDTH 0 0
BBX 10 9 -5 23
BITMAP
3F00
7F80
F3C0
E1C0
E1C0
E1C0
F3C0
7F80
3F00
ENDCHAR
STARTCHAR 030B
ENCODING 779
SWIDTH 0 0
DWIDTH 0 0
BBX 14 9 -5 24
BITMAP
0800
1E38
1E3C
3C78
3C78
78F0
70E0
F1E0
20C0
ENDCHAR
STARTCHAR 030C
ENCODING 780
SWIDTH 0 0
DWIDTH 0 0
BBX 14 7 -7 24
BITMAP
4008
F03C
7878
3CF8
3FF0
1FE0
0FC0
ENDCHAR
STARTCHAR 030F
ENCODING 783
SWIDTH 0 0
DWIDTH 0 0
BBX 14 9 -9 24
BITMAP
2040
F1E0
F1E0
78F0
38F0
3C78
1C38
1E3C
0810
ENDCHAR
STARTCHAR 0311
ENCODING 785
SWIDTH 0 0
DWIDTH 0 0
BBX 14 7 -7 24
BITMAP
0FC0
3FF0
7FF8
7878
F038
E01C
E01C
ENDCHAR
STARTCHAR 0312
ENCODING 786
SWIDTH 0 0
DWIDTH 0 0
BBX 5 8 -3 24
BITMAP
18
38
60
60
F0
78
78
70
ENDCHAR
STARTCHAR 0313
ENCODING 787
SWIDTH 0 0
DWIDTH 0 0
BBX 4 8 -2 24
BITMAP
70
F0
F0
70
30
30
E0
C0
ENDCHAR
STARTCHAR 0318
ENCODING 792
SWIDTH 0 0
DWIDTH 0 0
BBX 7 8 -3 -10
BITMAP
0E
0E
0E
FE
FE
0E
0E
0E
ENDCHAR
STARTCHAR 0319
ENCODING 793
SWIDTH 0 0
DWIDTH 0 0
BBX 7 8 -4 -10
BITMAP
E0
E0
E0
FE
FE
E0
E0
E0
ENDCHAR
STARTCHAR 031A
ENCODING 794
SWIDTH 0 0
DWIDTH 0 0
BBX 7 6 -3 24
BITMAP
FE
FE
0E
0E
0E
0E
ENDCHAR
STARTCHAR 031B
ENCODING 795
SWIDTH 0 0
DWIDTH 0 0
BBX 7 9 0 18
BITMAP
0C
3E
1E
1E
1E
3C
7C
F8
E0
ENDCHAR
STARTCHAR 031C
ENCODING 796
SWIDTH 0 0
DWIDTH 0 0
BBX 5 9 -3 -11
BITMAP
38
78
E0
E0
E0
E0
E0
78
38
ENDCHAR
STARTCHAR 031D
ENCODING 797
SWIDTH 0 0
DWIDTH 0 0
BBX 8 6 -4 -9
BITMAP
18
18
18
18
FF
FF
ENDCHAR
STARTCHAR 031E
ENCODING 798
SWIDTH 0 0
DWIDTH 0 0
BBX 8 6 -4 -10
BITMAP
FF
FF
18
18
18
18
ENDCHAR
STARTCHAR 031F
ENCODING 799
SWIDTH 0 0
DWIDTH 0 0
BBX 8 8 -4 -10
BITMAP
18
18
18
FF
FF
18
18
18
ENDCHAR
STARTCHAR 0320
ENCODING 800
SWIDTH 0 0
DWIDTH 0 0
BBX 8 2 -4 -7
BITMAP
FF
FF
ENDCHAR
STARTCHAR 0323
ENCODING 803
SWIDTH 0 0
DWIDTH 0 0
BBX 6 6 -3 -9
BITMAP
78
FC
FC
FC
FC
78
ENDCHAR
STARTCHAR 0324
ENCODING 804
SWIDTH 0 0
DWIDTH 0 0
BBX 14 5 -7 -9
BITMAP
7038
F87C
F87C
F87C
7038
ENDCHAR
STARTCHAR 0325
ENCODING 805
SWIDTH 0 0
DWIDTH 0 0
BBX 10 9 -5 -11
BITMAP
3F00
7F80
F3C0
E1C0
E1C0
E1C0
F3C0
7F80
3F00
ENDCHAR
STARTCHAR 0326
ENCODING 806
SWIDTH 0 0
DWIDTH 0 0
BBX 8 7 -4 -9
BITMAP
38
7E
1F
0F
1E
FC
F0
ENDCHAR
STARTCHAR 0327
ENCODING 807
SWIDTH 0 0
DWIDTH 0 0
BBX 8 10 -4 -10
BITMAP
1C
38
38
7C
1E
0F
0F
1E
FC
F0
ENDCHAR
STARTCHAR 0328
ENCODING 808
SWIDTH 0 0
DWIDTH 0 0
BBX 8 9 -3 -9
BITMAP
3C
70
70
E0
E0
F2
FE
FF
3C
ENDCHAR
STARTCHAR 0329
ENCODING 809
SWIDTH 0 0
DWIDTH 0 0
BBX 4 8 -2 -11
BITMAP
F0
F0
F0
F0
F0
F0
F0
F0
ENDCHAR
STARTCHAR 032A
ENCODING 810
SWIDTH 0 0
DWIDTH 0 0
BBX 10 6 -5 -10
BITMAP
FFC0
FFC0
C0C0
C0C0
C0C0
C0C0
ENDCHAR
STARTCHAR 032C
ENCODING 812
SWIDTH 0 0
DWIDTH 0 0
BBX 14 7 -7 -10
BITMAP
4008
F03C
7878
3CF8
3FF0
1FE0
0FC0
ENDCHAR
STARTCHAR 032E
ENCODING 814
SWIDTH 0 0
DWIDTH 0 0
BBX 14 7 -7 -10
BITMAP
E01C
E01C
F038
7878
7FF8
3FF0
0FC0
ENDCHAR
STARTCHAR 032F
ENCODING 815
SWIDTH 0 0
DWIDTH 0 0
BBX 14 7 -7 -10
BITMAP
0FC0
3FF0
7FF8
7878
F038
E01C
E01C
ENDCHAR
STARTCHAR 0330
ENCODING 816
SWIDTH 0 0
DWIDTH 0 0
BBX 16 6 -8 -10
BITMAP
0C00
3F0F
7FCE
73FE
F1FC
F078
ENDCHAR
STARTCHAR 0331
ENCODING 817
SWIDTH 0 0
DWIDTH 0 0
BBX 12 3 -6 -8
BITMAP
FFF0
FFF0
FFF0
ENDCHAR
STARTCHAR 0334
ENCODING 820
SWIDTH 0 0
DWIDTH 0 0
BBX 16 6 -8 8
BITMAP
0C00
3F0F
7FCE
73FE
F1FC
F078
ENDCHAR
STARTCHAR 0339
ENCODING 825
SWIDTH 0 0
DWIDTH 0 0
BBX 5 9 -2 -11
BITMAP
E0
F0
38
38
38
38
38
F0
E0
ENDCHAR
STARTCHAR 033A
ENCODING 826
SWIDTH 0 0
DWIDTH 0 0
BBX 10 6 -5 -9
BITMAP
C0C0
C0C0
C0C0
FFC0
FFC0
FFC0
ENDCHAR
STARTCHAR 033B
ENCODING 827
SWIDTH 0 0
DWIDTH 0 0
BBX 10 7 -5 -10
BITMAP
FFC0
FFC0
C0C0
C0C0
C0C0
FFC0
FFC0
ENDCHAR
STARTCHAR 033C
ENCODING 828
SWIDTH 0 0
DWIDTH 0 0
BBX 14 7 -7 -10
BITMAP
3870
7CF8
FFFC
FFFC
E79C
C30C
C30C
ENDCHAR
STARTCHAR 033D
ENCODING 829
SWIDTH 0 0
DWIDTH 0 0
BBX 8 8 -4 23
BITMAP
42
E7
7E
3C
3C
7E
E7
42
ENDCHAR
STARTCHAR 0342
ENCODING 834
SWIDTH 0 0
DWIDTH 0 0
BBX 16 6 -8 24
BITMAP
0C00
3F0F
7FCE
73FE
F1FC
F078
ENDCHAR
STARTCHAR 0345
ENCODING 837
SWIDTH 0 0
DWIDTH 0 0
BBX 6 6 -2 -9
BITMAP
F0
F0
F0
FC
7C
3C
ENDCHAR
STARTCHAR 0361
ENCODING 865
SWIDTH 0 0
DWIDTH 0 0
BBX 38 7 -19 23
BITMAP
0007FF8000
00FFFFFC00
07FFFFFF80
1FF8007FE0
7F000003F8
F80000007C
6000000018
ENDCHAR
STARTCHAR 0374
ENCODING 884
SWIDTH 288 0
DWIDTH 12 0
BBX 6 11 3 18
BITMAP
7C
7C
7C
78
78
78
78
78
70
70
F0
ENDCHAR
STARTCHAR 0375
ENCODING 885
SWIDTH 288 0
DWIDTH 12 0
BBX 6 11 2 0
BITMAP
1C
1C
3C
3C
3C
7C
7C
7C
78
78
F8
ENDCHAR
STARTCHAR 037A
ENCODING 890
SWIDTH 552 0
DWIDTH 23 0
BBX 6 6 10 -9
BITMAP
E0
E0
E0
FC
FC
7C
ENDCHAR
STARTCHAR 037E
ENCODING 894
SWIDTH 288 0
DWIDTH 12 0
BBX 8 29 2 -8
BITMAP
38
7C
7E
7E
7E
7C
38
00
00
00
00
00
00
00
00
3C
7E
7E
7E
7F
3F
0E
0E
1E
1C
7C
F8
70
40
ENDCHAR
STARTCHAR 0384
ENCODING 900
SWIDTH 552 0
DWIDTH 23 0
BBX 6 9 10 23
BITMAP
70
7C
78
78
F8
F0
F0
F0
E0
ENDCHAR
STARTCHAR 0385
ENCODING 901
SWIDTH 552 0
DWIDTH 23 0
BBX 15 9 4 24
BITMAP
01C0
01E0
01C0
01C0
71DC
FB9E
FB9E
739C
0300
ENDCHAR
STARTCHAR 0386
ENCODING 902
SWIDTH 600 0
DWIDTH 25 0
BBX 25 28 0 0
BITMAP
783F0000
783F8000
783F8000
787F8000
707FC000
F07BC000
F0F3C000
F0F3C000
E0F3E000
01F1E000
01E1E000
01E1F000
03E0F000
03C0F000
03C0F800
07C07800
07FFF800
07FFFC00
0FFFFC00
0FFFFC00
0F003E00
1F003E00
1F003E00
1F001F00
1E001F00
3E001F00
3E001F80
7E000F80
ENDCHAR
STARTCHAR 0387
ENCODING 903
SWIDTH 288 0
DWIDTH 12 0
BBX 6 7 3 14
BITMAP
70
F8
FC
FC
FC
F8
70
ENDCHAR
STARTCHAR 0388
ENCODING 904
SWIDTH 624 0
DWIDTH 26 0
BBX 25 28 -1 0
BITMAP
78FFFF80
7CFFFF80
78FFFF80
78FFFF80
78F80000
70F80000
70F80000
F0F80000
F0F80000
00F80000
00F80000
00F80000
00FFFE00
00FFFE00
00FFFE00
00FFFE00
00F80000
00F80000
00F80000
00F80000
00F80000
00F80000
00F80000
00F80000
00FFFF80
00FFFF80
00FFFF80
00FFFF80
ENDCHAR
STARTCHAR 0389
ENCODING 905
SWIDTH 768 0
DWIDTH 32 0
BBX 29 28 -1 0
BITMAP
78F800F8
7CF800F8
78F800F8
78F800F8
78F800F8
70F800F8
70F800F8
F0F800F8
F0F800F8
00F800F8
00F800F8
00F800F8
00FFFFF8
00FFFFF8
00FFFFF8
00FFFFF8
00F800F8
00F800F8
00F800F8
00F800F8
00F800F8
00F800F8
00F800F8
00F800F8
00F800F8
00F800F8
00F800F8
00F800F8
ENDCHAR
STARTCHAR 038A
ENCODING 906
SWIDTH 384 0
DWIDTH 16 0
BBX 13 28 -1 0
BITMAP
78F8
7CF8
78F8
78F8
78F8
70F8
70F8
F0F8
F0F8
00F8
00F8
00F8
00F8
00F8
00F8
00F8
00F8
00F8
00F8
00F8
00F8
00F8
00F8
00F8
00F8
00F8
00F8
00F8
ENDCHAR
STARTCHAR 038C
ENCODING 908
SWIDTH 744 0
DWIDTH 31 0
BBX 30 28 -1 0
BITMAP
7803FC00
7C0FFF00
781FFFC0
783FFFE0
787F07F0
70FC03F0
71F801F8
F1F000F8
F1F000F8
03F0007C
03E0007C
03E0007C
03E0007C
03E0007C
03E0007C
03E0007C
03E0007C
03E0007C
03F0007C
01F000F8
01F000F8
00F801F8
00FC03F0
007F07E0
003FFFE0
001FFFC0
000FFF00
0003FC00
ENDCHAR
STARTCHAR 038E
ENCODING 910
SWIDTH 648 0
DWIDTH 27 0
BBX 29 28 -1 0
BITMAP
79F801F8
7CF801F0
78F803E0
787C03E0
787C03C0
703E07C0
703E07C0
F01F0F80
F01F0F80
000F0F00
000F9F00
00079E00
0007FE00
0003FC00
0003FC00
0003F800
0001F800
0001F000
0001F000
0001F000
0001F000
0001F000
0001F000
0001F000
0001F000
0001F000
0001F000
0001F000
ENDCHAR
STARTCHAR 038F
ENCODING 911
SWIDTH 768 0
DWIDTH 32 0
BBX 31 28 -1 0
BITMAP
7801FC00
7C0FFF80
781FFFC0
783FFFE0
787F07F0
70FC01F8
F0F800F8
F1F800FC
E1F0007C
01F0007C
01F0007C
03E0003E
03E0003E
03E0003E
03E0003E
01F0007C
01F0007C
01F0007C
01F0007C
00F800F8
00F800F8
007C01F0
003E03E0
001F07E0
03FF07FE
03FF07FE
03FF07FE
03FF07FE
ENDCHAR
STARTCHAR 0390
ENCODING 912
SWIDTH 288 0
DWIDTH 12 0
BBX 15 33 -2 0
BITMAP
01C0
01E0
01C0
01C0
73DC
F39E
F39E
731C
0300
0000
0000
0000
0000
07C0
07C0
07C0
07C0
07C0
07C0
07C0
07C0
07C0
07C0
07C0
07C0
07C0
07C0
07C0
07C0
07F8
03F8
03F8
01F8
ENDCHAR
STARTCHAR 0391
ENCODING 913
SWIDTH 552 0
DWIDTH 23 0
BBX 24 28 0 0
BITMAP
007E00
00FE00
00FE00
00FF00
01EF00
01EF00
01EF80
03E780
03C780
03C7C0
07C3C0
0783C0
0783E0
0783E0
0F81E0
0F01F0
0FFFF0
1FFFF0
1FFFF0
1FFFF8
3E00F8
3E0078
3C007C
7C007C
7C007C
7C003E
F8003E
F8003F
ENDCHAR
STARTCHAR 0392
ENCODING 914
SWIDTH 600 0
DWIDTH 25 0
BBX 21 28 3 0
BITMAP
FFFC00
FFFF00
FFFFC0
FFFFC0
F80FE0
F803E0
F803E0
F803E0
F803E0
F803E0
F80FC0
FFFF80
FFFF00
FFFF00
FFFFC0
F807E0
F801F0
F801F0
F800F0
F800F8
F800F0
F801F0
F801F0
F807F0
FFFFE0
FFFFC0
FFFF80
FFFC00
ENDCHAR
STARTCHAR 0393
ENCODING 915
SWIDTH 504 0
DWIDTH 21 0
BBX 17 28 3 0
BITMAP
FFFF80
FFFF80
FFFF80
FFFF80
F80000
F80000
F80000
F80000
F80000
F80000
F80000
F80000
F80000
F80000
F80000
F80000
F80000
F80000
F80000
F80000
F80000
F80000
F80000
F80000
F80000
F80000
F80000
F80000
ENDCHAR
STARTCHAR 0394
ENCODING 916
SWIDTH 624 0
DWIDTH 26 0
BBX 23 28 1 0
BITMAP
007E00
00FE00
00FF00
00FF00
01FF00
01EF80
01E780
03E780
03C7C0
03C3C0
07C3C0
07C3E0
0783E0
0F81E0
0F81F0
0F01F0
1F00F0
1F00F8
1E00F8
3E007C
3E007C
3C007C
7C003E
7C003E
7FFFFE
FFFFFE
FFFFFE
FFFFFE
ENDCHAR
STARTCHAR 0395
ENCODING 917
SWIDTH 552 0
DWIDTH 23 0
BBX 17 28 3 0
BITMAP
FFFF80
FFFF80
FFFF80
FFFF80
F80000
F80000
F80000
F80000
F80000
F80000
F80000
F80000
FFFE00
FFFE00
FFFE00
FFFE00
F80000
F80000
F80000
F80000
F80000
F80000
F80000
F80000
FFFF80
FFFF80
FFFF80
FFFF80
ENDCHAR
STARTCHAR 0396
ENCODING 918
SWIDTH 552 0
DWIDTH 23 0
BBX 19 28 2 0
BITMAP
7FFFE0
7FFFE0
7FFFE0
7FFFE0
0007C0
000F80
001F80
001F00
003F00
007E00
007C00
00FC00
00F800
01F000
03F000
03E000
07C000
0FC000
0F8000
1F8000
1F0000
3E0000
7E0000
7C0000
FFFFE0
FFFFE0
FFFFE0
FFFFE0
ENDCHAR
STARTCHAR 0397
ENCODING 919
SWIDTH 672 0
DWIDTH 28 0
BBX 21 28 3 0
BITMAP
F800F8
F800F8
F800F8
F800F8
F800F8
F800F8
F800F8
F800F8
F800F8
F800F8
F800F8
F800F8
FFFFF8
FFFFF8
FFFFF8
FFFFF8
F800F8
F800F8
F800F8
F800F8
F800F8
F800F8
F800F8
F800F8
F800F8
F800F8
F800F8
F800F8
ENDCHAR
STARTCHAR 0398
ENCODING 920
SWIDTH 672 0
DWIDTH 28 0
BBX 24 28 2 0
BITMAP
007F00
03FFC0
07FFF0
0FFFF8
1FC1FC
3F00FC
3E007E
7C003E
7C003F
7C001F
F8001F
F8001F
F8FF9F
F8FF9F
F8FF9F
F8FF9F
F8001F
F8001F
7C001F
7C003F
7E003E
3E007E
3F00FC
1FC1FC
0FFFF8
07FFF0
03FFC0
007F00
ENDCHAR
STARTCHAR 0399
ENCODING 921
SWIDTH 288 0
DWIDTH 12 0
BBX 5 28 3 0
BITMAP
F8
F8
F8
F8
F8
F8
F8
F8
F8
F8
F8
F8
F8
F8
F8
F8
F8
F8
F8
F8
F8
F8
F8
F8
F8
F8
F8
F8
ENDCHAR
STARTCHAR 039A
ENCODING 922
SWIDTH 600 0
DWIDTH 25 0
BBX 22 28 3 0
BITMAP
F801F8
F803F0
F807E0
F807C0
F80F80
F81F00
F83F00
F87E00
F87C00
F8F800
F9F800
FBF800
FBF800
FFFC00
FFFC00
FFBE00
FF3E00
FE1F00
FC1F80
FC0F80
F807C0
F807C0
F803E0
F803F0
F801F0
F801F8
F800F8
F800FC
ENDCHAR
STARTCHAR 039B
ENCODING 923
SWIDTH 552 0
DWIDTH 23 0
BBX 23 28 0 0
BITMAP
00FC00
00FE00
00FE00
01FE00
01FE00
01FF00
03EF00
03CF00
03CF80
07CF80
07C780
0787C0
0787C0
0F83C0
0F83E0
0F03E0
1F03E0
1F01E0
1E01F0
3E01F0
3E01F0
3E00F8
7C00F8
7C00F8
7C007C
7C007C
F8007C
F8007E
ENDCHAR
STARTCHAR 039C
ENCODING 924
SWIDTH 744 0
DWIDTH 31 0
BBX 25 28 3 0
BITMAP
FC001F80
FE001F80
FE003F80
FE003F80
FF003F80
FF007F80
F7007F80
F7807780
F780F780
FB80F780
FBC0E780
FBC1EF80
F9C1EF80
F9E1CF80
F9E3CF80
F8E3CF80
F8F38F80
F8F78F80
F8778F80
F87F0F80
F87F0F80
F83E0F80
F83E0F80
F83E0F80
F81C0F80
F8000F80
F8000F80
F8000F80
ENDCHAR
STARTCHAR 039D
ENCODING 925
SWIDTH 672 0
DWIDTH 28 0
BBX 21 28 3 0
BITMAP
FC00F8
FC00F8
FE00F8
FE00F8
FF00F8
FF00F8
FF80F8
FFC0F8
FBC0F8
FBE0F8
F9E0F8
F9F0F8
F8F0F8
F8F8F8
F878F8
F87C78
F83C78
F83E78
F81E78
F81F78
F80F78
F807F8
F807F8
F803F8
F803F8
F801F8
F801F8
F800F8
ENDCHAR
STARTCHAR 039E
ENCODING 926
SWIDTH 552 0
DWIDTH 23 0
BBX 19 28 2 0
BITMAP
7FFFE0
7FFFE0
7FFFE0
7FFFE0
000000
000000
000000
000000
000000
000000
000000
000000
1FFF00
1FFF00
1FFF00
1FFF00
000000
000000
000000
000000
000000
000000
000000
000000
FFFFE0
FFFFE0
FFFFE0
FFFFE0
ENDCHAR
STARTCHAR 039F
ENCODING 927
SWIDTH 672 0
DWIDTH 28 0
BBX 24 28 2 0
BITMAP
007F00
03FFC0
07FFF0
0FFFF8
1FC1FC
3F00FC
3E007E
7C003E
7C003F
7C001F
F8001F
F8001F
F8001F
F8001F
F8001F
F8001F
F8001F
F8001F
7C001F
7C003F
7E003E
3E007E
3F00FC
1FC1FC
0FFFF8
07FFF0
03FFC0
007F00
ENDCHAR
STARTCHAR 03A0
ENCODING 928
SWIDTH 648 0
DWIDTH 27 0
BBX 21 28 3 0
BITMAP
FFFFF8
FFFFF8
FFFFF8
FFFFF8
F800F8
F800F8
F800F8
F800F8
F800F8
F800F8
F800F8
F800F8
F800F8
F800F8
F800F8
F800F8
F800F8
F800F8
F800F8
F800F8
F800F8
F800F8
F800F8
F800F8
F800F8
F800F8
F800F8
F800F8
ENDCHAR
STARTCHAR 03A1
ENCODING 929
SWIDTH 576 0
DWIDTH 24 0
BBX 20 28 3 0
BITMAP
FFFC00
FFFF00
FFFF80
FFFFC0
F80FE0
F803E0
F801F0
F801F0
F801F0
F801F0
F801F0
F803E0
F803E0
F80FE0
FFFFC0
FFFF80
FFFF00
FFF800
F80000
F80000
F80000
F80000
F80000
F80000
F80000
F80000
F80000
F80000
ENDCHAR
STARTCHAR 03A3
ENCODING 931
SWIDTH 552 0
DWIDTH 23 0
BBX 19 28 2 0
BITMAP
FFFFC0
FFFFC0
FFFFC0
FFFFC0
7C0000
3E0000
1F0000
0F8000
0FC000
07C000
03E000
01F000
00F800
00F800
00FC00
01F000
01E000
03E000
07C000
0F8000
1F0000
1F0000
3E0000
7C0000
FFFFE0
FFFFE0
FFFFE0
FFFFE0
ENDCHAR
STARTCHAR 03A4
ENCODING 932
SWIDTH 552 0
DWIDTH 23 0
BBX 21 28 1 0
BITMAP
FFFFF8
FFFFF8
FFFFF8
FFFFF8
00F800
00F800
00F800
00F800
00F800
00F800
00F800
00F800
00F800
00F800
00F800
00F800
00F800
00F800
00F800
00F800
00F800
00F800
00F800
00F800
00F800
00F800
00F800
00F800
ENDCHAR
STARTCHAR 03A5
ENCODING 933
SWIDTH 504 0
DWIDTH 21 0
BBX 21 28 0 0
BITMAP
F800F8
7C01F8
7C01F0
7C01F0
3E03E0
3E03E0
1F07C0
1F07C0
0F8780
0F8F80
078F00
07DF00
03DE00
03FE00
01FC00
01FC00
00F800
00F800
00F800
00F800
00F800
00F800
00F800
00F800
00F800
00F800
00F800
00F800
ENDCHAR
STARTCHAR 03A6
ENCODING 934
SWIDTH 744 0
DWIDTH 31 0
BBX 27 28 2 0
BITMAP
001F0000
001F0000
001F0000
00FFE000
07FFFC00
0FFFFE00
1FFFFF00
3F9F3F80
7E1F0FC0
7C1F07C0
F81F03E0
F81F03E0
F81F03E0
F81F03E0
F81F03E0
F81F03E0
F81F03E0
7C1F03E0
7C1F07C0
7E1F0FC0
3F9F3F80
1FFFFF00
0FFFFE00
03FFF800
00FFE000
001F0000
001F0000
001F0000
ENDCHAR
STARTCHAR 03A7
ENCODING 935
SWIDTH 552 0
DWIDTH 23 0
BBX 21 28 1 0
BITMAP
FC01F8
7C01F0
7E03E0
3E03E0
3F07C0
1F07C0
0F8F80
0F8F80
07CF00
07DF00
03FE00
03FE00
01FC00
01FC00
01FC00
03FC00
03FE00
07FE00
079F00
0F9F00
0F0F80
1F0FC0
1E07C0
3E07E0
7C03E0
7C03F0
F801F0
F800F8
ENDCHAR
STARTCHAR 03A8
ENCODING 936
SWIDTH 720 0
DWIDTH 30 0
BBX 26 28 2 0
BITMAP
F81F07C0
F81F07C0
F81F07C0
F81F07C0
F81F07C0
F81F07C0
F81F07C0
F81F07C0
F81F07C0
781F07C0
7C1F07C0
7C1F0F80
7E1F1F80
3F1F3F80
1FFFFF00
0FFFFE00
07FFFC00
01FFE000
001F0000
001F0000
001F0000
001F0000
001F0000
001F0000
001F0000
001F0000
001F0000
001F0000
ENDCHAR
STARTCHAR 03A9
ENCODING 937
SWIDTH 696 0
DWIDTH 29 0
BBX 25 28 2 0
BITMAP
007F0000
01FFE000
07FFF000
0FFFF800
1FC1FC00
3F007E00
3E003E00
7E003F00
7C001F00
7C001F00
7C001F80
7C000F80
F8000F80
F8000F80
78000F80
7C000F80
7C001F00
7C001F00
7C001F00
3E003E00
3E003E00
1F007C00
0F80F800
07C1F800
FFC1FF80
FFC1FF80
FFC1FF80
FFC1FF80
ENDCHAR
STARTCHAR 03AA
ENCODING 938
SWIDTH 288 0
DWIDTH 12 0
BBX 14 35 -1 0
BITMAP
7038
F87C
F87C
F87C
7038
0000
0000
0F80
0F80
0F80
0F80
0F80
0F80
0F80
0F80
0F80
0F80
0F80
0F80
0F80
0F80
0F80
0F80
0F80
0F80
0F80
0F80
0F80
0F80
0F80
0F80
0F80
0F80
0F80
0F80
ENDCHAR
STARTCHAR 03AB
ENCODING 939
SWIDTH 504 0
DWIDTH 21 0
BBX 21 35 0 0
BITMAP
0F0780
0F0780
0F8F80
0F0780
0F0780
000000
000000
F800F8
7C01F8
7C01F0
7C01F0
3E03E0
3E03E0
1F07C0
1F07C0
0F8780
0F8F80
078F00
07DF00
03DE00
03FE00
01FC00
01FC00
00F800
00F800
00F800
00F800
00F800
00F800
00F800
00F800
00F800
00F800
00F800
00F800
ENDCHAR
STARTCHAR 03AC
ENCODING 940
SWIDTH 576 0
DWIDTH 24 0
BBX 22 32 2 0
BITMAP
003800
003E00
007C00
007C00
007800
007800
007800
00F000
007000
000000
000000
000000
03E0F8
0FF9F0
1FFDF0
3FFDF0
7F1FE0
7C07E0
FC07E0
F803E0
F803E0
F803C0
F803C0
F807C0
F807C0
F807C0
FC0FC0
7E1FC0
7FFFF8
3FFBFC
1FF1FC
07C0F8
ENDCHAR
STARTCHAR 03AD
ENCODING 941
SWIDTH 456 0
DWIDTH 19 0
BBX 16 32 2 0
BITMAP
00E0
00F8
00F8
00F0
00F0
01E0
01E0
01E0
01C0
0000
0000
0000
07F0
1FFE
7FFF
7FFE
7C0E
7804
7C00
3FF0
0FF0
3FF0
7FF0
FC00
F800
F000
F802
FC0E
FFFF
7FFF
1FFE
07F8
ENDCHAR
STARTCHAR 03AE
ENCODING 942
SWIDTH 552 0
DWIDTH 23 0
BBX 17 39 3 -7
BITMAP
007000
007C00
007C00
007800
00F800
00F000
00F000
00F000
00E000
000000
000000
000000
F07C00
F1FF00
F3FF00
F7FF80
FF0F80
FE0F80
FC0780
F80780
F80780
F80780
F80780
F80780
F80780
F80780
F80780
F80780
F80780
F80780
F80780
F80780
000780
000780
000780
000780
000F80
000F80
000F80
ENDCHAR
STARTCHAR 03AF
ENCODING 943
SWIDTH 288 0
DWIDTH 12 0
BBX 8 32 3 0
BITMAP
38
3E
3C
3C
7C
78
78
78
70
00
00
00
F8
F8
F8
F8
F8
F8
F8
F8
F8
F8
F8
F8
F8
F8
F8
F8
FF
7F
7F
3F
ENDCHAR
STARTCHAR 03B0
ENCODING 944
SWIDTH 528 0
DWIDTH 22 0
BBX 18 33 2 0
BITMAP
00E000
00F000
00E000
00E000
39EE00
79CF00
7DCF00
39CE00
018000
000000
000000
000000
000000
F81F00
F80F80
F80F80
780F80
780780
780780
7807C0
7807C0
F807C0
F807C0
F807C0
F807C0
F807C0
F80F80
7C0F80
7E1F80
7FFF00
3FFE00
1FFC00
07F000
ENDCHAR
STARTCHAR 03B1
ENCODING 945
SWIDTH 576 0
DWIDTH 24 0
BBX 22 20 2 0
BITMAP
03E0F8
0FF9F0
1FFDF0
3FFDF0
7F1FE0
7C07E0
FC07E0
F803E0
F803E0
F803C0
F803C0
F807C0
F807C0
F807C0
FC0FC0
7E1FC0
7FFFF8
3FFBFC
1FF1FC
07C0F8
ENDCHAR
STARTCHAR 03B2
ENCODING 946
SWIDTH 576 0
DWIDTH 24 0
BBX 20 37 3 -7
BITMAP
03F000
0FFE00
1FFF00
3FFF80
7E1F80
7C0F80
F80780
F807C0
F80780
F80F80
F80F80
F81F00
F8FE00
F8FC00
F8FF80
F8FFC0
F8DFE0
F803E0
F803E0
F801F0
F801F0
F801F0
F801F0
F801F0
FC03E0
FF07E0
FFFFC0
FFFFC0
FBFF00
F8FC00
F80000
F80000
F80000
F80000
F80000
F80000
F80000
ENDCHAR
STARTCHAR 03B3
ENCODING 947
SWIDTH 504 0
DWIDTH 21 0
BBX 21 27 0 -7
BITMAP
F800F8
7C00F0
3E01F0
3E01F0
1F01F0
1F01E0
0F81E0
0F83E0
0783C0
07C3C0
03C7C0
03C780
03EF80
01EF00
01FF00
01FE00
00FC00
00FC00
00F800
00F800
00F800
00F800
00F800
00F800
00F800
00F800
00F800
ENDCHAR
STARTCHAR 03B4
ENCODING 948
SWIDTH 552 0
DWIDTH 23 0
BBX 19 30 2 0
BITMAP
03FC00
0FFF80
1FFFC0
3FFFC0
3E0780
3E0080
3E0000
1F0000
1F8000
0FE000
07F000
01FC00
07FE00
0FFF00
1F9F80
3E0F80
7C07C0
7807C0
F803E0
F803E0
F803E0
F803E0
F803E0
F803C0
7C07C0
7E0FC0
3FFF80
1FFF00
0FFE00
03F800
ENDCHAR
STARTCHAR 03B5
ENCODING 949
SWIDTH 456 0
DWIDTH 19 0
BBX 16 20 2 0
BITMAP
07F0
1FFE
7FFF
7FFE
7C0E
7804
7C00
3FF0
0FF0
3FF0
7FF0
FC00
F800
F000
F802
FC0E
FFFF
7FFF
1FFE
07F8
ENDCHAR
STARTCHAR 03B6
ENCODING 950
SWIDTH 456 0
DWIDTH 19 0
BBX 16 37 2 -7
BITMAP
7FFF
7FFF
7FFF
7FFF
003E
007C
00F0
01E0
03E0
07C0
0F80
1F00
1E00
3E00
7C00
7C00
7800
F800
F800
F800
F800
F800
F800
FC00
FE00
7F00
7FF0
3FFE
0FFF
03FF
003F
000F
000F
000F
001E
003E
000C
ENDCHAR
STARTCHAR 03B7
ENCODING 951
SWIDTH 552 0
DWIDTH 23 0
BBX 17 27 3 -7
BITMAP
F07C00
F1FF00
F3FF00
F7FF80
FF0F80
FE0F80
FC0780
F80780
F80780
F80780
F80780
F80780
F80780
F80780
F80780
F80780
F80780
F80780
F80780
F80780
000780
000780
000780
000780
000F80
000F80
000F80
ENDCHAR
STARTCHAR 03B8
ENCODING 952
SWIDTH 552 0
DWIDTH 23 0
BBX 18 30 2 0
BITMAP
03F000
07FC00
0FFE00
1FFF00
3F1F00
3E0F80
7C0F80
7C0780
7C07C0
7807C0
F807C0
F807C0
F807C0
FFFFC0
FFFFC0
FFFFC0
FFFFC0
F807C0
F807C0
7807C0
7807C0
7807C0
7C0780
7C0F80
3E0F80
3F1F00
1FFF00
0FFE00
07FC00
03F000
ENDCHAR
STARTCHAR 03B9
ENCODING 953
SWIDTH 288 0
DWIDTH 12 0
BBX 8 20 3 0
BITMAP
F8
F8
F8
F8
F8
F8
F8
F8
F8
F8
F8
F8
F8
F8
F8
F8
FF
7F
7F
3F
ENDCHAR
STARTCHAR 03BA
ENCODING 954
SWIDTH 528 0
DWIDTH 22 0
BBX 19 21 3 0
BITMAP
000180
F80780
F80F80
F83F80
F87F80
F87E00
F8F800
F9F000
FBE000
FFE000
FFF000
FFF000
FEF800
FC7800
FC7C00
F83E00
F83E00
F81F00
F80F80
F80FC0
F807E0
ENDCHAR
STARTCHAR 03BB
ENCODING 955
SWIDTH 528 0
DWIDTH 22 0
BBX 21 30 1 0
BITMAP
7E0000
FF8000
7FC000
7FE000
43F000
01F000
00F000
00F800
00F800
00F800
00FC00
00FC00
01FE00
01FE00
03FE00
03DF00
07DF00
078F00
078F80
0F8F80
0F0780
1F07C0
1F07C0
3E03C0
3E03E0
3C03E0
7C01F0
7C01F0
F801F0
F801F8
ENDCHAR
STARTCHAR 03BC
ENCODING 956
SWIDTH 576 0
DWIDTH 24 0
BBX 21 27 3 -7
BITMAP
F80780
F80780
F80780
F80780
F80780
F80780
F80780
F80780
F80780
F80780
F80780
F80780
F80780
F80F80
F81F80
FC3F80
FFFFF0
FFF7F0
FFE3F0
FBC1F8
F80000
F80000
F80000
F80000
F80000
F80000
F80000
ENDCHAR
STARTCHAR 03BD
ENCODING 957
SWIDTH 504 0
DWIDTH 21 0
BBX 20 20 0 0
BITMAP
F801F0
7C01F0
3C01F0
3E01E0
1E01E0
1F03E0
0F03E0
0F83C0
0783C0
0787C0
07C780
03C780
03CF00
03EF00
01FF00
01FE00
01FE00
01FC00
00F800
00F800
ENDCHAR
STARTCHAR 03BE
ENCODING 958
SWIDTH 456 0
DWIDTH 19 0
BBX 17 37 1 -7
BITMAP
FFFF80
FFFF80
FFFF80
FFFF80
07C000
0F8000
1F0000
1F0000
1F0000
1F0000
1F0000
0F8000
0FC000
07FE00
01FE00
07FE00
0FFE00
1F8000
3E0000
7E0000
7C0000
7C0000
7C0000
7C0000
7E0000
3F8000
3FFC00
1FFF00
0FFF80
01FF80
001F80
000780
000780
000780
000F00
001F00
000600
ENDCHAR
STARTCHAR 03BF
ENCODING 959
SWIDTH 552 0
DWIDTH 23 0
BBX 19 20 2 0
BITMAP
03F800
0FFE00
1FFF00
3FFF80
7E0FC0
7C07C0
F807E0
F803E0
F803E0
F803E0
F803E0
F803E0
F803E0
F807E0
7C07C0
7E0FC0
3FFF80
1FFF00
0FFE00
03F800
ENDCHAR
STARTCHAR 03C0
ENCODING 960
SWIDTH 624 0
DWIDTH 26 0
BBX 24 21 1 -1
BITMAP
FFFFFF
FFFFFF
FFFFFF
FFFFFF
0F81F0
0F81F0
0F81F0
0F81F0
0F81E0
0F81E0
0F81E0
0F81E0
0F81E0
0F81E0
0F01E0
0F01E0
0F01F0
1F01FE
1F01FE
1F00FE
00007E
ENDCHAR
STARTCHAR 03C1
ENCODING 961
SWIDTH 552 0
DWIDTH 23 0
BBX 19 27 3 -7
BITMAP
03F800
0FFE00
1FFF00
3FFF80
7E1FC0
7C07C0
F807C0
F807E0
F803E0
F003E0
F003E0
F003E0
F007C0
F007C0
F80FC0
FE1F80
FFFF80
FFFF00
F7FE00
F9F800
F80000
F80000
F80000
F80000
F80000
F80000
F80000
ENDCHAR
STARTCHAR 03C2
ENCODING 962
SWIDTH 432 0
DWIDTH 18 0
BBX 16 27 2 -7
BITMAP
03F0
0FFC
1FFF
3FFE
7E0C
7C08
F800
F800
F800
F800
F800
F800
F800
FC00
7E00
7F00
3FE0
1FF8
0FFC
03FC
007E
003E
003C
003C
007C
00F8
0030
ENDCHAR
STARTCHAR 03C3
ENCODING 963
SWIDTH 576 0
DWIDTH 24 0
BBX 21 20 2 0
BITMAP
03FFF8
0FFFF8
1FFFF8
3FFFF8
7E1E00
7C0F80
F80780
F807C0
F803C0
F803C0
F803C0
F803C0
F803C0
F807C0
7C07C0
7E1F80
3FFF80
1FFF00
0FFE00
03F000
ENDCHAR
STARTCHAR 03C4
ENCODING 964
SWIDTH 480 0
DWIDTH 20 0
BBX 18 20 1 0
BITMAP
FFFFC0
FFFFC0
FFFFC0
FFFFC0
01E000
01E000
01E000
01E000
01E000
01E000
01E000
01E000
01E000
01E000
01E000
01E000
01FE00
01FE00
00FE00
007F00
ENDCHAR
STARTCHAR 03C5
ENCODING 965
SWIDTH 528 0
DWIDTH 22 0
BBX 18 20 2 0
BITMAP
F81F00
F80F80
F80F80
780F80
780780
780780
7807C0
7807C0
F807C0
F807C0
F807C0
F807C0
F807C0
F80F80
7C0F80
7E1F80
7FFF00
3FFE00
1FFC00
07F000
ENDCHAR
STARTCHAR 03C6
ENCODING 966
SWIDTH 720 0
DWIDTH 30 0
BBX 26 34 2 -7
BITMAP
001E0000
001E0000
001E0000
001E0000
001E0000
001E0000
001E0000
01FFC000
07FFF800
1FFFFC00
3FFFFF00
7F1E3F00
7E1E1F80
FC1E0F80
F81E07C0
F81E07C0
F81E07C0
F81E07C0
F81E07C0
F81E07C0
FC1E0F80
7E1E1F80
7F1E3F00
3FFFFF00
1FFFFC00
07FFF800
01FFC000
001E0000
001E0000
001E0000
001E0000
001E0000
001E0000
001E0000
ENDCHAR
STARTCHAR 03C7
ENCODING 967
SWIDTH 504 0
DWIDTH 21 0
BBX 22 28 0 -8
BITMAP
FC01F0
7C01F0
3E03E0
1E03C0
1F07C0
0F0780
0F8F80
07CF00
03DF00
03FE00
01FE00
01FC00
00FC00
00F800
00FC00
01FE00
03FE00
03DF00
07CF80
078780
0F87C0
0F03E0
1F03E0
3E01F0
3E01F8
7E00F8
7C0064
9C0000
ENDCHAR
STARTCHAR 03C8
ENCODING 968
SWIDTH 720 0
DWIDTH 30 0
BBX 26 34 2 -7
BITMAP
001E0000
001E0000
001E0000
001E0000
001E0000
001E0000
001E0000
F81E0F80
F81E0F80
F81E0F80
781E0780
781E07C0
781E07C0
781E07C0
781E07C0
781E07C0
781E07C0
781E07C0
781E07C0
781E07C0
7C1E0F80
7E1E1F80
3F1E3F80
3FFFFF00
1FFFFE00
07FFF800
01FFE000
001E0000
001E0000
001E0000
001E0000
001E0000
001E0000
001E0000
ENDCHAR
STARTCHAR 03C9
ENCODING 969
SWIDTH 720 0
DWIDTH 30 0
BBX 26 20 2 0
BITMAP
1C000200
3F001F00
3E001F80
7C000F80
7C000FC0
780007C0
F81F07C0
F81F07C0
F81E03C0
F81E03C0
F81E03C0
F81E03C0
F81E07C0
F81E07C0
F83F07C0
7C7F8FC0
7FFFFF80
3FFBFF80
1FF1FF00
07C0FC00
ENDCHAR
STARTCHAR 03CA
ENCODING 970
SWIDTH 288 0
DWIDTH 12 0
BBX 13 29 -1 0
BITMAP
7070
F8F8
F8F8
F8F8
7070
0000
0000
0000
0000
0F80
0F80
0F80
0F80
0F80
0F80
0F80
0F80
0F80
0F80
0F80
0F80
0F80
0F80
0F80
0F80
0FF0
07F0
07F0
03F0
ENDCHAR
STARTCHAR 03CB
ENCODING 971
SWIDTH 528 0
DWIDTH 22 0
BBX 18 29 2 0
BITMAP
1C1E00
3E1E00
3E3F00
3E1E00
1C1E00
000000
000000
000000
000000
F81F00
F80F80
F80F80
780F80
780780
780780
7807C0
7807C0
F807C0
F807C0
F807C0
F807C0
F807C0
F80F80
7C0F80
7E1F80
7FFF00
3FFE00
1FFC00
07F000
ENDCHAR
STARTCHAR 03CC
ENCODING 972
SWIDTH 552 0
DWIDTH 23 0
BBX 19 32 2 0
BITMAP
007000
007C00
007800
007800
00F800
00F000
00F000
00F000
00E000
000000
000000
000000
03F800
0FFE00
1FFF00
3FFF80
7E0FC0
7C07C0
F807E0
F803E0
F803E0
F803E0
F803E0
F803E0
F803E0
F807E0
7C07C0
7E0FC0
3FFF80
1FFF00
0FFE00
03F800
ENDCHAR
STARTCHAR 03CD
ENCODING 973
SWIDTH 528 0
DWIDTH 22 0
BBX 18 32 2 0
BITMAP
00E000
00F800
00F800
00F000
00F000
01E000
01E000
01E000
01C000
000000
000000
000000
F81F00
F80F80
F80F80
780F80
780780
780780
7807C0
7807C0
F807C0
F807C0
F807C0
F807C0
F807C0
F80F80
7C0F80
7E1F80
7FFF00
3FFE00
1FFC00
07F000
ENDCHAR
STARTCHAR 03CE
ENCODING 974
SWIDTH 720 0
DWIDTH 30 0
BBX 26 32 2 0
BITMAP
00070000
0007C000
000F8000
000F8000
000F0000
000F0000
000F0000
000E0000
001E0000
00000000
00000000
00000000
1C000200
3F001F00
3E001F80
7C000F80
7C000FC0
780007C0
F81F07C0
F81F07C0
F81E03C0
F81E03C0
F81E03C0
F81E03C0
F81E07C0
F81E07C0
F83F07C0
7C7F8FC0
7FFFFF80
3FFBFF80
1FF1FF00
07C0FC00
ENDCHAR
STARTCHAR 03D0
ENCODING 976
SWIDTH 576 0
DWIDTH 24 0
BBX 20 30 3 0
BITMAP
03F000
0FFC00
3FFE00
3FFF00
7E1F80
7C0F80
F80F80
F80F80
F80F80
F80F80
F80F00
F81F00
F83E00
F9F800
FFFE00
FFFF80
FF1FC0
F807E0
F803E0
F803E0
F801E0
F801F0
F801F0
F803E0
7C03E0
7F0FE0
3FFFC0
1FFF80
0FFF00
01FC00
ENDCHAR
STARTCHAR 03D1
ENCODING 977
SWIDTH 552 0
DWIDTH 23 0
BBX 18 30 2 0
BITMAP
07E000
0FF800
3FFE00
3FFE00
7E1F00
780F80
F80F80
F80780
F807C0
7807C0
7C07C0
7F07C0
3FFFC0
1FFFC0
0FFFC0
03FFC0
0003C0
7C07C0
7C07C0
7C07C0
7C07C0
7C07C0
7C0780
7C0780
3E0F80
3E1F00
3FFF00
1FFE00
0FFC00
03F000
ENDCHAR
STARTCHAR 03D5
ENCODING 981
SWIDTH 720 0
DWIDTH 30 0
BBX 26 27 2 -7
BITMAP
0801F800
1E07FE00
3F0FFF00
3E0FFF80
7C1F1F80
7C1F0F80
F81E07C0
F81E07C0
F81E07C0
F81E07C0
F81E07C0
F81E07C0
F81E07C0
FC1E0F80
7E1E1F80
7F1E7F00
3FFFFE00
1FFFFC00
07FFF800
01FFC000
001E0000
001E0000
001E0000
001E0000
001E0000
001E0000
001E0000
ENDCHAR
STARTCHAR 03D7
ENCODING 983
SWIDTH 528 0
DWIDTH 22 0
BBX 19 27 3 -7
BITMAP
F80180
F80780
F80F80
F83F80
F87F00
F8FC00
F9F800
F9E000
FBE000
FFE000
FFF000
FEF800
FEF800
FC7C00
F87E00
F83E00
F81F00
F81F80
F80FC0
F807E0
0007E0
0007C0
000F80
001F00
003F00
007E00
00FC00
ENDCHAR
STARTCHAR 03D9
ENCODING 985
SWIDTH 552 0
DWIDTH 23 0
BBX 19 27 2 -7
BITMAP
03F800
0FFE00
1FFF00
3FFF80
7E0FC0
7C07C0
F807E0
F803E0
F803E0
F803E0
F803E0
F803E0
F803E0
F807E0
7C07C0
7E0FC0
3FFF80
3FFF00
0FFE00
03F800
01F000
01F000
01F000
01F000
01F000
01F000
01F000
ENDCHAR
STARTCHAR 03DB
ENCODING 987
SWIDTH 480 0
DWIDTH 20 0
BBX 17 27 2 -7
BITMAP
01FF80
0FFF80
1FFF80
3FFF80
7F0000
7C0000
F80000
F80000
F80000
F80000
F80000
F80000
F80000
FC0000
7E0000
7F8000
3FF000
1FFC00
0FFE00
01FF00
003F00
001F00
000F00
001E00
001E00
003C00
000C00
ENDCHAR
STARTCHAR 03DD
ENCODING 989
SWIDTH 432 0
DWIDTH 18 0
BBX 14 27 3 -7
BITMAP
FFFC
FFFC
FFFC
FFFC
F800
F800
F800
F800
F800
F800
F800
FFF8
FFF8
FFF8
FFF8
F800
F800
F800
F800
F800
F800
F800
F800
F800
F800
F800
F800
ENDCHAR
STARTCHAR 03E1
ENCODING 993
SWIDTH 528 0
DWIDTH 22 0
BBX 20 37 1 -8
BITMAP
0C0000
1E0000
1F8000
3FC000
0FE000
07F000
03F800
01F800
00FC00
007E00
003E00
003F00
007F00
01FF80
07FF80
1FFFC0
FFC7C0
FF07C0
FC03E0
7003E0
4007E0
001FE0
007FE0
03FFF0
0FFDF0
1FF1F0
0FC1F0
0F01F0
0401F0
0001F0
0001F0
0001F0
0001F0
0001F0
0001E0
0003E0
000020
ENDCHAR
STARTCHAR 0400
ENCODING 1024
SWIDTH 552 0
DWIDTH 23 0
BBX 17 38 3 0
BITMAP
040000
0E0000
1F0000
1F8000
07C000
03F000
01E000
004000
000000
000000
FFFF80
FFFF80
FFFF80
FFFF80
F80000
F80000
F80000
F80000
F80000
F80000
F80000
F80000
FFFE00
FFFE00
FFFE00
FFFE00
F80000
F80000
F80000
F80000
F80000
F80000
F80000
F80000
FFFF80
FFFF80
FFFF80
FFFF80
ENDCHAR
STARTCHAR 0401
ENCODING 1025
SWIDTH 552 0
DWIDTH 23 0
BBX 17 35 3 0
BITMAP
1C0E00
3E1F00
3E1F00
3E1F00
1C0E00
000000
000000
FFFF80
FFFF80
FFFF80
FFFF80
F80000
F80000
F80000
F80000
F80000
F80000
F80000
F80000
FFFE00
FFFE00
FFFE00
FFFE00
F80000
F80000
F80000
F80000
F80000
F80000
F80000
F80000
FFFF80
FFFF80
FFFF80
FFFF80
ENDCHAR
STARTCHAR 0402
ENCODING 1026
SWIDTH 696 0
DWIDTH 29 0
BBX 26 28 1 0
BITMAP
FFFFF800
FFFFF800
FFFFF800
FFFFF800
01F00000
01F00000
01F00000
01F00000
01F00000
01F00000
01F00000
01FFF000
01FFFE00
01FFFF00
01FFFF80
01F01F80
01F00FC0
01F007C0
01F007C0
01F003C0
01F007C0
01F007C0
01F007C0
01F00FC0
01F0FF80
01F0FF80
01F0FF00
0000FC00
ENDCHAR
STARTCHAR 0403
ENCODING 1027
SWIDTH 504 0
DWIDTH 21 0
BBX 17 38 3 0
BITMAP
000400
001C00
003E00
007F00
00FC00
01F000
01E000
008000
000000
000000
FFFF80
FFFF80
FFFF80
FFFF80
F80000
F80000
F80000
F80000
F80000
F80000
F80000
F80000
F80000
F80000
F80000
F80000
F80000
F80000
F80000
F80000
F80000
F80000
F80000
F80000
F80000
F80000
F80000
F80000
ENDCHAR
STARTCHAR 0404
ENCODING 1028
SWIDTH 576 0
DWIDTH 24 0
BBX 21 28 2 0
BITMAP
007F00
03FFC0
07FFF0
0FFFF8
1FC1F0
3F0060
3E0000
7C0000
7C0000
780000
F80000
FFFE00
FFFE00
FFFE00
FFFE00
F80000
F80000
F80000
F80000
7C0000
7C0000
3E0020
3F0070
1FC1F0
0FFFF8
07FFF0
03FFC0
007F00
ENDCHAR
STARTCHAR 0405
ENCODING 1029
SWIDTH 552 0
DWIDTH 23 0
BBX 19 28 2 0
BITMAP
01FC00
0FFF00
1FFFC0
3FFFE0
3F07C0
7C0180
7C0000
7C0000
7C0000
7E0000
7F8000
3FE000
1FF800
0FFF00
03FF80
00FFC0
003FE0
000FE0
0003E0
0003E0
0003E0
2003E0
7803E0
FE0FC0
FFFFC0
7FFF80
1FFE00
03F800
ENDCHAR
STARTCHAR 0406
ENCODING 1030
SWIDTH 288 0
DWIDTH 12 0
BBX 5 28 3 0
BITMAP
F8
F8
F8
F8
F8
F8
F8
F8
F8
F8
F8
F8
F8
F8
F8
F8
F8
F8
F8
F8
F8
F8
F8
F8
F8
F8
F8
F8
ENDCHAR
STARTCHAR 0407
ENCODING 1031
SWIDTH 288 0
DWIDTH 12 0
BBX 14 35 -1 0
BITMAP
7038
F87C
F87C
F87C
7038
0000
0000
0F80
0F80
0F80
0F80
0F80
0F80
0F80
0F80
0F80
0F80
0F80
0F80
0F80
0F80
0F80
0F80
0F80
0F80
0F80
0F80
0F80
0F80
0F80
0F80
0F80
0F80
0F80
0F80
ENDCHAR
STARTCHAR 0408
ENCODING 1032
SWIDTH 504 0
DWIDTH 21 0
BBX 16 28 1 0
BITMAP
000F
000F
000F
000F
000F
000F
000F
000F
000F
000F
000F
000F
000F
000F
000F
000F
000F
000F
000F
001F
001F
101F
701F
FC3F
7FFE
7FFC
1FF8
07E0
ENDCHAR
STARTCHAR 0409
ENCODING 1033
SWIDTH 912 0
DWIDTH 38 0
BBX 37 28 0 0
BITMAP
007FFE0000
007FFE0000
007FFE0000
00FFFE0000
00F83E0000
00F83E0000
00F03E0000
00F03E0000
00F03E0000
01F03E0000
01F03E0000
01F03FFE00
01E03FFF80
01E03FFFE0
03E03FFFE0
03E03E07F0
03E03E01F0
03C03E00F0
03C03E00F8
07C03E00F8
07C03E00F0
07803E01F0
0F803E07F0
0F803FFFE0
7F003FFFC0
7F003FFF80
FE003FFC00
FC00000000
ENDCHAR
STARTCHAR 040A
ENCODING 1034
SWIDTH 936 0
DWIDTH 39 0
BBX 34 28 3 0
BITMAP
F800F80000
F800F80000
F800F80000
F800F80000
F800F80000
F800F80000
F800F80000
F800F80000
F800F80000
F800F80000
F800F80000
F800F80000
FFFFFFF000
FFFFFFFE00
FFFFFFFF00
FFFFF81F80
F800F807C0
F800F807C0
F800F803C0
F800F803C0
F800F803C0
F800F807C0
F800F807C0
F800F81FC0
F800FFFF80
F800FFFF00
F800FFFE00
F800FFF000
ENDCHAR
STARTCHAR 040B
ENCODING 1035
SWIDTH 720 0
DWIDTH 30 0
BBX 26 28 1 0
BITMAP
FFFFF800
FFFFF800
FFFFF800
FFFFF800
01F00000
01F00000
01F00000
01F00000
01F00000
01F00000
01F00000
01FFF000
01FFFE00
01FFFF00
01FFFF80
01F01F80
01F00FC0
01F007C0
01F007C0
01F007C0
01F007C0
01F007C0
01F007C0
01F007C0
01F007C0
01F007C0
01F007C0
01F007C0
ENDCHAR
STARTCHAR 040C
ENCODING 1036
SWIDTH 600 0
DWIDTH 25 0
BBX 22 38 3 0
BITMAP
000200
000700
000F80
001F80
003F00
00FC00
007800
002000
000000
000000
F8007C
F800F8
F801F8
F803F8
F807C0
F80780
F80F80
F80F00
F81F00
F81E00
F83E00
F83C00
FFFC00
FFF800
FFFC00
FFFC00
F83E00
F83F00
F81F00
F80F80
F80F80
F807C0
F807E0
F803E0
F801F0
F801F8
F800F8
F8007C
ENDCHAR
STARTCHAR 040D
ENCODING 1037
SWIDTH 672 0
DWIDTH 28 0
BBX 21 38 3 0
BITMAP
010000
038000
07C000
07E000
01F800
00FC00
003800
001000
000000
000000
F800F8
F801F8
F801F8
F803F8
F803F8
F807F8
F807F8
F80FF8
F80F78
F81F78
F81E78
F83E78
F87C78
F87C78
F8F878
F8F878
F9F078
F9E078
FBE078
FBC078
FFC078
FF8078
FF8078
FF0078
FF0078
FE0078
FC0078
FC0078
ENDCHAR
STARTCHAR 040E
ENCODING 1038
SWIDTH 528 0
DWIDTH 22 0
BBX 23 36 0 0
BITMAP
0F83C0
0783C0
07C7C0
03FF80
03FF00
00FE00
000000
000000
FC007E
7C007C
7C007C
3E00F8
3E00F8
1F00F0
1F01F0
0F01F0
0F83E0
0783E0
07C3C0
07C7C0
03C7C0
03E780
01EF80
01EF00
00FF00
00FF00
007E00
007E00
007C00
007C00
007C00
00F800
0FF000
0FF000
1FE000
1F8000
ENDCHAR
STARTCHAR 040F
ENCODING 1039
SWIDTH 648 0
DWIDTH 27 0
BBX 21 35 3 -7
BITMAP
F800F8
F800F8
F800F8
F800F8
F800F8
F800F8
F800F8
F800F8
F800F8
F800F8
F800F8
F800F8
F800F8
F800F8
F800F8
F800F8
F800F8
F800F8
F800F8
F800F8
F800F8
F800F8
F800F8
F800F8
FFFFF8
FFFFF8
FFFFF8
FFFFF8
007800
007800
007800
007800
007800
007800
007800
ENDCHAR
STARTCHAR 0410
ENCODING 1040
SWIDTH 552 0
DWIDTH 23 0
BBX 24 28 0 0
BITMAP
007E00
00FE00
00FE00
00FF00
01EF00
01EF00
01EF80
03E780
03C780
03C7C0
07C3C0
0783C0
0783E0
0783E0
0F81E0
0F01F0
0FFFF0
1FFFF0
1FFFF0
1FFFF8
3E00F8
3E0078
3C007C
7C007C
7C007C
7C003E
F8003E
F8003F
ENDCHAR
STARTCHAR 0411
ENCODING 1041
SWIDTH 600 0
DWIDTH 25 0
BBX 20 28 3 0
BITMAP
FFFFC0
FFFFC0
FFFFC0
FFFFC0
F80000
F80000
F80000
F80000
F80000
F80000
F80000
FFFC00
FFFF80
FFFFC0
FFFFE0
F807E0
F803F0
F801F0
F801F0
F801F0
F801F0
F801F0
F803F0
F807E0
FFFFE0
FFFFC0
FFFF00
FFFC00
ENDCHAR
STARTCHAR 0412
ENCODING 1042
SWIDTH 600 0
DWIDTH 25 0
BBX 21 28 3 0
BITMAP
FFFC00
FFFF00
FFFFC0
FFFFC0
F80FE0
F803E0
F803E0
F803E0
F803E0
F803E0
F80FC0
FFFF80
FFFF00
FFFF00
FFFFC0
F807E0
F801F0
F801F0
F800F0
F800F8
F800F0
F801F0
F801F0
F807F0
FFFFE0
FFFFC0
FFFF80
FFFC00
ENDCHAR
STARTCHAR 0413
ENCODING 1043
SWIDTH 504 0
DWIDTH 21 0
BBX 17 28 3 0
BITMAP
FFFF80
FFFF80
FFFF80
FFFF80
F80000
F80000
F80000
F80000
F80000
F80000
F80000
F80000
F80000
F80000
F80000
F80000
F80000
F80000
F80000
F80000
F80000
F80000
F80000
F80000
F80000
F80000
F80000
F80000
ENDCHAR
STARTCHAR 0414
ENCODING 1044
SWIDTH 648 0
DWIDTH 27 0
BBX 26 35 1 -7
BITMAP
01FFFC00
01FFFC00
01FFFC00
01FFFC00
01E03C00
03E03C00
03E03C00
03E03C00
03C03C00
03C03C00
03C03C00
07C03C00
07C03C00
07C03C00
07803C00
07803C00
0F803C00
0F803C00
0F003C00
0F003C00
1F003C00
1F003C00
1E003C00
3E003C00
FFFFFFC0
FFFFFFC0
FFFFFFC0
FFFFFFC0
F80007C0
F80007C0
F8000780
F8000780
F8000780
F8000780
F8000780
ENDCHAR
STARTCHAR 0415
ENCODING 1045
SWIDTH 552 0
DWIDTH 23 0
BBX 17 28 3 0
BITMAP
FFFF80
FFFF80
FFFF80
FFFF80
F80000
F80000
F80000
F80000
F80000
F80000
F80000
F80000
FFFE00
FFFE00
FFFE00
FFFE00
F80000
F80000
F80000
F80000
F80000
F80000
F80000
F80000
FFFF80
FFFF80
FFFF80
FFFF80
ENDCHAR
STARTCHAR 0416
ENCODING 1046
SWIDTH 840 0
DWIDTH 35 0
BBX 35 28 0 0
BITMAP
F801F003E0
7E01F007C0
7E01F00FC0
7F01F01FC0
0F81F03E00
0781F03C00
07C1F07C00
03C1F07800
03E1F07800
01E1F0F800
01F1F0F000
01F1F1F000
00FFFFE000
00FFFFE000
00FFFFE000
01FFFFF000
01F1F0F000
03E1F0F800
03E1F07C00
07C1F07C00
0F81F03E00
0F81F03E00
1F01F01F00
1F01F01F00
3E01F00F80
3E01F00FC0
7C01F007C0
FC01F007E0
ENDCHAR
STARTCHAR 0417
ENCODING 1047
SWIDTH 552 0
DWIDTH 23 0
BBX 20 28 2 0
BITMAP
03F800
1FFF00
7FFF80
7FFFC0
3C0FC0
1007C0
0003E0
0003E0
0003C0
0007C0
000FC0
03FF80
03FE00
03FF80
03FFC0
000FE0
0003E0
0001F0
0001F0
0001F0
0001F0
2001F0
7003E0
FC0FE0
FFFFC0
7FFF80
1FFF00
07F800
ENDCHAR
STARTCHAR 0418
ENCODING 1048
SWIDTH 672 0
DWIDTH 28 0
BBX 21 28 3 0
BITMAP
F800F8
F801F8
F801F8
F803F8
F803F8
F807F8
F807F8
F80FF8
F80F78
F81F78
F81E78
F83E78
F87C78
F87C78
F8F878
F8F878
F9F078
F9E078
FBE078
FBC078
FFC078
FF8078
FF8078
FF0078
FF0078
FE0078
FC0078
FC0078
ENDCHAR
STARTCHAR 0419
ENCODING 1049
SWIDTH 672 0
DWIDTH 28 0
BBX 21 36 3 0
BITMAP
0F03C0
0F83C0
0787C0
07FF80
03FF00
00FC00
000000
000000
F800F8
F801F8
F801F8
F803F8
F803F8
F807F8
F807F8
F80FF8
F80F78
F81F78
F81E78
F83E78
F87C78
F87C78
F8F878
F8F878
F9F078
F9E078
FBE078
FBC078
FFC078
FF8078
FF8078
FF0078
FF0078
FE0078
FC0078
FC0078
ENDCHAR
STARTCHAR 041A
ENCODING 1050
SWIDTH 600 0
DWIDTH 25 0
BBX 22 28 3 0
BITMAP
F8007C
F800F8
F801F8
F803F8
F807C0
F80780
F80F80
F80F00
F81F00
F81E00
F83E00
F83C00
FFFC00
FFF800
FFFC00
FFFC00
F83E00
F83F00
F81F00
F80F80
F80F80
F807C0
F807E0
F803E0
F801F0
F801F8
F800F8
F8007C
ENDCHAR
STARTCHAR 041B
ENCODING 1051
SWIDTH 648 0
DWIDTH 27 0
BBX 24 28 0 0
BITMAP
007FFF
00FFFF
00FFFF
00FFFF
00F01F
00F01F
00F01F
01F01F
01F01F
01E01F
01E01F
01E01F
03E01F
03E01F
03E01F
03C01F
03C01F
07C01F
07C01F
07C01F
07801F
0F801F
0F801F
1F001F
7F001F
FE001F
FE001F
F80000
ENDCHAR
STARTCHAR 041C
ENCODING 1052
SWIDTH 744 0
DWIDTH 31 0
BBX 25 28 3 0
BITMAP
FC001F80
FE001F80
FE003F80
FE003F80
FF003F80
FF007F80
F7007F80
F7807780
F780F780
FB80F780
FBC0E780
FBC1EF80
F9C1EF80
F9E1CF80
F9E3CF80
F8E3CF80
F8F38F80
F8F78F80
F8778F80
F87F0F80
F87F0F80
F83E0F80
F83E0F80
F83E0F80
F81C0F80
F8000F80
F8000F80
F8000F80
ENDCHAR
STARTCHAR 041D
ENCODING 1053
SWIDTH 672 0
DWIDTH 28 0
BBX 21 28 3 0
BITMAP
F800F8
F800F8
F800F8
F800F8
F800F8
F800F8
F800F8
F800F8
F800F8
F800F8
F800F8
F800F8
FFFFF8
FFFFF8
FFFFF8
FFFFF8
F800F8
F800F8
F800F8
F800F8
F800F8
F800F8
F800F8
F800F8
F800F8
F800F8
F800F8
F800F8
ENDCHAR
STARTCHAR 041E
ENCODING 1054
SWIDTH 672 0
DWIDTH 28 0
BBX 24 28 2 0
BITMAP
007F00
03FFC0
07FFF0
0FFFF8
1FC1FC
3F00FC
3E007E
7C003E
7C003F
7C001F
F8001F
F8001F
F8001F
F8001F
F8001F
F8001F
F8001F
F8001F
7C001F
7C003F
7E003E
3E007E
3F00FC
1FC1FC
0FFFF8
07FFF0
03FFC0
007F00
ENDCHAR
STARTCHAR 041F
ENCODING 1055
SWIDTH 648 0
DWIDTH 27 0
BBX 21 28 3 0
BITMAP
FFFFF8
FFFFF8
FFFFF8
FFFFF8
F800F8
F800F8
F800F8
F800F8
F800F8
F800F8
F800F8
F800F8
F800F8
F800F8
F800F8
F800F8
F800F8
F800F8
F800F8
F800F8
F800F8
F800F8
F800F8
F800F8
F800F8
F800F8
F800F8
F800F8
ENDCHAR
STARTCHAR 0420
ENCODING 1056
SWIDTH 576 0
DWIDTH 24 0
BBX 20 28 3 0
BITMAP
FFFC00
FFFF00
FFFF80
FFFFC0
F80FE0
F803E0
F801F0
F801F0
F801F0
F801F0
F801F0
F803E0
F803E0
F80FE0
FFFFC0
FFFF80
FFFF00
FFF800
F80000
F80000
F80000
F80000
F80000
F80000
F80000
F80000
F80000
F80000
ENDCHAR
STARTCHAR 0421
ENCODING 1057
SWIDTH 576 0
DWIDTH 24 0
BBX 21 28 2 0
BITMAP
007F00
01FFC0
07FFF0
0FFFF8
1FC1F0
3F0060
3E0000
7E0000
7C0000
7C0000
F80000
F80000
F80000
F80000
F80000
F80000
F80000
F80000
7C0000
7C0000
7E0000
3E0020
3F0070
1FC1F0
0FFFF8
07FFF0
03FFC0
007F00
ENDCHAR
STARTCHAR 0422
ENCODING 1058
SWIDTH 552 0
DWIDTH 23 0
BBX 21 28 1 0
BITMAP
FFFFF8
FFFFF8
FFFFF8
FFFFF8
00F800
00F800
00F800
00F800
00F800
00F800
00F800
00F800
00F800
00F800
00F800
00F800
00F800
00F800
00F800
00F800
00F800
00F800
00F800
00F800
00F800
00F800
00F800
00F800
ENDCHAR
STARTCHAR 0423
ENCODING 1059
SWIDTH 528 0
DWIDTH 22 0
BBX 23 28 0 0
BITMAP
FC007E
7C007C
7C007C
3E00F8
3E00F8
1F00F0
1F01F0
0F01F0
0F83E0
0783E0
07C3C0
07C7C0
03C7C0
03E780
01EF80
01EF00
00FF00
00FF00
007E00
007E00
007C00
007C00
007C00
00F800
0FF000
0FF000
1FE000
1F8000
ENDCHAR
STARTCHAR 0424
ENCODING 1060
SWIDTH 744 0
DWIDTH 31 0
BBX 27 28 2 0
BITMAP
000F0000
000F0000
000F0000
000F0000
00FFF000
07FFFC00
1FFFFF00
3FFFFF80
3F8F1FC0
7E0F07C0
7C0F03E0
F80F03E0
F80F01E0
F80F01E0
F80F01E0
F80F01E0
F80F01E0
F80F03E0
7C0F03E0
7E0F07C0
3F8F1FC0
3FFFFF80
0FFFFF00
07FFFC00
00FFE000
000F0000
000F0000
000F0000
ENDCHAR
STARTCHAR 0425
ENCODING 1061
SWIDTH 552 0
DWIDTH 23 0
BBX 21 28 1 0
BITMAP
FC01F8
7C01F0
7E03E0
3E03E0
3F07C0
1F07C0
0F8F80
0F8F80
07CF00
07DF00
03FE00
03FE00
01FC00
01FC00
01FC00
03FC00
03FE00
07FE00
079F00
0F9F00
0F0F80
1F0FC0
1E07C0
3E07E0
7C03E0
7C03F0
F801F0
F800F8
ENDCHAR
STARTCHAR 0426
ENCODING 1062
SWIDTH 672 0
DWIDTH 28 0
BBX 24 35 3 -7
BITMAP
F800F8
F800F8
F800F8
F800F8
F800F8
F800F8
F800F8
F800F8
F800F8
F800F8
F800F8
F800F8
F800F8
F800F8
F800F8
F800F8
F800F8
F800F8
F800F8
F800F8
F800F8
F800F8
F800F8
F800F8
FFFFFF
FFFFFF
FFFFFF
FFFFFF
00001F
00001F
00001F
00001E
00001E
00001E
00001E
ENDCHAR
STARTCHAR 0427
ENCODING 1063
SWIDTH 624 0
DWIDTH 26 0
BBX 19 28 3 0
BITMAP
F003E0
F003E0
F003E0
F003E0
F003E0
F003E0
F003E0
F003E0
F803E0
F803E0
F803E0
FC03E0
7E03E0
7FFFE0
3FFFE0
1FFFE0
03FFE0
0003E0
0003E0
0003E0
0003E0
0003E0
0003E0
0003E0
0003E0
0003E0
0003E0
0003E0
ENDCHAR
STARTCHAR 0428
ENCODING 1064
SWIDTH 888 0
DWIDTH 37 0
BBX 31 28 3 0
BITMAP
F807C03E
F807C03E
F807C03E
F807C03E
F807C03E
F807C03E
F807C03E
F807C03E
F807C03E
F807C03E
F807C03E
F807C03E
F807C03E
F807C03E
F807C03E
F807C03E
F807C03E
F807C03E
F807C03E
F807C03E
F807C03E
F807C03E
F807C03E
F807C03E
FFFFFFFE
FFFFFFFE
FFFFFFFE
FFFFFFFE
ENDCHAR
STARTCHAR 0429
ENCODING 1065
SWIDTH 912 0
DWIDTH 38 0
BBX 34 35 3 -7
BITMAP
F807C03E00
F807C03E00
F807C03E00
F807C03E00
F807C03E00
F807C03E00
F807C03E00
F807C03E00
F807C03E00
F807C03E00
F807C03E00
F807C03E00
F807C03E00
F807C03E00
F807C03E00
F807C03E00
F807C03E00
F807C03E00
F807C03E00
F807C03E00
F807C03E00
F807C03E00
F807C03E00
F807C03E00
FFFFFFFFC0
FFFFFFFFC0
FFFFFFFFC0
FFFFFFFFC0
00000007C0
00000007C0
00000007C0
00000007C0
00000007C0
00000007C0
00000007C0
ENDCHAR
STARTCHAR 042A
ENCODING 1066
SWIDTH 720 0
DWIDTH 30 0
BBX 28 28 1 0
BITMAP
FFF80000
FFF80000
FFF80000
FFF80000
00780000
00780000
00780000
00780000
00780000
00780000
00780000
007FF800
007FFF00
007FFF80
007FFFC0
00780FE0
007803E0
007801F0
007801F0
007801F0
007801F0
007801F0
007803E0
00780FE0
007FFFC0
007FFF80
007FFF00
007FFC00
ENDCHAR
STARTCHAR 042B
ENCODING 1067
SWIDTH 840 0
DWIDTH 35 0
BBX 28 28 3 0
BITMAP
F80001F0
F80001F0
F80001F0
F80001F0
F80001F0
F80001F0
F80001F0
F80001F0
F80001F0
F80001F0
F80001F0
FFF801F0
FFFF01F0
FFFF81F0
FFFFC1F0
F80FE1F0
F803E1F0
F803E1F0
F803E1F0
F803E1F0
F803E1F0
F803E1F0
F807E1F0
F80FC1F0
FFFFC1F0
FFFF81F0
FFFF01F0
FFF801F0
ENDCHAR
STARTCHAR 042C
ENCODING 1068
SWIDTH 600 0
DWIDTH 25 0
BBX 20 28 3 0
BITMAP
F80000
F80000
F80000
F80000
F80000
F80000
F80000
F80000
F80000
F80000
F80000
FFFC00
FFFF00
FFFFC0
FFFFE0
F807E0
F803F0
F801F0
F801F0
F801F0
F801F0
F801F0
F803F0
F807E0
FFFFE0
FFFFC0
FFFF00
FFFC00
ENDCHAR
STARTCHAR 042D
ENCODING 1069
SWIDTH 576 0
DWIDTH 24 0
BBX 21 28 1 0
BITMAP
03F800
1FFE00
3FFF80
7FFFC0
3C0FE0
1003E0
0001F0
0001F0
0000F0
0000F8
0000F8
03FFF8
03FFF8
03FFF8
03FFF8
0000F8
0000F8
0000F8
0000F8
0001F0
0001F0
2003F0
3007E0
7C0FE0
FFFFC0
3FFF80
1FFE00
07F800
ENDCHAR
STARTCHAR 042E
ENCODING 1070
SWIDTH 936 0
DWIDTH 39 0
BBX 34 28 3 0
BITMAP
F8001FC000
F8007FF000
F801FFFC00
F803FFFE00
F807F07E00
F807C03F00
F80F801F80
F80F800F80
F81F000F80
F81F000F80
F81F0007C0
F81F0007C0
FFFF0007C0
FFFF0007C0
FFFF0007C0
FFFF0007C0
F81F0007C0
F81F0007C0
F81F000F80
F81F000F80
F80F800F80
F80FC01F00
F807C03F00
F807F07E00
F803FFFE00
F801FFF800
F800FFF000
F8001FC000
ENDCHAR
STARTCHAR 042F
ENCODING 1071
SWIDTH 600 0
DWIDTH 25 0
BBX 21 28 1 0
BITMAP
01FFF8
07FFF8
1FFFF8
1FFFF8
3F00F8
3E00F8
7C00F8
7C00F8
7C00F8
7C00F8
7E00F8
3E00F8
3F80F8
1FFFF8
0FFFF8
07FFF8
01FFF8
03E0F8
03E0F8
07C0F8
0FC0F8
0F80F8
1F80F8
1F00F8
3E00F8
7E00F8
7C00F8
FC00F8
ENDCHAR
STARTCHAR 0430
ENCODING 1072
SWIDTH 528 0
DWIDTH 22 0
BBX 17 20 2 0
BITMAP
03F800
1FFC00
7FFE00
7FFF00
3C1F00
200F80
000F80
007F80
07FF80
1FFF80
7F8F80
7C0F80
F80F80
F80F80
F81F80
FC3F80
FFFF80
7FF780
3FE780
1F8000
ENDCHAR
STARTCHAR 0431
ENCODING 1073
SWIDTH 552 0
DWIDTH 23 0
BBX 19 30 2 0
BITMAP
0000C0
003FC0
01FFC0
07FFC0
0FFFA0
1FE000
3F0000
3E0000
7C0000
7C0000
78FC00
F9FF00
FFFF80
FFFFC0
FF0FC0
FC07E0
F803E0
F803E0
F803E0
F803E0
F803E0
F803E0
7803E0
7C03E0
7C07C0
3F0FC0
3FFF80
1FFF00
0FFE00
01F800
ENDCHAR
STARTCHAR 0432
ENCODING 1074
SWIDTH 528 0
DWIDTH 22 0
BBX 17 20 3 0
BITMAP
FFF800
FFFE00
FFFF00
FFFF00
F81F00
F80F00
F81F00
FFFE00
FFF800
FFFE00
FFFF00
F81F80
F80F80
F80F80
F80F80
F81F80
FFFF80
FFFF00
FFFE00
FFF800
ENDCHAR
STARTCHAR 0433
ENCODING 1075
SWIDTH 432 0
DWIDTH 18 0
BBX 14 20 3 0
BITMAP
FFFC
FFFC
FFFC
FFFC
F800
F800
F800
F800
F800
F800
F800
F800
F800
F800
F800
F800
F800
F800
F800
F800
ENDCHAR
STARTCHAR 0434
ENCODING 1076
SWIDTH 552 0
DWIDTH 23 0
BBX 22 27 1 -7
BITMAP
0FFFE0
0FFFE0
0FFFE0
0FFFE0
0F03E0
0F03E0
0F03E0
0F03E0
1F03E0
1F03E0
1F03E0
1E03E0
1E03E0
3E03E0
3C03E0
7C03E0
FFFFFC
FFFFFC
FFFFFC
FFFFFC
F0007C
F0007C
F0007C
F00078
F00078
F00078
F00078
ENDCHAR
STARTCHAR 0435
ENCODING 1077
SWIDTH 504 0
DWIDTH 21 0
BBX 18 20 2 0
BITMAP
03F000
0FFC00
1FFF00
3FFF00
7E0F80
7C0780
F80780
F803C0
FFFFC0
FFFFC0
FFFFC0
F00000
F80000
F80000
7C0200
7F0700
3FFF00
1FFF80
0FFF00
03F800
ENDCHAR
STARTCHAR 0436
ENCODING 1078
SWIDTH 720 0
DWIDTH 30 0
BBX 30 20 0 0
BITMAP
7C078078
7E0781F8
3F0783F8
3F8783F0
0F8787C0
07C78780
03C78F80
03FFFF00
01FFFF00
01FFFF00
03FFFF00
07C78F80
07C78780
0F8787C0
0F8783E0
1F0783E0
3E0781F0
3E0781F0
7C0780F8
FC0780FC
ENDCHAR
STARTCHAR 0437
ENCODING 1079
SWIDTH 480 0
DWIDTH 20 0
BBX 17 20 1 0
BITMAP
07F000
3FFC00
7FFE00
7FFF00
381F00
200F00
001F00
07FE00
07F800
07FE00
07FF00
001F80
000F80
000F80
200F80
781F80
7FFF00
FFFE00
3FFC00
0FF000
ENDCHAR
STARTCHAR 0438
ENCODING 1080
SWIDTH 576 0
DWIDTH 24 0
BBX 18 20 3 0
BITMAP
F807C0
F807C0
F80FC0
F81FC0
F81FC0
F83FC0
F87BC0
F87BC0
F8F3C0
F9E7C0
F9E7C0
FBC7C0
F787C0
F787C0
FF07C0
FF07C0
FE07C0
FC07C0
FC07C0
F807C0
ENDCHAR
STARTCHAR 0439
ENCODING 1081
SWIDTH 576 0
DWIDTH 24 0
BBX 18 31 3 0
BITMAP
3C0F00
3C0F00
1E0F00
1E1E00
0FFE00
07FC00
03F000
000000
000000
000000
000000
F807C0
F807C0
F80FC0
F81FC0
F81FC0
F83FC0
F87BC0
F87BC0
F8F3C0
F9E7C0
F9E7C0
FBC7C0
F787C0
F787C0
FF07C0
FF07C0
FE07C0
FC07C0
FC07C0
F807C0
ENDCHAR
STARTCHAR 043A
ENCODING 1082
SWIDTH 528 0
DWIDTH 22 0
BBX 19 20 3 0
BITMAP
F80780
F81F80
F81F80
F83F80
F87C00
F87800
F8F800
FFF000
FFF000
FFF000
FFF800
F8F800
F87C00
F87C00
F83E00
F81F00
F81F00
F80F80
F80FC0
F807E0
ENDCHAR
STARTCHAR 043B
ENCODING 1083
SWIDTH 552 0
DWIDTH 23 0
BBX 20 20 0 0
BITMAP
03FFF0
03FFF0
03FFF0
03FFF0
03C1F0
07C1F0
07C1F0
07C1F0
0781F0
0781F0
0781F0
0781F0
0781F0
0F81F0
0F81F0
1F01F0
7F01F0
7E01F0
7E01F0
F801F0
ENDCHAR
STARTCHAR 043C
ENCODING 1084
SWIDTH 648 0
DWIDTH 27 0
BBX 21 20 3 0
BITMAP
FC01F8
FC01F8
FE01F8
FE03F8
FE03F8
FF07F8
FF07F8
F78778
F78F78
F38E78
F3CE78
F3DE78
F1DC78
F1FC78
F0FC78
F0F878
F0F878
F07078
F00078
F00078
ENDCHAR
STARTCHAR 043D
ENCODING 1085
SWIDTH 576 0
DWIDTH 24 0
BBX 18 20 3 0
BITMAP
F807C0
F807C0
F807C0
F807C0
F807C0
F807C0
F807C0
FFFFC0
FFFFC0
FFFFC0
FFFFC0
F807C0
F807C0
F807C0
F807C0
F807C0
F807C0
F807C0
F807C0
F807C0
ENDCHAR
STARTCHAR 043E
ENCODING 1086
SWIDTH 552 0
DWIDTH 23 0
BBX 19 20 2 0
BITMAP
03F800
0FFE00
1FFF00
3FFF80
7E0FC0
7C07C0
F803E0
F803E0
F803E0
F803E0
F803E0
F803E0
F803E0
F803E0
7C07C0
7E0FC0
3FFF80
1FFF00
0FFE00
03F800
ENDCHAR
STARTCHAR 043F
ENCODING 1087
SWIDTH 576 0
DWIDTH 24 0
BBX 18 20 3 0
BITMAP
FFFFC0
FFFFC0
FFFFC0
FFFFC0
F807C0
F807C0
F807C0
F807C0
F807C0
F807C0
F807C0
F807C0
F807C0
F807C0
F807C0
F807C0
F807C0
F807C0
F807C0
F807C0
ENDCHAR
STARTCHAR 0440
ENCODING 1088
SWIDTH 576 0
DWIDTH 24 0
BBX 19 29 3 -9
BITMAP
F0FC00
F3FF00
FFFF80
FFFF80
FE0FC0
FC07C0
F807E0
F803E0
F803E0
F803E0
F803E0
F803E0
F803E0
F807C0
FC0FC0
FE1F80
FFFF80
FFFF00
FBFE00
F9F800
F80000
F80000
F80000
F80000
F80000
F80000
F80000
F80000
F80000
ENDCHAR
STARTCHAR 0441
ENCODING 1089
SWIDTH 456 0
DWIDTH 19 0
BBX 16 20 2 0
BITMAP
01F8
0FFE
1FFF
3FFE
7F0E
7C04
FC00
F800
F800
F800
F800
F800
F800
FC00
7C02
7F0E
3FFF
1FFF
0FFE
03F8
ENDCHAR
STARTCHAR 0442
ENCODING 1090
SWIDTH 480 0
DWIDTH 20 0
BBX 18 20 1 0
BITMAP
FFFFC0
FFFFC0
FFFFC0
FFFFC0
01E000
01E000
01E000
01E000
01E000
01E000
01E000
01E000
01E000
01E000
01E000
01E000
01E000
01E000
01E000
01E000
ENDCHAR
STARTCHAR 0443
ENCODING 1091
SWIDTH 504 0
DWIDTH 21 0
BBX 20 29 0 -9
BITMAP
FC01F0
7C01F0
3C01E0
3E01E0
3E03E0
1E03C0
1F03C0
0F07C0
0F0780
0F8780
078F80
078F00
03CF00
03CF00
03DE00
01FE00
01FE00
01FC00
00FC00
00FC00
007800
00F800
00F000
01F000
03E000
3FE000
3FC000
3F8000
3E0000
ENDCHAR
STARTCHAR 0444
ENCODING 1092
SWIDTH 768 0
DWIDTH 32 0
BBX 28 39 2 -9
BITMAP
000F0000
000F0000
000F0000
000F0000
000F0000
000F0000
000F0000
000F0000
000F0000
000F0000
07CF3E00
1FFFFF80
3FFFFFC0
3FFFFFE0
7E1F87E0
7C0F03E0
F80F03F0
F80F01F0
F80F01F0
F80F01F0
F80F01F0
F80F01F0
F80F01F0
F80F03F0
FC0F03E0
7E1F87E0
7FFFFFC0
3FFFFF80
1FFFFF00
07CF7E00
000F0000
000F0000
000F0000
000F0000
000F0000
000F0000
000F0000
000F0000
000F0000
ENDCHAR
STARTCHAR 0445
ENCODING 1093
SWIDTH 480 0
DWIDTH 20 0
BBX 19 20 1 0
BITMAP
FC07C0
7C0F80
3E0F80
3E1F00
1F1E00
0F3E00
0FBC00
07FC00
07F800
03F000
03F000
07F800
0FFC00
0F7C00
1F3E00
3E1F00
3E1F00
7C0F80
780FC0
F807E0
ENDCHAR
STARTCHAR 0446
ENCODING 1094
SWIDTH 576 0
DWIDTH 24 0
BBX 21 27 3 -7
BITMAP
F80780
F80780
F80780
F80780
F80780
F80780
F80780
F80780
F80780
F80780
F80780
F80780
F80780
F80780
F80780
F80780
FFFFF8
FFFFF8
FFFFF8
FFFFF0
0000F0
0000F0
0000F0
0000F0
0000F0
0000F0
0000F0
ENDCHAR
STARTCHAR 0447
ENCODING 1095
SWIDTH 528 0
DWIDTH 22 0
BBX 17 20 2 0
BITMAP
F80F80
F80F80
F80F80
F80F80
F80F80
F80F80
F80F80
FC0F80
7E0F80
7FFF80
3FFF80
1FFF80
07FF80
000F80
000F80
000F80
000F80
000F80
000F80
000F80
ENDCHAR
STARTCHAR 0448
ENCODING 1096
SWIDTH 792 0
DWIDTH 33 0
BBX 27 20 3 0
BITMAP
F81F03E0
F81F03E0
F81F03E0
F81F03E0
F81F03E0
F81F03E0
F81F03E0
F81F03E0
F81F03E0
F81F03E0
F81F03E0
F81F03E0
F81F03E0
F81F03E0
F81F03E0
F81F03E0
FFFFFFE0
FFFFFFE0
FFFFFFE0
FFFFFFE0
ENDCHAR
STARTCHAR 0449
ENCODING 1097
SWIDTH 792 0
DWIDTH 33 0
BBX 30 27 3 -7
BITMAP
F81F03E0
F81F03E0
F81F03E0
F81F03E0
F81F03E0
F81F03E0
F81F03E0
F81F03E0
F81F03E0
F81F03E0
F81F03E0
F81F03E0
F81F03E0
F81F03E0
F81F03E0
F81F03E0
FFFFFFFC
FFFFFFFC
FFFFFFFC
FFFFFFFC
0000007C
0000007C
00000078
00000078
00000078
00000078
00000078
ENDCHAR
STARTCHAR 044A
ENCODING 1098
SWIDTH 624 0
DWIDTH 26 0
BBX 23 20 1 0
BITMAP
FFF000
FFF000
FFF000
FFF000
01F000
01F000
01FFC0
01FFF0
01FFFC
01FFFC
01F07E
01F03E
01F03E
01F03E
01F03E
01F07E
01FFFC
01FFFC
01FFF0
01FFC0
ENDCHAR
STARTCHAR 044B
ENCODING 1099
SWIDTH 720 0
DWIDTH 30 0
BBX 24 20 3 0
BITMAP
F8001F
F8001F
F8001F
F8001F
F8001F
F8001F
FFE01F
FFF81F
FFFC1F
FFFE1F
F87E1F
F81F1F
F81F1F
F81F1F
F81F1F
F87E1F
FFFE1F
FFFC1F
FFF81F
FFE01F
ENDCHAR
STARTCHAR 044C
ENCODING 1100
SWIDTH 504 0
DWIDTH 21 0
BBX 17 20 3 0
BITMAP
F80000
F80000
F80000
F80000
F80000
F80000
FFF000
FFFC00
FFFE00
FFFF00
F83F00
F80F00
F80F80
F80F80
F81F00
F83F00
FFFF00
FFFE00
FFFC00
FFF000
ENDCHAR
STARTCHAR 044D
ENCODING 1101
SWIDTH 456 0
DWIDTH 19 0
BBX 17 20 1 0
BITMAP
0FC000
3FF800
FFFC00
7FFE00
303E00
401F00
000F00
0FFF00
0FFF80
0FFF80
0FFF80
000F80
000F00
001F00
401F00
707E00
FFFE00
FFFC00
7FF800
0FC000
ENDCHAR
STARTCHAR 044E
ENCODING 1102
SWIDTH 768 0
DWIDTH 32 0
BBX 27 20 3 0
BITMAP
F801F800
F80FFE00
F81FFF00
F83FFF80
F83F0FC0
F87C07C0
F87C07E0
FFF803E0
FFF803E0
FFF803E0
FFF803E0
F87803E0
F87803E0
F87C07E0
F83C07C0
F83F0FC0
F81FFF80
F80FFF00
F807FE00
F801F800
ENDCHAR
STARTCHAR 044F
ENCODING 1103
SWIDTH 528 0
DWIDTH 22 0
BBX 18 20 1 0
BITMAP
03FFC0
0FFFC0
1FFFC0
3FFFC0
3F07C0
3E07C0
3E07C0
3E07C0
3F07C0
1FFFC0
1FFFC0
07FFC0
07FFC0
07C7C0
0F87C0
1F87C0
1F07C0
3E07C0
7C07C0
FC07C0
ENDCHAR
STARTCHAR 0450
ENCODING 1104
SWIDTH 504 0
DWIDTH 21 0
BBX 18 34 2 0
BITMAP
040000
0E0000
1F0000
3F0000
1F8000
07C000
03E000
01F000
00E000
004000
000000
000000
000000
000000
03F000
0FFC00
1FFF00
3FFF00
7E0F80
7C0780
F80780
F803C0
FFFFC0
FFFFC0
FFFFC0
F00000
F80000
F80000
7C0200
7F0700
3FFF00
1FFF80
0FFF00
03F800
ENDCHAR
STARTCHAR 0451
ENCODING 1105
SWIDTH 504 0
DWIDTH 21 0
BBX 18 29 2 0
BITMAP
1C0E00
1E1F00
3E1F00
1E1F00
1C0E00
000000
000000
000000
000000
03F000
0FFC00
1FFF00
3FFF00
7E0F80
7C0780
F80780
F803C0
FFFFC0
FFFFC0
FFFFC0
F00000
F80000
F80000
7C0200
7F0700
3FFF00
1FFF80
0FFF00
03F800
ENDCHAR
STARTCHAR 0452
ENCODING 1106
SWIDTH 576 0
DWIDTH 24 0
BBX 22 39 0 -9
BITMAP
1F0000
1F0000
1F0000
FFFE00
FFFE00
1F0000
1F0000
1F0000
1F0000
1F1F80
1F3FC0
1F7FE0
1FFFF0
1FE3F0
1F81F8
1F80F8
1F00F8
1F00F8
1F007C
1F007C
1F007C
1F007C
1F007C
1F007C
1F007C
1F007C
1F007C
1F00F8
1F00F8
1F00F8
0000F8
0000F8
0001F0
0001F0
0003F0
003FE0
003FC0
003F80
003F00
ENDCHAR
STARTCHAR 0453
ENCODING 1107
SWIDTH 432 0
DWIDTH 18 0
BBX 14 34 3 0
BITMAP
0010
0038
007C
00FC
01F8
03F0
03E0
07C0
0380
0100
0000
0000
0000
0000
FFFC
FFFC
FFFC
FFFC
F800
F800
F800
F800
F800
F800
F800
F800
F800
F800
F800
F800
F800
F800
F800
F800
ENDCHAR
STARTCHAR 0454
ENCODING 1108
SWIDTH 456 0
DWIDTH 19 0
BBX 16 20 2 0
BITMAP
01F8
0FFE
1FFF
3FFE
7E0E
7804
F800
FFF8
FFF8
FFF8
FFF8
F000
F800
F800
7C02
7E0E
3FFF
1FFF
0FFE
03F8
ENDCHAR
STARTCHAR 0455
ENCODING 1109
SWIDTH 432 0
DWIDTH 18 0
BBX 16 20 1 0
BITMAP
07F0
1FFC
3FFE
3FFE
7C1C
7C08
7C00
7E00
3FC0
1FF8
07FC
00FE
003F
001F
201F
783F
FFFE
7FFE
3FF8
07E0
ENDCHAR
STARTCHAR 0456
ENCODING 1110
SWIDTH 264 0
DWIDTH 11 0
BBX 5 30 3 0
BITMAP
20
F8
F8
F8
F8
70
00
00
00
00
F8
F8
F8
F8
F8
F8
F8
F8
F8
F8
F8
F8
F8
F8
F8
F8
F8
F8
F8
F8
ENDCHAR
STARTCHAR 0457
ENCODING 1111
SWIDTH 264 0
DWIDTH 11 0
BBX 13 29 -1 0
BITMAP
7070
F8F8
F8F8
F8F8
7070
0000
0000
0000
0000
0F80
0F80
0F80
0F80
0F80
0F80
0F80
0F80
0F80
0F80
0F80
0F80
0F80
0F80
0F80
0F80
0F80
0F80
0F80
0F80
ENDCHAR
STARTCHAR 0458
ENCODING 1112
SWIDTH 264 0
DWIDTH 11 0
BBX 11 39 -2 -9
BITMAP
0100
07C0
07C0
07E0
07C0
0380
0000
0000
0000
0000
07C0
07C0
07C0
07C0
07C0
07C0
07C0
07C0
07C0
07C0
07C0
07C0
07C0
07C0
07C0
07C0
07C0
07C0
07C0
07C0
07C0
07C0
07C0
07C0
0FC0
7F80
7F80
FF00
FC00
ENDCHAR
STARTCHAR 0459
ENCODING 1113
SWIDTH 768 0
DWIDTH 32 0
BBX 30 20 0 0
BITMAP
03FFE000
03FFE000
03FFE000
03FFE000
03C1E000
03C1E000
07C1FFC0
07C1FFF0
07C1FFF8
07C1FFFC
07C1E0FC
0781E07C
0781E03C
0781E07C
0F81E0FC
1F81FFFC
7F01FFF8
7F01FFF0
7E01FFC0
F8000000
ENDCHAR
STARTCHAR 045A
ENCODING 1114
SWIDTH 792 0
DWIDTH 33 0
BBX 28 20 3 0
BITMAP
F80F8000
F80F8000
F80F8000
F80F8000
F80F8000
F80F8000
F80FFE00
FFFFFF80
FFFFFFC0
FFFFFFE0
FFFF83F0
F80F81F0
F80F81F0
F80F81F0
F80F81F0
F80F83F0
F80FFFE0
F80FFFC0
F80FFF80
F80FFE00
ENDCHAR
STARTCHAR 045B
ENCODING 1115
SWIDTH 552 0
DWIDTH 23 0
BBX 21 30 0 0
BITMAP
1F0000
1F0000
1F0000
FFFE00
FFFE00
1F0000
1F0000
1F0000
1F0000
1F0000
1F1F80
1F3FE0
1FFFE0
1FFFF0
1FE1F0
1F81F0
1F00F8
1F00F8
1F00F8
1F00F8
1F00F8
1F00F8
1F00F8
1F00F8
1F00F8
1F00F8
1F00F8
1F00F8
1F00F8
1F00F8
ENDCHAR
STARTCHAR 045C
ENCODING 1116
SWIDTH 528 0
DWIDTH 22 0
BBX 19 34 3 0
BITMAP
000800
001C00
001E00
003F00
007E00
00FC00
01F800
01F000
01E000
008000
000000
000000
000000
000000
F80780
F81F80
F81F80
F83F80
F87C00
F87800
F8F800
FFF000
FFF000
FFF000
FFF800
F8F800
F87C00
F87C00
F83E00
F81F00
F81F00
F80F80
F80FC0
F807E0
ENDCHAR
STARTCHAR 045D
ENCODING 1117
SWIDTH 576 0
DWIDTH 24 0
BBX 18 34 3 0
BITMAP
040000
0E0000
1F0000
3F0000
1F8000
07C000
03E000
01F000
00E000
004000
000000
000000
000000
000000
F807C0
F807C0
F80FC0
F81FC0
F81FC0
F83FC0
F87BC0
F87BC0
F8F3C0
F9E7C0
F9E7C0
FBC7C0
F787C0
F787C0
FF07C0
FF07C0
FE07C0
FC07C0
FC07C0
F807C0
ENDCHAR
STARTCHAR 045E
ENCODING 1118
SWIDTH 504 0
DWIDTH 21 0
BBX 20 40 0 -9
BITMAP
0F03C0
0F0380
0F0780
078F80
07FF00
03FE00
00FC00
000000
000000
000000
000000
FC01F0
7C01F0
3C01E0
3E01E0
3E03E0
1E03C0
1F03C0
0F07C0
0F0780
0F8780
078F80
078F00
03CF00
03CF00
03DE00
01FE00
01FE00
01FC00
00FC00
00FC00
007800
00F800
00F000
01F000
03E000
3FE000
3FC000
3F8000
3E0000
ENDCHAR
STARTCHAR 045F
ENCODING 1119
SWIDTH 576 0
DWIDTH 24 0
BBX 18 27 3 -7
BITMAP
F807C0
F807C0
F807C0
F807C0
F807C0
F807C0
F807C0
F807C0
F807C0
F807C0
F807C0
F807C0
F807C0
F807C0
F807C0
F807C0
FFFFC0
FFFFC0
FFFFC0
FFFFC0
01E000
01E000
01E000
01E000
01E000
01E000
01E000
ENDCHAR
STARTCHAR 0462
ENCODING 1122
SWIDTH 624 0
DWIDTH 26 0
BBX 23 30 1 0
BITMAP
03C000
03C000
03C000
03C000
03C000
FFFFF0
FFFFF0
FFFFF0
FFFFF0
03C000
03C000
03C000
03C000
03C000
03FF80
03FFF0
03FFF8
03FFFC
03C0FE
03C03E
03C03E
03C01E
03C03E
03C03E
03C03E
03C0FE
03FFFC
03FFF8
03FFF0
03FF80
ENDCHAR
STARTCHAR 0463
ENCODING 1123
SWIDTH 600 0
DWIDTH 25 0
BBX 22 26 1 0
BITMAP
03E000
03E000
03E000
03E000
FFFFC0
FFFFC0
FFFFC0
FFFFC0
03E000
03E000
03E000
03E000
03FF80
03FFE0
03FFF8
03FFF8
03E0FC
03E07C
03E07C
03E07C
03E07C
03E0FC
03FFF8
03FFF8
03FFE0
03FF80
ENDCHAR
STARTCHAR 0472
ENCODING 1138
SWIDTH 672 0
DWIDTH 28 0
BBX 24 28 2 0
BITMAP
00FF00
03FFC0
0FFFF0
1FFFF8
1F81FC
3F00FC
7E007E
7C003E
7C003F
F8001F
F8001F
F8001F
FFFFFF
FFFFFF
FFFFFF
FFFFFF
F8001F
F8001F
78001F
7C001F
7C003E
3E003E
3F007C
1F81FC
0FFFF8
07FFF0
03FFC0
00FF00
ENDCHAR
STARTCHAR 0473
ENCODING 1139
SWIDTH 552 0
DWIDTH 23 0
BBX 19 20 2 0
BITMAP
03F800
0FFE00
1FFF00
3FFF80
7E0FC0
7803C0
F803E0
FFFFE0
FFFFE0
FFFFE0
FFFFE0
F001E0
F803E0
F803E0
7C07C0
7E0FC0
3FFF80
1FFF00
0FFE00
03F800
ENDCHAR
STARTCHAR 0474
ENCODING 1140
SWIDTH 552 0
DWIDTH 23 0
BBX 25 28 0 0
BITMAP
F8000F80
F8003F00
7C007F00
7C007F00
7C00F800
3E00F800
3E00F000
3E01F000
3E01F000
1F01E000
1F01E000
1F03E000
0F03E000
0F83C000
0F83C000
0787C000
0787C000
07C78000
07C78000
03CF8000
03EF0000
03EF0000
01EF0000
01FF0000
01FE0000
00FE0000
00FE0000
00FE0000
ENDCHAR
STARTCHAR 0475
ENCODING 1141
SWIDTH 504 0
DWIDTH 21 0
BBX 22 20 0 0
BITMAP
FC007C
7C00FC
7C01FC
3E01F8
3E03E0
3E03C0
1E07C0
1F0780
0F0780
0F0F80
0F8F80
078F00
078F00
07DF00
03DE00
03DE00
03DE00
01FC00
01FC00
01FC00
ENDCHAR
STARTCHAR 0490
ENCODING 1168
SWIDTH 504 0
DWIDTH 21 0
BBX 18 35 3 0
BITMAP
0007C0
000780
000780
000780
000780
000780
000780
FFFF80
FFFF80
FFFF80
FFFF80
F80000
F80000
F80000
F80000
F80000
F80000
F80000
F80000
F80000
F80000
F80000
F80000
F80000
F80000
F80000
F80000
F80000
F80000
F80000
F80000
F80000
F80000
F80000
F80000
ENDCHAR
STARTCHAR 0491
ENCODING 1169
SWIDTH 432 0
DWIDTH 18 0
BBX 14 27 3 0
BITMAP
003C
003C
003C
003C
003C
003C
007C
FFFC
FFFC
FFFC
FFFC
F800
F800
F800
F800
F800
F800
F800
F800
F800
F800
F800
F800
F800
F800
F800
F800
ENDCHAR
STARTCHAR 0492
ENCODING 1170
SWIDTH 528 0
DWIDTH 22 0
BBX 20 28 1 0
BITMAP
1FFFF0
1FFFF0
1FFFF0
1FFFF0
1F0000
1F0000
1F0000
1F0000
1F0000
1F0000
1F0000
1F0000
1F0000
FFFC00
FFFC00
1F0000
1F0000
1F0000
1F0000
1F0000
1F0000
1F0000
1F0000
1F0000
1F0000
1F0000
1F0000
1F0000
ENDCHAR
STARTCHAR 0493
ENCODING 1171
SWIDTH 456 0
DWIDTH 19 0
BBX 16 20 1 0
BITMAP
1FFF
1FFF
1FFF
1FFF
1F00
1F00
1F00
1F00
1F00
FFF8
FFF8
1F00
1F00
1F00
1F00
1F00
1F00
1F00
1F00
1F00
ENDCHAR
STARTCHAR 0496
ENCODING 1174
SWIDTH 888 0
DWIDTH 37 0
BBX 36 35 0 -7
BITMAP
F801F003E0
7E01F007C0
7E01F00FC0
7F01F01FC0
0F81F03E00
0781F03C00
07C1F07C00
03C1F07800
03E1F07800
01E1F0F800
01F1F0F000
01F1F1F000
00FFFFE000
00FFFFE000
00FFFFE000
01FFFFF000
01F1F0F000
03E1F0F800
03E1F07C00
07C1F07C00
0F81F03E00
0F81F03E00
1F01F01F00
1F01F01F00
3E01F00FF0
3E01F00FF0
7C01F007F0
FC01F007F0
00000001F0
00000001F0
00000001F0
00000001F0
00000001F0
00000001F0
00000001F0
ENDCHAR
STARTCHAR 0497
ENCODING 1175
SWIDTH 768 0
DWIDTH 32 0
BBX 31 27 0 -7
BITMAP
7C078078
7E0781F8
3F0783F8
3F8783F0
0F8787C0
07C78780
03C78F80
03FFFF00
01FFFF00
01FFFF00
03FFFF00
07C78F80
07C78780
0F8787C0
0F8783E0
1F0783E0
3E0781FE
3E0781FE
7C0780FE
7C0780FE
8000001E
0000001E
0000001E
0000001E
0000001E
0000001E
0000001E
ENDCHAR
STARTCHAR 0498
ENCODING 1176
SWIDTH 552 0
DWIDTH 23 0
BBX 20 35 2 -7
BITMAP
03F800
1FFE00
7FFF80
7FFFC0
3C0FC0
1007C0
0003E0
0003E0
0003E0
0003C0
0007C0
001F80
03FF80
03FE00
03FF80
03FFC0
0007E0
0003E0
0001F0
0001F0
0001F0
2001F0
7003F0
FC0FE0
FFFFE0
7FFFC0
1FFF00
07FC00
00F000
00F000
00F000
00F000
00F000
00F000
00F000
ENDCHAR
STARTCHAR 0499
ENCODING 1177
SWIDTH 480 0
DWIDTH 20 0
BBX 17 27 1 -7
BITMAP
07F000
3FFC00
7FFE00
7FFF00
381F00
200F00
001F00
07FF00
07FE00
07F800
07FE00
001F00
000F80
000F80
200F80
781F80
7FFF00
FFFF00
3FFE00
0FF000
03E000
03E000
03E000
03E000
03E000
03E000
03C000
ENDCHAR
STARTCHAR 049A
ENCODING 1178
SWIDTH 648 0
DWIDTH 27 0
BBX 23 35 3 -7
BITMAP
F8007C
F800F8
F801F8
F803F8
F807C0
F80780
F80F80
F80F00
F81F00
F81E00
F83E00
F83C00
FFFC00
FFF800
FFFC00
FFFC00
F83E00
F83F00
F81F00
F80F80
F80F80
F807C0
F807E0
F803E0
F801FE
F801FE
F800FE
F8007E
00001E
00001E
00001E
00001E
00001E
00001E
00001E
ENDCHAR
STARTCHAR 049B
ENCODING 1179
SWIDTH 576 0
DWIDTH 24 0
BBX 20 28 3 -7
BITMAP
F80780
F80F80
F81F80
F83F80
F83C00
F87800
F87800
F8F800
FFF000
FFF000
FFF000
FFF800
F8F800
F87C00
F87C00
F83E00
F81F00
F81FF0
F80FF0
F80FF0
F807F0
0001F0
0001F0
0001F0
0001F0
0001F0
0001F0
0001F0
ENDCHAR
STARTCHAR 04A0
ENCODING 1184
SWIDTH 744 0
DWIDTH 31 0
BBX 30 28 1 0
BITMAP
FFF80078
FFF801F8
FFF803F8
FFF807F0
00F807C0
00F80F80
00F80F00
00F81F00
00F81E00
00F83E00
00F83C00
00F87C00
00FFF800
00FFF800
00FFF800
00FFFC00
00F87C00
00F83E00
00F83F00
00F81F00
00F80F80
00F80FC0
00F807C0
00F803E0
00F803E0
00F801F0
00F801F8
00F800FC
ENDCHAR
STARTCHAR 04A1
ENCODING 1185
SWIDTH 648 0
DWIDTH 27 0
BBX 25 21 1 0
BITMAP
00000F00
FFF03F00
FFF07F00
FFF07E00
FFF0F800
01F0F000
01F1F000
01F1E000
01FFE000
01FFC000
01FFE000
01FFE000
01F1F000
01F0F800
01F0F800
01F07C00
01F07C00
01F03E00
01F03F00
01F01F00
01F00F80
ENDCHAR
STARTCHAR 04A2
ENCODING 1186
SWIDTH 672 0
DWIDTH 28 0
BBX 25 35 3 -7
BITMAP
F800F800
F800F800
F800F800
F800F800
F800F800
F800F800
F800F800
F800F800
F800F800
F800F800
F800F800
F800F800
FFFFF800
FFFFF800
FFFFF800
FFFFF800
F800F800
F800F800
F800F800
F800F800
F800F800
F800F800
F800F800
F800F800
F800FF80
F800FF80
F800FF80
F800FF80
00000F00
00000F00
00000F00
00000F00
00000F00
00000F00
00000F00
ENDCHAR
STARTCHAR 04A3
ENCODING 1187
SWIDTH 600 0
DWIDTH 25 0
BBX 21 27 3 -7
BITMAP
F807C0
F807C0
F807C0
F807C0
F807C0
F807C0
F807C0
FFFFC0
FFFFC0
FFFFC0
FFFFC0
F807C0
F807C0
F807C0
F807C0
F807C0
F807F8
F807F8
F807F8
F807F8
0000F8
0000F8
0000F8
0000F8
0000F8
0000F8
0000F8
ENDCHAR
STARTCHAR 04AA
ENCODING 1194
SWIDTH 576 0
DWIDTH 24 0
BBX 21 35 2 -7
BITMAP
007F00
01FFC0
07FFF0
0FFFF8
1FC1F0
3F0060
3E0000
7E0000
7C0000
7C0000
F80000
F80000
F80000
F80000
F80000
F80000
F80000
F80000
7C0000
7C0000
7E0000
3E0020
3F0070
1FC1F0
0FFFF8
07FFF0
03FFE0
00FF80
003E00
003E00
003E00
003E00
003E00
003E00
003E00
ENDCHAR
STARTCHAR 04AB
ENCODING 1195
SWIDTH 456 0
DWIDTH 19 0
BBX 16 27 2 -7
BITMAP
01F8
0FFE
1FFF
3FFE
7F0E
7C04
FC00
F800
F800
F800
F800
F800
F800
FC00
FC02
7F0E
3FFF
3FFF
0FFE
03F8
01F0
01F0
01F0
01F0
01F0
01F0
01E0
ENDCHAR
STARTCHAR 04AE
ENCODING 1198
SWIDTH 504 0
DWIDTH 21 0
BBX 21 28 0 0
BITMAP
F800F8
7C01F8
7C01F0
7C01F0
3E03E0
3E03E0
1F07C0
1F07C0
0F8780
0F8F80
078F00
07DF00
03DE00
03FE00
01FC00
01FC00
00F800
00F800
00F800
00F800
00F800
00F800
00F800
00F800
00F800
00F800
00F800
00F800
ENDCHAR
STARTCHAR 04AF
ENCODING 1199
SWIDTH 504 0
DWIDTH 21 0
BBX 20 29 0 -9
BITMAP
FC01F0
7C01F0
7C01E0
3E01E0
3E03E0
1E03C0
1E03C0
1F07C0
0F0780
0F0780
0F8F00
078F00
078F00
03DE00
03DE00
03DE00
01FC00
01FC00
00F800
00F800
00F800
00F800
00F800
00F800
00F800
00F800
00F800
00F800
00F800
ENDCHAR
STARTCHAR 04B0
ENCODING 1200
SWIDTH 504 0
DWIDTH 21 0
BBX 21 28 0 0
BITMAP
F800F8
7C01F8
7C01F0
7C01F0
3E03E0
3E03E0
1F07C0
1F07C0
0F8780
0F8F80
078F00
07DF00
03DE00
03FE00
03FE00
01FC00
3FFFE0
3FFFE0
00F800
00F800
00F800
00F800
00F800
00F800
00F800
00F800
00F800
00F800
ENDCHAR
STARTCHAR 04B1
ENCODING 1201
SWIDTH 504 0
DWIDTH 21 0
BBX 20 29 0 -9
BITMAP
FC01F0
7C01F0
7C01E0
3E01E0
3E03E0
1E03C0
1E03C0
1F07C0
0F0780
0F0780
078F00
078F00
078F00
03DE00
03DE00
03DE00
01FC00
01FC00
3FFFE0
3FFFE0
00F800
00F800
00F800
00F800
00F800
00F800
00F800
00F800
00F800
ENDCHAR
STARTCHAR 04B2
ENCODING 1202
SWIDTH 576 0
DWIDTH 24 0
BBX 23 35 1 -7
BITMAP
FC01F8
7C01F0
7E03E0
3E03E0
3F07C0
1F07C0
1F8F80
0F8F80
07CF00
07DF00
03FE00
03FE00
01FC00
01FC00
01FC00
03FC00
03FE00
07FE00
079F00
0F9F00
0F0F80
1F0F80
1E07C0
3E07E0
7C03FE
7C03FE
F801FE
F800FC
00003C
00003C
00003C
00003C
00003C
00003C
00003C
ENDCHAR
STARTCHAR 04B3
ENCODING 1203
SWIDTH 528 0
DWIDTH 22 0
BBX 20 27 1 -7
BITMAP
FC07C0
7C0F80
3E0F80
3E1F00
1F1E00
0F3E00
0FBC00
07FC00
07F800
03F000
03F000
07F800
0FFC00
0F7C00
1F3E00
3E1F00
3E1FF0
7C0FF0
780FF0
F807F0
0001F0
0001F0
0001F0
0001F0
0001F0
0001F0
0001F0
ENDCHAR
STARTCHAR 04B6
ENCODING 1206
SWIDTH 624 0
DWIDTH 26 0
BBX 23 35 3 -7
BITMAP
F003E0
F003E0
F003E0
F003E0
F003E0
F003E0
F003E0
F003E0
F803E0
F803E0
F803E0
FC03E0
7E03E0
7FFFE0
3FFFE0
1FFFE0
03FFE0
0003E0
0003E0
0003E0
0003E0
0003E0
0003E0
0003E0
0003FE
0003FE
0003FE
0003FC
00003C
00003C
00003C
00003C
00003C
00003C
00003C
ENDCHAR
STARTCHAR 04B7
ENCODING 1207
SWIDTH 552 0
DWIDTH 23 0
BBX 20 27 2 -7
BITMAP
F80F80
F80F80
F80F80
F80F80
F80F80
F80F80
F80F80
FC0F80
7E0F80
7FFF80
3FFF80
1FFF80
07FF80
000F80
000F80
000F80
000FF0
000FF0
000FF0
000FF0
0000F0
0000F0
0000F0
0000F0
0000F0
0000F0
0000F0
ENDCHAR
STARTCHAR 04BA
ENCODING 1210
SWIDTH 624 0
DWIDTH 26 0
BBX 20 28 3 0
BITMAP
F80000
F80000
F80000
F80000
F80000
F80000
F80000
F80000
F80000
F80000
F80000
FFFC00
FFFF80
FFFFC0
FFFFE0
F807E0
F803F0
F801F0
F801F0
F801F0
F801F0
F801F0
F801F0
F801F0
F801F0
F801F0
F801F0
F801F0
ENDCHAR
STARTCHAR 04BB
ENCODING 1211
SWIDTH 552 0
DWIDTH 23 0
BBX 18 30 3 0
BITMAP
F80000
F80000
F80000
F80000
F80000
F80000
F80000
F80000
F80000
F80000
F8FC00
F9FF00
FFFF00
FFFF80
FF0F80
FC0F80
F807C0
F807C0
F807C0
F807C0
F807C0
F807C0
F807C0
F807C0
F807C0
F807C0
F807C0
F807C0
F807C0
F807C0
ENDCHAR
STARTCHAR 04C0
ENCODING 1216
SWIDTH 288 0
DWIDTH 12 0
BBX 5 28 3 0
BITMAP
F8
F8
F8
F8
F8
F8
F8
F8
F8
F8
F8
F8
F8
F8
F8
F8
F8
F8
F8
F8
F8
F8
F8
F8
F8
F8
F8
F8
ENDCHAR
STARTCHAR 04C1
ENCODING 1217
SWIDTH 840 0
DWIDTH 35 0
BBX 35 36 0 0
BITMAP
001E0F8000
001E0F0000
001F1F0000
000FFE0000
0007FE0000
0003F80000
0000000000
0000000000
F801F003E0
7E01F007C0
7E01F00FC0
7F01F01FC0
0F81F03E00
0781F03C00
07C1F07C00
03C1F07800
03E1F07800
01E1F0F800
01F1F0F000
01F1F1F000
00FFFFE000
00FFFFE000
00FFFFE000
01FFFFF000
01F1F0F000
03E1F0F800
03E1F07C00
07C1F07C00
0F81F03E00
0F81F03E00
1F01F01F00
1F01F01F00
3E01F00F80
3E01F00FC0
7C01F007C0
FC01F007E0
ENDCHAR
STARTCHAR 04C2
ENCODING 1218
SWIDTH 720 0
DWIDTH 30 0
BBX 30 31 0 0
BITMAP
00F03C00
00F03C00
00783C00
00787800
003FF800
003FF000
000FC000
00000000
00000000
00000000
00000000
7C078078
7E0781F8
3F0783F8
3F8783F0
0F8787C0
07C78780
03C78F80
03FFFF00
01FFFF00
01FFFF00
03FFFF00
07C78F80
07C78780
0F8787C0
0F8783E0
1F0783E0
3E0781F0
3E0781F0
7C0780F8
FC0780FC
ENDCHAR
STARTCHAR 04CF
ENCODING 1231
SWIDTH 264 0
DWIDTH 11 0
BBX 7 30 3 0
BITMAP
F8
F8
F8
F8
F8
F8
F8
F8
F8
F8
F8
F8
F8
F8
F8
F8
F8
F8
F8
F8
F8
F8
F8
F8
F8
F8
FE
7E
7E
3E
ENDCHAR
STARTCHAR 04D0
ENCODING 1232
SWIDTH 552 0
DWIDTH 23 0
BBX 24 36 0 0
BITMAP
0783E0
0783C0
07C7C0
03FFC0
01FF80
00FE00
000000
000000
007E00
00FE00
00FE00
00FF00
01EF00
01EF00
01EF80
03E780
03C780
03C7C0
07C3C0
0783C0
0783E0
0783E0
0F81E0
0F01F0
0FFFF0
1FFFF0
1FFFF0
1FFFF8
3E00F8
3E0078
3C007C
7C007C
7C007C
7C003E
F8003E
F8003F
ENDCHAR
STARTCHAR 04D1
ENCODING 1233
SWIDTH 528 0
DWIDTH 22 0
BBX 17 31 2 0
BITMAP
3C0F00
1C0F00
1E0F00
1F1E00
0FFE00
07FC00
03F000
000000
000000
000000
000000
03F800
1FFC00
7FFE00
7FFF00
3C1F00
200F80
000F80
007F80
07FF80
1FFF80
7F8F80
7C0F80
F80F80
F80F80
F81F80
FC3F80
FFFF80
7FF780
3FE780
1F8000
ENDCHAR
STARTCHAR 04D4
ENCODING 1236
SWIDTH 840 0
DWIDTH 35 0
BBX 33 28 0 0
BITMAP
0007FFFF00
0007FFFF00
000FFFFF00
000FFFFF00
001F780000
001F780000
003E780000
003E780000
007C780000
007C780000
00F8780000
00F8780000
01F07FFE00
01F07FFE00
03F07FFE00
03E07FFE00
03E0780000
07FFF80000
07FFF80000
0FFFF80000
0FFFF80000
1F00780000
1F00780000
3E00780000
3E007FFF80
7C007FFF80
7C007FFF80
F8007FFF80
ENDCHAR
STARTCHAR 04D5
ENCODING 1237
SWIDTH 792 0
DWIDTH 33 0
BBX 29 20 2 0
BITMAP
03F01F00
1FF87FC0
7FFCFFE0
7FFFFFF0
3C1FE0F8
300FC078
000F8078
007F8078
07FFFFF8
1FFFFFF8
3F8FFFF8
7C0F8000
F80F8000
F8078000
F80FC020
FC3FF070
7FFFFFF0
7FF9FFF8
3FF0FFE0
0F803F80
ENDCHAR
STARTCHAR 04D6
ENCODING 1238
SWIDTH 552 0
DWIDTH 23 0
BBX 17 36 3 0
BITMAP
3C0F00
3E1F00
1E1E00
1FFE00
0FFC00
03F000
000000
000000
FFFF80
FFFF80
FFFF80
FFFF80
F80000
F80000
F80000
F80000
F80000
F80000
F80000
F80000
FFFE00
FFFE00
FFFE00
FFFE00
F80000
F80000
F80000
F80000
F80000
F80000
F80000
F80000
FFFF80
FFFF80
FFFF80
FFFF80
ENDCHAR
STARTCHAR 04D7
ENCODING 1239
SWIDTH 504 0
DWIDTH 21 0
BBX 18 31 2 0
BITMAP
3C0F00
3C0F00
1E0F00
1E1E00
0FFE00
07FC00
03F000
000000
000000
000000
000000
03F000
0FFC00
1FFF00
3FFF00
7E0F80
7C0780
F80780
F803C0
FFFFC0
FFFFC0
FFFFC0
F00000
F80000
F80000
7C0200
7F0700
3FFF00
1FFF80
0FFF00
03F800
ENDCHAR
STARTCHAR 04D8
ENCODING 1240
SWIDTH 672 0
DWIDTH 28 0
BBX 24 28 2 0
BITMAP
00FF00
03FFC0
0FFFF0
1FFFF8
0F83F8
0E00FC
08007E
00003E
00003E
00001F
00001F
00001F
00001F
FFFFFF
FFFFFF
FFFFFF
FFFFFF
F8001F
78001E
7C003E
7C003E
3E007C
3F00FC
1F81F8
1FFFF8
0FFFE0
03FFC0
00FF00
ENDCHAR
STARTCHAR 04D9
ENCODING 1241
SWIDTH 504 0
DWIDTH 21 0
BBX 18 20 2 0
BITMAP
07E000
3FFC00
7FFE00
7FFF00
383F00
201F80
000F80
000780
000780
FFFFC0
FFFFC0
FFFFC0
F00780
F00F80
F00F80
FC3F00
7FFF00
3FFE00
1FF800
07E000
ENDCHAR
STARTCHAR 04E2
ENCODING 1250
SWIDTH 672 0
DWIDTH 28 0
BBX 21 33 3 0
BITMAP
07FF80
07FF80
07FF80
000000
000000
F800F8
F801F8
F801F8
F803F8
F803F8
F807F8
F807F8
F80FF8
F80F78
F81F78
F81E78
F83E78
F87C78
F87C78
F8F878
F8F878
F9F078
F9E078
FBE078
FBC078
FFC078
FF8078
FF8078
FF0078
FF0078
FE0078
FC0078
FC0078
ENDCHAR
STARTCHAR 04E3
ENCODING 1251
SWIDTH 576 0
DWIDTH 24 0
BBX 18 28 3 0
BITMAP
1FFE00
1FFE00
1FFE00
000000
000000
000000
000000
000000
F807C0
F807C0
F80FC0
F81FC0
F81FC0
F83FC0
F87BC0
F87BC0
F8F3C0
F9E7C0
F9E7C0
FBC7C0
F787C0
F787C0
FF07C0
FF07C0
FE07C0
FC07C0
FC07C0
F807C0
ENDCHAR
STARTCHAR 04E6
ENCODING 1254
SWIDTH 672 0
DWIDTH 28 0
BBX 24 35 2 0
BITMAP
0381C0
07C3E0
07C3E0
07C3E0
0381C0
000000
000000
007F00
03FFC0
07FFF0
0FFFF8
1FC1FC
3F00FC
3E007E
7C003E
7C003F
7C001F
F8001F
F8001F
F8001F
F8001F
F8001F
F8001F
F8001F
F8001F
7C001F
7C003F
7E003E
3E007E
3F00FC
1FC1FC
0FFFF8
07FFF0
03FFC0
007F00
ENDCHAR
STARTCHAR 04E7
ENCODING 1255
SWIDTH 552 0
DWIDTH 23 0
BBX 19 29 2 0
BITMAP
0E0E00
1F1F00
1F1F00
1F1F00
0E0E00
000000
000000
000000
000000
03F800
0FFE00
1FFF00
3FFF80
7E0FC0
7C07C0
F803E0
F803E0
F803E0
F803E0
F803E0
F803E0
F803E0
F803E0
7C07C0
7E0FC0
3FFF80
1FFF00
0FFE00
03F800
ENDCHAR
STARTCHAR 04E8
ENCODING 1256
SWIDTH 672 0
DWIDTH 28 0
BBX 24 28 2 0
BITMAP
00FF00
03FFC0
0FFFF0
1FFFF8
1F81FC
3F00FC
7E007E
7C003E
7C003F
F8001F
F8001F
F8001F
FFFFFF
FFFFFF
FFFFFF
FFFFFF
F8001F
F8001F
78001F
7C001F
7C003E
3E003E
3F007C
1F81FC
0FFFF8
07FFF0
03FFC0
00FF00
ENDCHAR
STARTCHAR 04E9
ENCODING 1257
SWIDTH 552 0
DWIDTH 23 0
BBX 19 20 2 0
BITMAP
03F800
0FFE00
1FFF00
3FFF80
7E0FC0
7803C0
F803E0
FFFFE0
FFFFE0
FFFFE0
FFFFE0
F001E0
F803E0
F803E0
7C07C0
7E0FC0
3FFF80
1FFF00
0FFE00
03F800
ENDCHAR
STARTCHAR 04EE
ENCODING 1262
SWIDTH 528 0
DWIDTH 22 0
BBX 23 33 0 0
BITMAP
07FF80
07FF80
07FF80
000000
000000
FC007E
7C007C
7C007C
3E00F8
3E00F8
1F00F0
1F01F0
0F01F0
0F83E0
0783E0
07C3C0
07C7C0
03C7C0
03E780
01EF80
01EF00
00FF00
00FF00
007E00
007E00
007C00
007C00
007C00
00F800
0FF000
0FF000
1FE000
1F8000
ENDCHAR
STARTCHAR 04EF
ENCODING 1263
SWIDTH 504 0
DWIDTH 21 0
BBX 20 37 0 -9
BITMAP
07FF80
07FF80
07FF80
000000
000000
000000
000000
000000
FC01F0
7C01F0
3C01E0
3E01E0
3E03E0
1E03C0
1F03C0
0F07C0
0F0780
0F8780
078F80
078F00
03CF00
03CF00
03DE00
01FE00
01FE00
01FC00
00FC00
00FC00
007800
00F800
00F000
01F000
03E000
3FE000
3FC000
3F8000
3E0000
ENDCHAR
STARTCHAR 04F2
ENCODING 1266
SWIDTH 528 0
DWIDTH 22 0
BBX 23 38 0 0
BITMAP
002060
007870
007CF8
00F0F0
00E1E0
01E3C0
03C380
008100
000000
000000
FC007E
7C007C
7C007C
3E00F8
3E00F8
1F00F0
1F01F0
0F01F0
0F83E0
0783E0
07C3C0
07C7C0
03C7C0
03E780
01EF80
01EF00
00FF00
00FF00
007E00
007E00
007C00
007C00
007C00
00F800
0FF000
0FF000
1FE000
1F8000
ENDCHAR
STARTCHAR 04F3
ENCODING 1267
SWIDTH 504 0
DWIDTH 21 0
BBX 20 42 0 -9
BITMAP
006000
0078C0
00F0F0
00F1E0
01E1C0
01E3C0
01C380
038780
018300
000000
000000
000000
000000
FC01F0
7C01F0
3C01E0
3E01E0
3E03E0
1E03C0
1F03C0
0F07C0
0F0780
0F8780
078F80
078F00
03CF00
03CF00
03DE00
01FE00
01FE00
01FC00
00FC00
00FC00
007800
00F800
00F000
01F000
03E000
3FE000
3FC000
3F8000
3E0000
ENDCHAR
STARTCHAR 1D43
ENCODING 7491
SWIDTH 360 0
DWIDTH 15 0
BBX 12 14 1 16
BITMAP
0F80
3FE0
7FE0
30F0
00F0
07F0
3FF0
7CF0
70F0
F0F0
F1F0
7FF0
7F70
3E70
ENDCHAR
STARTCHAR 1D47
ENCODING 7495
SWIDTH 384 0
DWIDTH 16 0
BBX 13 20 2 16
BITMAP
E000
E000
E000
E000
E000
E000
E7C0
EFE0
FFF0
F8F0
E070
E078
E078
E078
E078
E070
F0F0
FFE0
FFE0
E780
ENDCHAR
STARTCHAR 1D48
ENCODING 7496
SWIDTH 384 0
DWIDTH 16 0
BBX 13 20 1 16
BITMAP
0078
0078
0078
0078
0078
0038
0F38
3FF8
3FF8
7878
7078
F078
F078
F078
F078
7078
78F8
7FF8
3FB8
0F38
ENDCHAR
STARTCHAR 1D49
ENCODING 7497
SWIDTH 336 0
DWIDTH 14 0
BBX 12 14 1 16
BITMAP
0F80
3FE0
7FE0
78F0
F070
F070
FFF0
FFF0
F000
F000
7820
7FE0
3FF0
0FC0
ENDCHAR
STARTCHAR 1D4D
ENCODING 7501
SWIDTH 360 0
DWIDTH 15 0
BBX 13 20 1 10
BITMAP
1FF8
3FF8
79F8
70E0
F0E0
70E0
79E0
3FC0
3F80
7000
7000
7FE0
3FF8
7FF8
6038
E038
E038
F070
7FE0
1F80
ENDCHAR
STARTCHAR 1D4F
ENCODING 7503
SWIDTH 360 0
DWIDTH 15 0
BBX 13 20 2 16
BITMAP
E000
E000
E000
E000
E000
E000
E0F0
E1E0
E3C0
E380
E700
EF00
FF00
FF00
FB80
F3C0
E1C0
E1E0
E0F0
E078
ENDCHAR
STARTCHAR 1D50
ENCODING 7504
SWIDTH 576 0
DWIDTH 24 0
BBX 20 14 2 16
BITMAP
E7C3C0
EFEFE0
FFFFF0
F8F8F0
F0F0F0
E0F070
E0F070
E0F070
E0F070
E0F070
E0F070
E0F070
E0F070
E0F070
ENDCHAR
STARTCHAR 1D52
ENCODING 7506
SWIDTH 384 0
DWIDTH 16 0
BBX 13 14 1 16
BITMAP
0F80
3FE0
3FF0
78F8
F078
F038
F038
F038
F038
F078
78F8
3FF0
3FE0
0F80
ENDCHAR
STARTCHAR 1D56
ENCODING 7510
SWIDTH 384 0
DWIDTH 16 0
BBX 13 19 2 11
BITMAP
E7C0
FFE0
FFF0
F8F0
E070
E078
E078
E078
E078
E070
F0F0
FFE0
FFE0
E780
E000
E000
E000
E000
E000
ENDCHAR
STARTCHAR 1D57
ENCODING 7511
SWIDTH 240 0
DWIDTH 10 0
BBX 9 18 1 16
BITMAP
3800
3800
3800
3800
FF00
FF00
FF00
3800
3800
3800
3800
3800
3800
3800
3C00
3F80
3F80
0F80
ENDCHAR
STARTCHAR 1D58
ENCODING 7512
SWIDTH 384 0
DWIDTH 16 0
BBX 12 14 2 16
BITMAP
E0F0
E0F0
E0F0
E0F0
E0F0
E0F0
E0F0
E0F0
E0F0
F0F0
F1F0
FFF0
7F70
3C70
ENDCHAR
STARTCHAR 1D5B
ENCODING 7515
SWIDTH 336 0
DWIDTH 14 0
BBX 14 14 0 16
BITMAP
F03C
7038
7838
3878
3870
3870
1C70
1CE0
1CE0
0EE0
0FC0
0FC0
07C0
0780
ENDCHAR
STARTCHAR 1D9C
ENCODING 7580
SWIDTH 312 0
DWIDTH 13 0
BBX 11 14 1 16
BITMAP
0FC0
1FE0
3FE0
7840
F000
F000
F000
F000
F000
F000
7840
7FE0
3FE0
0F80
ENDCHAR
STARTCHAR 1DA0
ENCODING 7584
SWIDTH 216 0
DWIDTH 9 0
BBX 9 20 1 16
BITMAP
0F80
1F80
3F00
3C00
3800
3800
FF00
FF00
FF00
3800
3800
3800
3800
3800
3800
3800
3800
3800
3800
3800
ENDCHAR
STARTCHAR 1DBB
ENCODING 7611
SWIDTH 312 0
DWIDTH 13 0
BBX 11 14 1 16
BITMAP
7FE0
7FE0
7FC0
03C0
0780
0700
0F00
1E00
3C00
3800
7800
FFE0
FFE0
FFE0
ENDCHAR
STARTCHAR 1E06
ENCODING 7686
SWIDTH 600 0
DWIDTH 25 0
BBX 21 36 3 -8
BITMAP
FFFC00
FFFF00
FFFFC0
FFFFC0
F80FE0
F803E0
F803E0
F803E0
F803E0
F803E0
F80FC0
FFFF80
FFFF00
FFFF00
FFFFC0
F807E0
F801F0
F801F0
F800F0
F800F8
F800F0
F801F0
F801F0
F807F0
FFFFE0
FFFFC0
FFFF80
FFFC00
000000
000000
000000
000000
000000
0FFF00
0FFF00
0FFF00
ENDCHAR
STARTCHAR 1E07
ENCODING 7687
SWIDTH 576 0
DWIDTH 24 0
BBX 19 38 3 -8
BITMAP
F80000
F80000
F80000
F80000
F80000
F80000
F80000
F80000
F80000
F80000
F8FC00
FBFF00
FFFF80
FFFF80
FE0FC0
FC07C0
F807E0
F803E0
F803E0
F803E0
F803E0
F803E0
F803E0
F807C0
FC0FC0
FE1F80
FFFF80
FFFF00
F3FE00
00F800
000000
000000
000000
000000
000000
1FFE00
1FFE00
1FFE00
ENDCHAR
STARTCHAR 1E0C
ENCODING 7692
SWIDTH 624 0
DWIDTH 26 0
BBX 21 37 3 -9
BITMAP
FFF000
FFFE00
FFFF80
FFFFC0
F81FE0
F807E0
F803F0
F801F0
F801F8
F800F8
F800F8
F800F8
F800F8
F800F8
F800F8
F800F8
F800F8
F800F8
F800F8
F801F0
F801F0
F803F0
F807E0
F81FC0
FFFFC0
FFFF00
FFFE00
FFF000
000000
000000
000000
00F000
01F000
01F800
01F800
01F000
00F000
ENDCHAR
STARTCHAR 1E0D
ENCODING 7693
SWIDTH 576 0
DWIDTH 24 0
BBX 19 39 2 -9
BITMAP
0003E0
0003E0
0003E0
0003E0
0003E0
0003E0
0003E0
0003E0
0003E0
0003E0
03E3E0
0FFBE0
1FFFE0
3FFFE0
7F0FE0
7C07E0
FC03E0
F803E0
F803E0
F803E0
F803E0
F803E0
F803E0
F803E0
FC07E0
7E1FE0
7FFFE0
3FFFE0
1FF9E0
07E000
000000
000000
000000
007800
00F800
00FC00
00FC00
00F800
007800
ENDCHAR
STARTCHAR 1E0E
ENCODING 7694
SWIDTH 624 0
DWIDTH 26 0
BBX 21 36 3 -8
BITMAP
FFF000
FFFE00
FFFF80
FFFFC0
F81FE0
F807E0
F803F0
F801F0
F801F8
F800F8
F800F8
F800F8
F800F8
F800F8
F800F8
F800F8
F800F8
F800F8
F800F8
F801F0
F801F0
F803F0
F807E0
F81FC0
FFFFC0
FFFF00
FFFE00
FFF000
000000
000000
000000
000000
000000
0FFF00
0FFF00
0FFF00
ENDCHAR
STARTCHAR 1E0F
ENCODING 7695
SWIDTH 576 0
DWIDTH 24 0
BBX 19 38 2 -8
BITMAP
0003E0
0003E0
0003E0
0003E0
0003E0
0003E0
0003E0
0003E0
0003E0
0003E0
03E3E0
0FFBE0
1FFFE0
3FFFE0
7F0FE0
7C07E0
FC03E0
F803E0
F803E0
F803E0
F803E0
F803E0
F803E0
F803E0
FC07E0
7E1FE0
7FFFE0
3FFFE0
1FF9E0
07E000
000000
000000
000000
000000
000000
07FF80
07FF80
07FF80
ENDCHAR
STARTCHAR 1E16
ENCODING 7702
SWIDTH 1008 0
DWIDTH 42 0
BBX 26 27 9 -1
BITMAP
007F0000
01FC0000
07F80000
0FF00000
1FE00000
3FE00000
3FC00000
7FC00000
7FC00000
7FC00000
FFC00000
FFC00000
FFC00000
FFC00000
FFE00000
FFE00000
FFF00000
7FF80000
7FFC0000
7FFE00C0
3FFFE780
1FFFFF00
1FFFFE00
0FFFFC00
03FFF800
01FFE000
003F8000
ENDCHAR
ENDFONT
